
<svg xmlns="http://www.w3.org/2000/svg" width="455" height="282" viewBox="0 0 455 282" fill="none"><path d="M44.668 25.59c20.08-24.098 53.71-31.929 82.825-20.269 15.39 6.156 34.881 16.685 58.753 34.483 69.753 52.009 45.835-32.382 165.986-25.575 94.811 5.378 67.896 127.99 52.28 179.447a72.945 72.945 0 01-30.381 40.25c-29.875 19.21-87.316 43.454-162.22 15.245C99.809 206.939 72.496 168.038 55.296 137.44c-14.222-25.358-42.63-73.429-10.628-111.85z" fill="#EBF2FF"/><mask id="a" maskUnits="userSpaceOnUse" x="30" y="0" width="391" height="263"><path d="M45.046 26.113c20.08-24.099 53.711-31.93 82.825-20.27 15.39 6.157 34.881 16.685 58.754 34.483 69.752 52.01 45.835-32.382 165.985-25.574 94.811 5.377 67.897 127.99 52.281 179.447a72.953 72.953 0 01-30.382 40.249c-29.875 19.21-87.315 43.454-162.219 15.245-112.103-42.232-139.415-81.132-156.616-111.731-14.222-25.357-42.63-73.428-10.628-111.849z" fill="#EBF2FF"/></mask><g mask="url(#a)"><path d="M23.176 99.075s65.643 68.884 92.919 71.654c27.277 2.77 49.927 46.224 94.304 47.157 44.378.923 34.211-26.815 77.204-40.684 42.992-13.869 56.399-15.716 57.323-3.703.923 12.023-11.561 58.292 5.549 44.405s42.531-37.18 44.839-58.129c2.309-20.948 18.495-76.877 28.2-75.954 9.705.924 0 174.278 0 174.278s-136.382 33.749-143.778 32.364c-7.397-1.385-252.857-105.865-252.857-105.865l-3.703-82.743" fill="#DEEAFF"/></g><path d="M320.944 233.265a66.302 66.302 0 00-2.345 23.655 98.499 98.499 0 0018.36-5.242c2.471-15.236 1.955-30.255-3.495-45.853-6.029 8.836-10.592 17.491-12.52 27.44z" fill="#52B8FC"/><path d="M314.037 235.148a66.177 66.177 0 0114.005 19.21 99.008 99.008 0 01-18.531 4.789c-9.841-11.887-16.993-25.095-20.198-41.308 9.687 4.517 18.025 9.695 24.724 17.309z" fill="#52B8FC"/><path d="M97.618 36.753a3.26 3.26 0 00-3.07-2.879 1.965 1.965 0 00-.515.063 6.952 6.952 0 00-2.037-7.06 6.916 6.916 0 00-4.526-1.63 6.618 6.618 0 00-3.015.697 14.485 14.485 0 00-6.12-9.605 22.715 22.715 0 00-11.316-3.82c-.561 0-1.132-.073-1.702-.073-4.526 0-10.166 1.656-11.841 6.255a8.618 8.618 0 00-5.912-2.353 7.783 7.783 0 00-2.01.253 8.564 8.564 0 00-5.902 5.676 8.337 8.337 0 00-5.432-2.01 7.738 7.738 0 00-2.553.417 8.292 8.292 0 00-5.314 6.011 7.678 7.678 0 00-5.613-2.453 7.05 7.05 0 00-1.964.271 7.605 7.605 0 00-5.278 6.337 4.823 4.823 0 00-3.268 1.92 5.603 5.603 0 00-1.123 4.526 7.152 7.152 0 006.546 5.224h.498a10.41 10.41 0 006.509-2.526c-.05.483.01.972.172 1.43.67 1.956 2.806 3.486 4.427 4.2a16.659 16.659 0 006.509 1.44c2.924 0 5.196-.96 6.626-2.788a12.132 12.132 0 009.75 5.432h.209a12.194 12.194 0 009.786-5.124 9.643 9.643 0 006.943 2.715 9.958 9.958 0 008.637-4.453c2.535 1.955 4.888 2.942 7.17 2.996h.172c2.49 0 5.431-1.457 6.246-4.173h1.186a10.629 10.629 0 003.975-.625c1.62-.57 3.295-2.218 3.15-4.291zM83.767 39.25zM454.992 65.437a3.227 3.227 0 00-1.021-1.993 3.329 3.329 0 00-2.09-.872c-.175.002-.35.022-.521.059a6.815 6.815 0 00-.011-3.802 6.918 6.918 0 00-2.049-3.224 7.095 7.095 0 00-4.546-1.613 6.932 6.932 0 00-3.051.69 14.283 14.283 0 00-2.101-5.4 14.531 14.531 0 00-4.087-4.155 23.234 23.234 0 00-11.452-3.799 23.242 23.242 0 00-1.709-.067c-4.538 0-10.256 1.68-11.965 6.219a8.798 8.798 0 00-5.983-2.345 8.226 8.226 0 00-2.034.252 8.687 8.687 0 00-3.726 2.076 8.486 8.486 0 00-2.256 3.58 8.48 8.48 0 00-8.085-1.597 8.419 8.419 0 00-3.471 2.311 8.225 8.225 0 00-1.905 3.672 7.78 7.78 0 00-2.583-1.803 7.903 7.903 0 00-3.1-.642 7.061 7.061 0 00-1.983.277 7.703 7.703 0 00-3.62 2.384 7.502 7.502 0 00-1.721 3.935 4.976 4.976 0 00-1.851.624 4.904 4.904 0 00-1.457 1.284 5.575 5.575 0 00-1.072 2.15 5.53 5.53 0 00-.065 2.396c.607 2.764 3.419 5 6.624 5.185h.513c2.42-.07 4.742-.961 6.572-2.521-.042.484.022.97.188 1.428.666 1.95 2.829 3.47 4.478 4.202a16.975 16.975 0 006.581 1.437c2.957 0 5.256-.958 6.7-2.773a12.208 12.208 0 004.269 3.874 12.445 12.445 0 005.602 1.512h.205a12.473 12.473 0 005.57-1.378 12.245 12.245 0 004.327-3.714 9.794 9.794 0 003.234 2.056 9.919 9.919 0 003.791.666 10.29 10.29 0 004.927-1.118 10.085 10.085 0 003.765-3.318c2.564 1.94 4.94 2.924 7.247 2.983h.18c2.512 0 5.521-1.454 6.316-4.16h1.205a10.793 10.793 0 004.016-.622c1.65-.596 3.342-2.277 3.205-4.336zm-14.024 2.521a4.07 4.07 0 00.675-.58 4.096 4.096 0 01-.675.547v.033z" fill="#A9C3EA"/><path d="M354.658 154.767c3.186-.145 7.885-2.354 12.348-5.115 1.738 2.852 3.476 6.246 5.242 8.808-4.771 3.142-10.638 5.767-17.436 5.133-10.737-.986-27.159-9.442-27.159-9.442.733-1.43 1.485-3.105 1.485-3.105 2.598 1.249 19.907 3.983 25.52 3.721z" fill="#FDC0AE"/><path d="M382.658 146.085c.752 2.001-3.304 8.238-10.13 12.674a42.466 42.466 0 01-5.748-9.704c6.907-4.219 13.796-8.465 15.878-2.97z" fill="url(#paint0_linear)"/><path d="M329.183 151.046c-1.023-.38-.57-1.204-1.412-2.209-.842-1.005-.733-2.489-1.123-2.399-.389.091-.362 1.811-.235 2.236-.58-.425-3.395-2.933-4.029-2.308-.633.624-1.177.389-1.349 1.213a4.251 4.251 0 001.558 3.702c1.348 1.087 2.245 1.811 3.177 2.01a6.589 6.589 0 011.928.86l1.485-3.105z" fill="#FDC0AE"/><path d="M388.679 185.465c8.727 20.342-.77 24.941 8.347 44.36 1.973 4.218 23.999 19.436 28.896 22.813l-2.715 2.997c-27.096-10.14-47.546-15.246-50.588-65.797 6.518-1.729 16.06-4.373 16.06-4.373z" fill="url(#paint1_linear)"/><path d="M427.643 252.964c-.643-.054-1.72-.281-1.72-.281l-2.716 2.997a5.425 5.425 0 012.317 1.43c1.032-.516 1.277-2.344 2.119-4.146z" fill="#FDC0AE"/><path d="M391.856 181.536c6.763 21.076-11.361 23.801-12.728 52.163-.299 6.111 12.022 28.535 14.141 31.477l-3.051 2.617c-20.007-17.038-34.501-47.537-22.678-81.477 6.473-2.145 24.316-4.78 24.316-4.78z" fill="url(#paint2_linear)"/><path d="M394.219 266.263l-.905-1.123-3.051 2.616a6.23 6.23 0 011.385 2.345c1.005-.344 1.494-2.127 2.571-3.838z" fill="#FDC0AE"/><path d="M394.545 265.901c-.969.642-2.87 3.213-4.427 3.376 0 .824.688 3.232-.471 5.323-1.077 1.956-3.041 4.237-1.24 6.193l10.483-11.597c-1.095-1.204-3.222-3.504-4.345-3.295z" fill="#152474"/><path d="M388.407 280.793c.141.149.292.289.453.416l10.429-11.552c-.109-.117-.253-.271-.416-.461l-10.466 11.597z" fill="#0797F5"/><path d="M390.607 275.723a.337.337 0 01-.164.093.338.338 0 01-.189-.012l-1.004-.416a.307.307 0 01-.172-.407.274.274 0 01.064-.106.296.296 0 01.343-.066l1.005.407a.301.301 0 01.103.069.314.314 0 01.069.347.47.47 0 01-.055.091zM391.413 273.804a.33.33 0 01-.263.099l-1.077-.081a.317.317 0 01-.299-.335.327.327 0 01.344-.29l1.087.082a.315.315 0 01.289.335.364.364 0 01-.081.19zM391.648 271.74a.407.407 0 01-.172.099l-1.077.19a.3.3 0 01-.235-.05.297.297 0 01-.084-.089.287.287 0 01-.043-.114.3.3 0 01.05-.235.31.31 0 01.203-.127l1.069-.199a.295.295 0 01.122.001c.04.008.078.025.112.049a.297.297 0 01.128.203.319.319 0 01-.006.144.315.315 0 01-.067.128z" fill="#fff"/><path d="M427.308 252.258c-.616.986-1.286 4.11-2.635 4.906.326.752 1.965 2.653 1.811 5.043-.172 2.218-1.014 5.106 1.43 6.138l4.726-14.883c-1.512-.643-4.4-1.865-5.332-1.204z" fill="#152474"/><path d="M427.86 268.345c.19.084.387.15.589.199l4.707-14.829-.57-.253-4.726 14.883z" fill="#0797F5"/><path d="M427.779 262.822a.29.29 0 01-.281.218h-1.095a.317.317 0 01-.326-.308.324.324 0 01.307-.326h1.087a.319.319 0 01.326.299.233.233 0 01-.018.117zM427.724 260.74a.34.34 0 01-.19.209l-1.023.371a.327.327 0 01-.407-.19.313.313 0 01.011-.24.289.289 0 01.073-.097.3.3 0 01.106-.062l1.023-.38a.318.318 0 01.398.19.296.296 0 01.009.199zM427.054 258.776a.263.263 0 01-.117.163l-.906.624a.299.299 0 01-.234.052.334.334 0 01-.114-.046.324.324 0 01-.086-.087.314.314 0 01-.05-.112.318.318 0 01.045-.236.31.31 0 01.086-.087l.906-.624a.315.315 0 01.443.081.29.29 0 01.027.272z" fill="#fff"/><path d="M387.312 144.401c4.58 1.241 10.003 5.342 9.27 15.472-.824 11.28-3.241 29.458-3.241 29.458-1.63-.154-26.19-1.666-26.19-1.666-.435-6.129.099-23.229 2.987-32.418s7.152-10.402 9.379-11.353a23.983 23.983 0 017.795.507z" fill="url(#paint3_linear)"/><path d="M390.743 139.884c-.905 1.195-2.137 3.015-2.046 4.988-.969 2.037-10.972 2.716-7.894-1.086a6.354 6.354 0 00.851-2.562c.054-2.109-2.798-.905-2.553-4.174.28-3.847 3.25-10.066 5.631-10.917 2.716-.906 7.17-1.395 10.039 3.621 2.381 4.074-2.218 7.713-4.028 10.13z" fill="#FDC0AE"/><path d="M389.195 135.104c-.987-.552.987-2.834.615-3.857-.443-1.213-3.05-3.259-5.984-4.526-2.933-1.267-2.598-5.857 0-6.337 2.599-.48 3.622.516 5.224.824 1.811.362 2.716-.634 4.834.86 2.001 1.385 1.313 2.634 2.454 3.739 1.14 1.104 3.168 1.33 3.621 4.454.335 2.317-2.535 2.516-3.35 4.417-.516 1.186-.127 5.984-3.911 5.677-3.784-.308-1.358-2.979-.48-4.156.879-1.177.788-2.335.172-2.716-.615-.38-1.783 2.418-3.195 1.621z" fill="#49474D"/><path d="M151.409 158.454v-18.089h-40.981l-2.997-13.058 46.012-53.314h15.574v51.397h11.26v14.975h-11.26v18.089h-17.608zm-22.284-33.064h22.284V99.274l-22.284 26.116z" fill="url(#paint4_linear)"/><path d="M257.588 147.498c-6.955 8.278-15.942 12.417-26.96 12.417-11.019 0-19.966-4.113-26.843-12.341-6.86-8.227-10.292-18.573-10.298-31.037 0-12.38 3.475-22.704 10.425-30.97 6.95-8.267 15.934-12.4 26.952-12.4 10.945 0 19.873 4.113 26.783 12.34 6.911 8.228 10.366 18.571 10.366 31.03 0 12.374-3.475 22.695-10.425 30.961zm-40.078-11.817c3.377 5.031 7.828 7.546 13.354 7.546 5.526 0 9.941-2.496 13.244-7.487 3.309-4.997 4.966-11.409 4.972-19.237 0-7.664-1.72-14.032-5.158-19.102-3.438-5.07-7.87-7.603-13.294-7.597-5.436 0-9.829 2.496-13.177 7.487-3.348 4.992-5.036 11.401-5.064 19.229.011 7.749 1.719 14.141 5.123 19.178v-.017z" fill="url(#paint5_linear)"/><path d="M323.825 158.455v-18.089h-40.973l-2.996-13.059 46.003-53.313h15.582v51.397h11.261v14.975h-11.261v18.089h-17.616zm-22.284-33.064h22.284V99.275l-22.284 26.116z" fill="url(#paint6_linear)"/><path d="M77.887 154.09a3.799 3.799 0 001.358-3.435c-.06-1.477-2.06-10.517 4.78-11.2 4.538-.457 4.71 3.686 4.936 5.351.226 1.665.112 8.603-4.05 7.786a2.415 2.415 0 00.15 2.505 50.719 50.719 0 01-7.174-1.007z" fill="#FDC0AE"/><path d="M22.522 205.038c10.511 4.266 14.796 2.466 26.65 5.773 10.055-10.25.692-22.475 15.25-33.639l14.058 8.879c-2.536 5.642-16.834 34.635-26.217 35.393-8.213.658-26.191-10.674-33.412-12.083.4-1.168 1.268-3.503 1.978-5.061l1.693.738z" fill="url(#paint7_linear)"/><path d="M13.254 205.098c.792-1.308.414-1.859 1.646-2.6 1.045-.622 2.966.485 5.925 1.81-.706 1.55-1.616 3.867-1.978 5.061a4.02 4.02 0 00-2.373.067c-4.278 2.137-6.767 6.189-8.118 4.937-.638-.61 2.7-5.661 4.898-9.275z" fill="#152474"/><path d="M74.428 154.479c-3.37 1.771-17.433 12.033-20.507 13.848-.993.567-12.46 16.005-12.46 16.005s-4.752 2.704-4.737 5.065c.014 2.361.829 2.594 1.195 2.727.86.291 3.33-3.837 4.218-3.329.886.508-1.125 2.267-.845 2.443.28.176 2.924-2.182 3.019-4.311.095-2.129 9.39-12.559 12.474-14.724 3.88-2.734 16.19-8.215 16.19-8.215l1.453-9.509z" fill="#FDC0AE"/><path d="M64.421 177.172l15.712 9.923c1.222-6.985 3.815-12.554 7.736-15.242 2.77-1.933 6.251-4.393 2.727-11.478a44.737 44.737 0 00-2.181-4.17c-.868-.108-2.272-.95-3.651-1.173-2.132-.391-4.191-.771-6.235-1.046a7.568 7.568 0 00-4.126.483c-.45 1.568-.674 3.3-1.218 5.378-.913 3.661-2.228 7.723-8.764 17.325z" fill="url(#paint8_linear)"/><path d="M87.973 156.207c3.531.142 14.142-1.791 16.089-3.587 1.948-1.796 4.186-16.138 3.911-17.43-.274-1.292-.555-1.723-.665-2.329a2.874 2.874 0 01.87-2.079c.303-.021-.124 1.655.076 1.553.2-.103 1.102-5.545 1.986-4.891a6.333 6.333 0 012.066 5.691c-.314 1.831-1.48 3.306-1.51 4.481-.256 8.145-.428 17.758-3.769 19.766-4.441 2.667-14.492 6.501-16.828 6.643a4.437 4.437 0 01-4.75-4.036c-.185-2.491.563-3.856 2.524-3.782z" fill="#FDC0AE"/><path d="M28.858 228.517c.69-.006 1.451-.022 2.262-.036 11.316-.617 19.254-3.951 31.381-6.015 5.265-21.77-9.401-35.486 1.92-45.315l15.71 9.924c.112 6.189-2.113 38.973-10.28 43.654-7.29 4.174-32.92 1.29-40.433 3.301a18.803 18.803 0 01-.56-5.513z" fill="url(#paint9_linear)"/><path d="M22.79 231.298c.173-.909-.081-1.662.41-2.134.912-.865 2.736-.652 5.641-.654-.09 1.86.096 3.724.554 5.53a3.515 3.515 0 00-1.883.959c-2.963 3.756-3.38 8.085-5.267 7.905-.783-.052-.049-7.841.544-11.606z" fill="#152474"/><path d="M57.81 147.944c3.857-1.458-.298-3.794 1.136-5.628 2.564-3.294 7.043-.136 7.378-1.36.335-1.224-3.98-1.203-3.406-2.297.799-1.511 4.444-.419 8.763.984 4.32 1.403 6.078-1.443 8.968-2.511 4.774-1.773 8.394 1.654 8.014 5.685-1.617-.215-1.033 2.708-2.035 3.133-.335.144-.82-1.511-1.528-1.041-.925.595 1.752 3.745.321 5.148a1.329 1.329 0 01-.846.265l-.05-.021a4.116 4.116 0 00-2.848 1.817 4.112 4.112 0 00-.524 3.338c.72 3.607.24 6.115-1.959 5.765-1.834-.306-.603-3.392-2.236-4.909-1.008-.922-2.33.763-3.371 2.103-.937 1.208-3.82 1.651-4.18-.374-.215-1.178 2.199-2.21.778-2.52-2.653 1.394-5.018 2.426-5.871 1.981-2.415-1.264-.56-3.756-1.557-4.516-.744-.567-6.87 1.553-8.276-.34-1.407-1.893 1.687-4.083 3.329-4.702z" fill="#49474D"/><path d="M70.161 155.531c-2.653 1.394-5.017 2.426-5.871 1.981-1.948-1.02-1.144-2.804-1.249-3.868.387 3.959 4.546.183 6.644-.47 2.098-.654 2.12 1.779 3.33 2.148.871.265 2.026-2.029 3.814-1.448 1.789.581 2.5 1.908 2.606.363a4.764 4.764 0 014.425-4.577c2.221-.22 1.83-1.139 1.8-1.769a2.098 2.098 0 01-.256 2.159 1.328 1.328 0 01-.846.265l-.05-.021a4.116 4.116 0 00-2.848 1.817 4.112 4.112 0 00-.524 3.338c.72 3.607.24 6.115-1.959 5.765-1.834-.306-.603-3.392-2.236-4.909-1.008-.922-2.33.763-3.371 2.104-.937 1.207-3.82 1.65-4.18-.374-.23-1.166 2.184-2.198.771-2.504z" fill="#444247"/><path d="M362.679 160.47c3.178.272 8.148-1.294 12.919-3.44 1.34 3.051 2.625 6.645 4.037 9.415-5.151 2.481-11.307 4.318-17.97 2.797-10.51-2.399-25.665-12.945-25.665-12.945.906-1.313 1.874-2.879 1.874-2.879 2.39 1.584 19.192 6.572 24.805 7.052z" fill="#FDC0AE"/><path d="M391.558 155.554c.489 2.083-4.354 7.722-11.714 11.271a42.38 42.38 0 01-4.418-10.383c7.405-3.341 14.792-6.618 16.132-.888z" fill="url(#paint10_linear)"/><path d="M337.856 153.418c-.96-.507-.398-1.267-1.105-2.372-.706-1.104-.398-2.562-.796-2.535-.399.027-.607 1.811-.525 2.191-.525-.498-2.979-3.349-3.685-2.824-.706.525-1.222.235-1.503 1.032a4.241 4.241 0 001.06 3.874c1.185 1.25 1.982 2.092 2.878 2.417a6.48 6.48 0 011.811 1.096c.299-.48 1.865-2.879 1.865-2.879z" fill="#FDC0AE"/><defs><linearGradient id="paint0_linear" x1="381.965" y1="153.296" x2="365.847" y2="128.224" gradientUnits="userSpaceOnUse"><stop stop-color="#005CD7"/><stop offset=".48" stop-color="#0066E8"/><stop offset="1" stop-color="#0073FF"/></linearGradient><linearGradient id="paint1_linear" x1="438.167" y1="230.088" x2="370.472" y2="204.882" gradientUnits="userSpaceOnUse"><stop stop-color="#FCBA06"/><stop offset=".58" stop-color="#E69C03"/><stop offset="1" stop-color="#DA8B01"/></linearGradient><linearGradient id="paint2_linear" x1="410.32" y1="233.949" x2="358.298" y2="208.516" gradientUnits="userSpaceOnUse"><stop stop-color="#FCBA06"/><stop offset=".53" stop-color="#ECA203"/><stop offset="1" stop-color="#E19100"/></linearGradient><linearGradient id="paint3_linear" x1="398.003" y1="171.802" x2="370.038" y2="169.285" gradientUnits="userSpaceOnUse"><stop stop-color="#0072FD"/><stop offset=".44" stop-color="#0064EC"/><stop offset="1" stop-color="#0155DB"/></linearGradient><linearGradient id="paint4_linear" x1="107.431" y1="116.223" x2="180.277" y2="116.223" gradientUnits="userSpaceOnUse"><stop stop-color="#005CC8"/><stop offset=".26" stop-color="#0453BE"/><stop offset=".69" stop-color="#0F3AA2"/><stop offset="1" stop-color="#18268B"/></linearGradient><linearGradient id="paint5_linear" x1="-37845.2" y1="43758.8" x2="-31265.3" y2="43758.8" gradientUnits="userSpaceOnUse"><stop stop-color="#005CC8"/><stop offset=".26" stop-color="#0453BE"/><stop offset=".69" stop-color="#0F3AA2"/><stop offset="1" stop-color="#18268B"/></linearGradient><linearGradient id="paint6_linear" x1="-29449.3" y1="42578.1" x2="-23162.7" y2="42578.1" gradientUnits="userSpaceOnUse"><stop stop-color="#005CC8"/><stop offset=".26" stop-color="#0453BE"/><stop offset=".69" stop-color="#0F3AA2"/><stop offset="1" stop-color="#18268B"/></linearGradient><linearGradient id="paint7_linear" x1="75.589" y1="192.643" x2="19.959" y2="212.94" gradientUnits="userSpaceOnUse"><stop stop-color="#005CE1"/><stop offset="1" stop-color="#0071FC"/></linearGradient><linearGradient id="paint8_linear" x1="88.926" y1="173.092" x2="69.439" y2="167.576" gradientUnits="userSpaceOnUse"><stop stop-color="#FAFBFE"/><stop offset=".56" stop-color="#DEE1F7"/><stop offset="1" stop-color="#CCD0F2"/></linearGradient><linearGradient id="paint9_linear" x1="81.706" y1="201.41" x2="23.801" y2="211.671" gradientUnits="userSpaceOnUse"><stop stop-color="#0050D7"/><stop offset=".48" stop-color="#005FE8"/><stop offset="1" stop-color="#0073FF"/></linearGradient><linearGradient id="paint10_linear" x1="-6511.88" y1="10033.4" x2="-6735.81" y2="9548.18" gradientUnits="userSpaceOnUse"><stop stop-color="#005CD7"/><stop offset=".48" stop-color="#0066E8"/><stop offset="1" stop-color="#0073FF"/></linearGradient></defs></svg>