<svg height="112.16709193795191" version="1.1" width="419.7984853896485" xmlns="http://www.w3.org/2000/svg" xmlns:xlink="http://www.w3.org/1999/xlink" style="overflow: hidden; position: relative; top: -0.796875px;" viewBox="60.435888999999996 168.92365403102406 419.7984853896485 112.16709193795191" preserveAspectRatio="xMinYMin" id="main_svg"><desc style="-webkit-tap-highlight-color: rgba(0, 0, 0, 0);">Created with Logotizer</desc><defs style="-webkit-tap-highlight-color: rgba(0, 0, 0, 0);"><linearGradient id="gradient_p1o4jzvzzwps3b98vgkj" x1="1.8369701987210297e-16" y1="0" x2="0" y2="1" style="-webkit-tap-highlight-color: rgba(0, 0, 0, 0);"><stop offset="10%" stop-color="#4fbf0f" stop-opacity="1" style="-webkit-tap-highlight-color: rgba(0, 0, 0, 0);"></stop><stop offset="80%" stop-color="#41a10a" stop-opacity="1" style="-webkit-tap-highlight-color: rgba(0, 0, 0, 0);"></stop></linearGradient><linearGradient id="gradient_bzge4sv5kt4tilc28i1rnb" x1="1.8369701987210297e-16" y1="0" x2="0" y2="1" style="-webkit-tap-highlight-color: rgba(0, 0, 0, 0);"><stop offset="10%" stop-color="#4fbf0f" stop-opacity="1" style="-webkit-tap-highlight-color: rgba(0, 0, 0, 0);"></stop><stop offset="80%" stop-color="#41a10a" stop-opacity="1" style="-webkit-tap-highlight-color: rgba(0, 0, 0, 0);"></stop></linearGradient></defs><path fill="#3a3a3a" stroke="none" d="M-118.41,0L-118.41,-33.61L-111.85,-33.61L-111.85,0L-118.41,0ZM-107.02,-1.34L-104.91,-6.96Q-104.37,-6.68,-103.53,-6.34Q-102.69,-6,-101.63,-5.71Q-100.58,-5.41,-99.41,-5.23Q-98.23,-5.04,-96.99,-5.04Q-94.06,-5.04,-92.5,-6.02Q-90.95,-7.01,-90.95,-9.02Q-90.95,-10.57,-92.07,-11.52Q-93.2,-12.47,-94.89,-13.27Q-96.59,-14.06,-98.59,-14.91Q-100.58,-15.75,-102.29,-16.97Q-104,-18.19,-105.12,-20.02Q-106.25,-21.84,-106.25,-24.68Q-106.25,-27.12,-105.43,-28.92Q-104.61,-30.73,-103.1,-31.92Q-101.59,-33.12,-99.52,-33.69Q-97.46,-34.27,-94.93,-34.27Q-92,-34.27,-89.4,-33.76Q-86.8,-33.26,-85.13,-32.3L-87.2,-26.79Q-88.25,-27.47,-90.36,-28.02Q-92.47,-28.57,-94.93,-28.57Q-97.23,-28.57,-98.45,-27.66Q-99.66,-26.74,-99.66,-25.2Q-99.66,-23.77,-98.54,-22.8Q-97.41,-21.84,-95.71,-21.02Q-94.02,-20.2,-92.02,-19.34Q-90.03,-18.47,-88.32,-17.25Q-86.61,-16.03,-85.48,-14.23Q-84.36,-12.42,-84.36,-9.75Q-84.36,-7.05,-85.25,-5.11Q-86.14,-3.16,-87.75,-1.88Q-89.35,-0.59,-91.64,0.05Q-93.92,0.68,-96.64,0.68Q-100.25,0.68,-102.98,0Q-105.71,-0.68,-107.02,-1.34ZM-79.32,0L-79.32,-33.61L-72.76,-33.61L-72.76,0L-79.32,0ZM-67.93,-1.34L-65.82,-6.96Q-65.28,-6.68,-64.44,-6.34Q-63.59,-6,-62.54,-5.71Q-61.48,-5.41,-60.31,-5.23Q-59.14,-5.04,-57.9,-5.04Q-54.97,-5.04,-53.41,-6.02Q-51.85,-7.01,-51.85,-9.02Q-51.85,-10.57,-52.98,-11.52Q-54.1,-12.47,-55.8,-13.27Q-57.5,-14.06,-59.49,-14.91Q-61.48,-15.75,-63.2,-16.97Q-64.91,-18.19,-66.03,-20.02Q-67.16,-21.84,-67.16,-24.68Q-67.16,-27.12,-66.34,-28.92Q-65.52,-30.73,-64,-31.92Q-62.49,-33.12,-60.43,-33.69Q-58.37,-34.27,-55.84,-34.27Q-52.91,-34.27,-50.3,-33.76Q-47.7,-33.26,-46.04,-32.3L-48.1,-26.79Q-49.16,-27.47,-51.27,-28.02Q-53.37,-28.57,-55.84,-28.57Q-58.13,-28.57,-59.35,-27.66Q-60.57,-26.74,-60.57,-25.2Q-60.57,-23.77,-59.45,-22.8Q-58.32,-21.84,-56.62,-21.02Q-54.92,-20.2,-52.93,-19.34Q-50.94,-18.47,-49.23,-17.25Q-47.52,-16.03,-46.39,-14.23Q-45.27,-12.42,-45.27,-9.75Q-45.27,-7.05,-46.16,-5.11Q-47.05,-3.16,-48.65,-1.88Q-50.26,-0.59,-52.54,0.05Q-54.83,0.68,-57.55,0.68Q-61.16,0.68,-63.89,0Q-66.62,-0.68,-67.93,-1.34ZM-41.96,-16.8Q-41.96,-21.75,-40.59,-25.08Q-39.22,-28.41,-37.04,-30.45Q-34.86,-32.48,-32.18,-33.38Q-29.49,-34.27,-26.8,-34.27Q-23.91,-34.27,-21.92,-33.89Q-19.93,-33.52,-18.64,-32.98L-19.93,-27.4Q-21.03,-27.94,-22.54,-28.17Q-24.05,-28.41,-26.21,-28.41Q-30.2,-28.41,-32.62,-25.58Q-35.05,-22.76,-35.05,-16.8Q-35.05,-14.2,-34.47,-12.07Q-33.9,-9.94,-32.73,-8.43Q-31.55,-6.91,-29.8,-6.07Q-28.04,-5.23,-25.74,-5.23Q-23.59,-5.23,-22.1,-5.66Q-20.61,-6.09,-19.51,-6.77L-18.15,-1.38Q-19.7,-0.28,-22.07,0.2Q-24.45,0.68,-26.94,0.68Q-29.96,0.68,-32.68,-0.26Q-35.4,-1.2,-37.46,-3.28Q-39.52,-5.37,-40.74,-8.71Q-41.96,-12.05,-41.96,-16.8ZM-14.09,0L-14.09,-33.26Q-12.99,-33.45,-11.71,-33.62Q-10.44,-33.8,-9.17,-33.89Q-7.91,-33.98,-6.71,-34.03Q-5.52,-34.08,-4.51,-34.08Q-2.16,-34.08,0.12,-33.64Q2.41,-33.21,4.21,-32.16Q6.02,-31.1,7.09,-29.25Q8.17,-27.4,8.17,-24.63Q8.17,-20.51,6.25,-17.91Q4.33,-15.3,1.12,-14.3L3.46,-12.82L11.15,0L3.58,0L-4.06,-13.15L-7.53,-13.78L-7.53,0L-14.09,0M-7.53,-18.23L-4.74,-18.23Q-2,-18.23,-0.37,-19.49Q1.26,-20.74,1.26,-23.63Q1.26,-25.78,-0.08,-27Q-1.41,-28.22,-4.02,-28.22Q-5.02,-28.22,-6.01,-28.17Q-6.99,-28.13,-7.53,-27.98L-7.53,-18.23ZM8.92,-33.61L16.75,-33.61L22.89,-20.98L23.57,-17.41L23.8,-17.41L24.53,-21.07L30.46,-33.61L37.54,-33.61L26.55,-12.54L26.55,0L19.96,0L19.96,-12.47L8.92,-33.61ZM40.3,0L40.3,-33.26Q42.32,-33.63,44.75,-33.86Q47.17,-34.08,49.56,-34.08Q52.05,-34.08,54.58,-33.67Q57.11,-33.26,59.13,-32.04Q61.14,-30.82,62.41,-28.63Q63.67,-26.44,63.67,-22.95Q63.67,-19.78,62.57,-17.59Q61.47,-15.4,59.64,-14.02Q57.81,-12.63,55.49,-12Q53.17,-11.37,50.66,-11.37Q50.43,-11.37,49.9,-11.37Q49.38,-11.37,48.8,-11.39Q48.23,-11.41,47.68,-11.47Q47.13,-11.53,46.87,-11.58L46.87,0L40.3,0M46.87,-17.27Q47.05,-17.23,47.44,-17.18Q47.83,-17.13,48.26,-17.11Q48.7,-17.09,49.11,-17.09Q49.52,-17.09,49.7,-17.09Q50.99,-17.09,52.27,-17.33Q53.55,-17.58,54.55,-18.22Q55.56,-18.87,56.16,-20.02Q56.76,-21.16,56.76,-23.04Q56.76,-24.63,56.18,-25.66Q55.61,-26.7,54.67,-27.32Q53.73,-27.94,52.54,-28.17Q51.34,-28.41,50.1,-28.41Q49.14,-28.41,48.27,-28.34Q47.41,-28.27,46.87,-28.17L46.87,-17.27ZM65.03,-27.75L65.03,-33.61L91.23,-33.61L91.23,-27.75L81.44,-27.75L81.44,0L74.85,0L74.85,-27.75L65.03,-27.75ZM91.7,-16.8Q91.7,-25.2,95.39,-29.73Q99.09,-34.27,105.95,-34.27Q109.56,-34.27,112.25,-33.02Q114.93,-31.78,116.71,-29.47Q118.49,-27.16,119.35,-23.95Q120.2,-20.74,120.2,-16.8Q120.2,-8.41,116.49,-3.87Q112.77,0.68,105.95,0.68Q102.3,0.68,99.61,-0.57Q96.93,-1.83,95.18,-4.13Q93.44,-6.42,92.57,-9.64Q91.7,-12.87,91.7,-16.8M98.62,-16.8Q98.62,-14.25,99.05,-12.12Q99.48,-9.98,100.36,-8.45Q101.24,-6.91,102.64,-6.05Q104.03,-5.18,105.95,-5.18Q109.47,-5.18,111.38,-7.92Q113.29,-10.66,113.29,-16.8Q113.29,-19.24,112.89,-21.35Q112.49,-23.46,111.63,-25.05Q110.76,-26.65,109.36,-27.53Q107.97,-28.41,105.95,-28.41Q102.44,-28.41,100.53,-25.61Q98.62,-22.8,98.62,-16.8Z" transform="matrix(1.08,0,0,1.08,348.5,243.3463)" style="-webkit-tap-highlight-color: rgba(0, 0, 0, 0);" stroke-width="1"></path><path fill="url(#gradient_bzge4sv5kt4tilc28i1rnb)" stroke="none" d="M80.445,35.06183V35.06189A5,5,0,0,0,85.445,40.06189H149.3064A80.14326,80.14326,0,0,0,142.47791,30.06189H85.445A5,5,0,0,0,80.445,35.06183ZM80.445,114.9519A5,5,0,0,0,85.445,119.9519H149.29845A79.63123,79.63123,0,0,0,154.18151,109.9519H85.445A5,5,0,0,0,80.445,114.9519ZM66.7392,55.03436A5,5,0,0,0,71.7392,60.03436H157.48774A79.31707,79.31707,0,0,0,154.17609,50.03436H71.7392A5,5,0,0,0,66.7392,55.03436ZM66.7392,94.97937A5,5,0,0,0,71.7392,99.97937H157.48456A79.72262,79.72262,0,0,0,159.35827999999998,89.97937H71.7392A5,5,0,0,0,66.7392,94.97937ZM160,80.007V80V80.007M49.93127,75.0069A5,5,0,0,0,54.93127,80.0069H159.99982L160,80A80.64959,80.64959,0,0,0,159.35651,70.0069H54.93127A5,5,0,0,0,49.93127,75.0069Z" stroke-width="0" opacity="1" fill-opacity="1" stroke-opacity="1" transform="matrix(0.7,0,0,0.7,25.484,169.9612)" style="-webkit-tap-highlight-color: rgba(0, 0, 0, 0); opacity: 1; fill-opacity: 1;"></path><path fill="url(#gradient_p1o4jzvzzwps3b98vgkj)" stroke="none" d="M0,80A80,80,0,1,0,160,80A80,80,0,1,0,0,80" stroke-width="0" opacity="1" fill-opacity="1" stroke-opacity="1" transform="matrix(0.7,0,0,0.7,94,169.0072)" style="-webkit-tap-highlight-color: rgba(0, 0, 0, 0); opacity: 1; fill-opacity: 1;"></path><path fill="#ffffff" stroke="none" d="M80.445,35.06183V35.06189A5,5,0,0,0,85.445,40.06189H149.3064A80.14326,80.14326,0,0,0,142.47791,30.06189H85.445A5,5,0,0,0,80.445,35.06183ZM80.445,114.9519A5,5,0,0,0,85.445,119.9519H149.29845A79.63123,79.63123,0,0,0,154.18151,109.9519H85.445A5,5,0,0,0,80.445,114.9519ZM66.7392,55.03436A5,5,0,0,0,71.7392,60.03436H157.48774A79.31707,79.31707,0,0,0,154.17609,50.03436H71.7392A5,5,0,0,0,66.7392,55.03436ZM66.7392,94.97937A5,5,0,0,0,71.7392,99.97937H157.48456A79.72262,79.72262,0,0,0,159.35827999999998,89.97937H71.7392A5,5,0,0,0,66.7392,94.97937ZM160,80.007V80V80.007M49.93127,75.0069A5,5,0,0,0,54.93127,80.0069H159.99982L160,80A80.64959,80.64959,0,0,0,159.35651,70.0069H54.93127A5,5,0,0,0,49.93127,75.0069Z" stroke-width="0" opacity="1" transform="matrix(-0.7,0,0,0.7,205.9417,169.5928)" style="-webkit-tap-highlight-color: rgba(0, 0, 0, 0); opacity: 1;"></path><path fill="#41a10a" stroke="none" d="M0,0" transform="matrix(0.52,0,0,0.52,329.5044,251.5403)" style="-webkit-tap-highlight-color: rgba(0, 0, 0, 0);" stroke-width="1"></path></svg>