<?xml version="1.0" encoding="utf-8"?>
<!-- Generator: Adobe Illustrator 25.2.1, SVG Export Plug-In . SVG Version: 6.00 Build 0)  -->
<svg version="1.1" id="Layer_1" xmlns="http://www.w3.org/2000/svg" xmlns:xlink="http://www.w3.org/1999/xlink" x="0px" y="0px"
	 viewBox="0 0 36 35" style="enable-background:new 0 0 36 35;" xml:space="preserve">
<style type="text/css">
	.st0{fill:#FFFFFF;}
	.st1{fill:#94A6C3;}
	.st2{fill:#1B314F;}
	.st3{fill:#FFD923;}
	.st4{fill:#D82122;}
</style>
<desc>Created with Sketch.</desc>
<path class="st0" d="M8.8,19.2l0.9-7l-8-5.6l7.3,2.5l1.7-2.7l6.3-3.9l14,7.7l0.7,11.7l-6.2,8.6l-4.9,0.8l2.5-4.7v-4.5l-1.8-3.5
	l-1.9-1.2l-2.9,3v3.2l-2.3,2.1L11.5,26l-1.3,0.7l-2.1-0.7L7.3,23l1.6-2.2V19.2z"/>
<path class="st1" d="M21.7,6.5c-1.5-0.3-3.2-0.2-3.2-0.2s-0.6,2.5-4,3.2C14.5,9.5,19,11.1,21.7,6.5z"/>
<path class="st1" d="M23,29.6c1.8-1.4,3.2-3.4,3.9-5.7c0-0.1,0.3-0.2,0.5-0.3c0.3-0.2,0.6-0.3,0.6-0.6c0.1-0.7,0.2-1.4,0.2-2.1
	c0-0.3-0.3-0.5-0.5-0.8c-0.2-0.2-0.4-0.4-0.4-0.5c-0.3-2.6-1.5-5.1-3.4-6.9L23.6,13c1.9,1.8,3.1,4.2,3.4,6.7c0,0.2,0.3,0.5,0.5,0.7
	c0.2,0.2,0.4,0.4,0.4,0.6c0,0.7-0.1,1.3-0.2,2c0,0.1-0.3,0.2-0.5,0.3c-0.3,0.1-0.6,0.3-0.6,0.5c-0.7,2.5-2.3,4.6-4.4,6
	c0.4-0.8,1.6-3.4,2.2-4.8l-0.1-4.3l-3.7-3.6l-2.1,0.3l-2.3,3.7c0,0,1.1,1.4-0.4,2.9c-1.5,1.6-2.6,1.9-2.6,1.9l-1.1-0.6
	c0.3-0.4,1-1,1.4-1.4c0.8-0.7,1.7-0.8,1.7-1.5c0-1.6-1.6-1.1-1.6-1.1L13,22l-0.3,2.1l-1.3,1.6l-0.1,0l-2.1-0.5c0,0,1.3-0.7,1.5-1.4
	c0.2-0.7-0.4-3.1-0.4-3.3c0,0,0.6,0.5,0.9,1.3c0.5-1.3,1.1-2.5,1.2-2.6c0.2-0.1,2.5-1.4,2.5-1.4L14.1,20l0.6-0.3l1.4-3.4
	c0,0,1.4-0.7,2.4-0.7c1.8,0,4.5-2.3,3.3-6.2c0.3,0.1,6.4,3.2,7.4,9.1C30,22.9,27.4,27.2,23,29.6z"/>
<path class="st2" d="M16.2,7.2c0.7-0.8,0.4-1.9,0.4-1.9l-1.9,2.9C14.6,8.1,15.3,8.1,16.2,7.2z"/>
<path class="st2" d="M9.7,22.8l0.2-1.2c0,0-1,1.7-1,1.9c-0.1,0.3,0.1,0.7,0.4,0.7c0.4,0,0.8-0.6,0.8-1C10.1,22.8,9.7,22.8,9.7,22.8z
	"/>
<path class="st2" d="M26.8,4.4c0,0,1.4,0.1,2.9,0.2c-3.4-2.7-6.6-3.4-9.2-3.4c-3.6,0-6,1.5-6.2,1.6L15.6,1c0,0-4.5-0.4-6.1,4.3
	c-0.4-1-0.8-2.5-0.8-2.5S6.3,4.9,7.4,8.3C4.7,7.3,0.9,6,0.8,5.9C0.6,5.9,0.5,6,0.5,6S0.4,6.1,0.6,6.2C0.9,6.5,7,11,8.3,11.8
	c-0.3,1-0.3,1.5,0,2c0.4,0.7,0.4,1,0.4,1.5c-0.1,0.5-0.6,4.7-0.7,5.3S6.7,23,6.7,23.5c0.1,0.6,0.8,2.9,1.5,3.2
	c0.5,0.2,1.7,0.6,2.5,0.6c0.3,0,0.6-0.1,0.7-0.2c0.5-0.4,0.6-0.5,1-0.5c0,0,0.1,0,0.1,0c0.1,0,0.3,0,0.5,0c0.5,0,1.1-0.1,1.5-0.5
	c0.6-0.6,1.7-1.5,2.1-1.9c0.4-0.6,0.7-1.3,0.6-2.1c-0.1-0.7,0.3-1.3,0.7-1.9c0.6-0.7,1.6-2,1.6-2c2,1.5,3.2,3.8,3.2,6.3
	c0,4.5-3.9,8.2-8.8,8.2c-0.8,0-1.5-0.1-2.2-0.3c2.2,0.8,4.1,1,5.6,1c3.3,0,5-1.2,5-1.2s-0.6,0.8-1.6,1.7c0,0,0,0,0,0
	c5.4-0.8,8-5.2,8-5.2s-0.2,1.4-0.5,2.4c7.2-5.4,6-12.2,5.9-12.4c0.1,0.1,0.8,1,1.2,1.4C36.6,8.3,26.8,4.4,26.8,4.4z M15.8,23.5
	c-0.1,0.1-0.6,0.6-1,0.9s-0.7,0.6-1,0.9c-0.1,0.1-0.3,0.2-0.7,0.2c-0.1,0-0.2,0-0.3,0c-0.1,0-0.1,0-0.2,0c-0.1,0-0.1,0-0.1,0
	c-0.1,0-0.2,0-0.3,0c0.4-0.6,1.7-1.9,2.1-2.2c0.5-0.3,0.8-0.7,0.5-1.3c-0.3-0.6-1.2-0.5-1.2-0.5s0.5-0.2,0.9-0.2
	c-0.6-0.1-1.2,0-1.6,0.3c-0.3,0.3-0.3,1.4-0.4,2.2c-0.1,0.8-0.6,1.1-1.4,1.8c-0.4,0.4-0.7,0.5-0.9,0.5c-0.5-0.1-1.1-0.2-1.5-0.4
	c-0.3-0.4-0.7-1.6-0.8-2.1c0.1-0.3,0.4-0.9,0.6-1.2c0.3-0.7,0.6-1,0.6-1.4c0.1-0.5,0.5-3.5,0.6-4.8c0.4,0.5,0.9,1.3,0.8,1.8
	c0.8-1.2,0.2-2.3-0.1-2.8c-0.3-0.5-0.6-1.4-0.3-2.4s1.3-3.7,1.3-3.7s0.3,0.6,0.8,0.5c0.5-0.1,4.5-6.1,4.5-6.1s1.1,2.3-0.1,4
	c-1.2,1.7-2.3,2-2.3,2s1.6,0.3,3.1-0.8c0.6,1.4,1.2,2.9,1.2,3.1c-0.1,0.2-1.2,3-1.4,3.2c-0.1,0.1-0.5,0.2-0.8,0.2
	c-0.5,0.1-0.8,0.2-0.9,0.3c-0.2,0.2-1.1,2.7-1.6,4c-0.5,0.1-1,0.4-1.4,1c0.2-0.1,0.8-0.2,1.3-0.3c0.4,0,1.6,0.6,2,1.9c0,0,0,0,0,0.1
	C16.1,22.7,16,23.1,15.8,23.5z M13,23.8c0.3-0.4,0.2-1,0.3-1.2c0-0.2,0.1-0.6,0.3-0.6c0.2-0.1,0.8,0,0.8,0.4c0,0.4-0.4,0.5-0.7,0.7
	C13.5,23.3,13.1,23.7,13,23.8z M24.6,18.3c0.3-1.5,0.3-2.7,0.2-3.8c1.1,1.5,1.8,3.3,2,5.2c0,0.2,0.3,0.5,0.5,0.7
	c0.2,0.2,0.4,0.4,0.4,0.6c0,0.7-0.1,1.3-0.2,2c0,0.1-0.3,0.2-0.5,0.3c-0.3,0.1-0.6,0.3-0.6,0.5c-0.6,2.2-2,4.2-3.8,5.6
	C25.4,26.6,26.7,22,24.6,18.3z M22.8,29.6c1.9-1.4,3.3-3.5,4-5.8c0-0.1,0.3-0.2,0.5-0.3c0.3-0.1,0.6-0.3,0.6-0.6
	c0.1-0.7,0.2-1.4,0.2-2.1c0-0.3-0.3-0.5-0.5-0.8c-0.1-0.2-0.4-0.4-0.4-0.5c-0.2-2.1-1.1-4.1-2.4-5.8c-0.6-3.5-2.9-4.5-2.9-4.6
	c0.1,0.1,1.6,2.3,0.5,4.8c-1.1,2.6-3.8,2.2-4,2.2c-0.2,0-1.1,1.2-2.3,3.3c-0.1-0.1-0.8-0.2-1.4-0.1c0.5-1.4,1.3-3.5,1.4-3.7
	c0.1-0.1,0.5-0.2,0.8-0.3c0.6-0.1,0.8-0.2,0.9-0.3c0.1-0.1,0.3-0.8,0.6-1.4c0.3,0,0.9-0.1,1-0.1c0.1-0.1,0.6-1.5,0.6-1.6
	c0-0.1-1.1-2.9-1.6-4c0.2-0.2,0.4-0.5,0.6-0.8c5.9,0.6,10.6,5.7,10.6,11.8C29.5,23.7,26.8,27.7,22.8,29.6z"/>
<path class="st2" d="M15.1,14c0.6-0.6,0.3-1.8-0.8-2c0.3-0.6,0.6-1.8,0.6-1.8s-2.9,4.6-3.2,4.7C11.5,15,11.2,14,11.2,14
	c-0.6,2.1,0.9,2.4,1.1,1.7C13.1,15.5,14.5,14.6,15.1,14z"/>
<path class="st3" d="M12.6,15.2l1.5-2.6c0,0,0.9,0.4,0.4,1.1C13.9,14.5,12.6,15.2,12.6,15.2z"/>
<path class="st4" d="M31.1,27.1c-0.4,0.6-0.9,1.2-1.5,1.8c3.7-7.2,0.2-13.7,0-14c0.3,0.3,0.5,0.6,0.8,0.8
	C33.3,18.8,33.6,23.6,31.1,27.1z"/>
<path class="st4" d="M34.6,17.9c-1.3-3.5-3.2-6.5-7.2-9.2c-3.9-2.6-8.2-2.4-8.4-2.4c0,0-0.1,0-0.1,0c0.1-0.1,0.3-0.1,0.4-0.1
	c0.9-0.3,2.1-0.5,3.2-0.7c3.1-0.4,6.2,0.6,8.3,2.8c0,0,0,0,0.1,0.1C33.3,11,34.6,14.1,34.6,17.9z"/>
<path class="st4" d="M26.5,3.5c-4.3-0.8-7.1-0.4-9.1,0.3c-0.1-0.2-0.3-0.7-0.4-1.1c-0.6,0.7-1.2,1.6-1.6,2.1
	c-1.1,0.8-1.6,1.5-1.6,1.5c0.6-2.2,2.5-3.8,4.7-4.2c0.6-0.1,1.3-0.2,2.1-0.2C22.6,2.1,24.6,2.6,26.5,3.5z"/>
<path class="st4" d="M10.5,9.1C7.1,9,8.3,5,8.3,4.8C8.3,4.8,8.6,7.9,10.5,9.1z"/>
<path class="st4" d="M13.9,2c-2.6,1.6-2.1,5.3-2.1,5.3C9.3,3.5,13.7,2.1,13.9,2z"/>
<path class="st0" d="M9.6,10.1c0.2,0.1,0.3,0.4,0.1,0.8c-0.1,0.2-0.3,0.2-0.6,0.1c-0.3-0.2-2.4-1.4-4.3-2.6C7,9.1,9.2,9.9,9.6,10.1
	C9.5,10.1,9.5,10.1,9.6,10.1z"/>
</svg>
