<?xml version="1.0" encoding="utf-8"?>
<!-- Generator: Adobe Illustrator 25.0.1, SVG Export Plug-In . SVG Version: 6.00 Build 0)  -->
<svg version="1.1" id="Layer_1" xmlns="http://www.w3.org/2000/svg" xmlns:xlink="http://www.w3.org/1999/xlink" x="0px" y="0px"
	 viewBox="0 0 36 35" style="enable-background:new 0 0 36 35;" xml:space="preserve">
<style type="text/css">
	.st0{fill:#2C414C;}
	.st1{fill:#3DD94B;}
</style>
<desc>Created with Sketch.</desc>
<g id="QKWnmo_4_">
	<g>
		<g>
			<path class="st0" d="M25.1,15c-1.2,0.7-2.3,1.3-3.5,2c-1.1-2.4-2.1-4.8-3.2-7.2c-0.2,0.6-0.4,1-0.7,1.5c-1,2.2-2,4.6-3,6.8
				c-0.4,0.9-0.8,1.7-1.2,2.6c-0.1,0.1-0.1,0.2-0.2,0.2C11,22,8.7,23.1,6.2,23.8c-1.2,0.4-2.3,0.6-3.5,0.7c-0.7,0.1-1.3,0-1.9-0.2
				c-0.8-0.3-1.1-0.9-0.8-1.7c0.3-0.7,0.7-1.2,1.2-1.7c1.2-1,2.7-1.9,4.2-2.6c0.9-0.4,1.8-0.8,2.7-1.2v0.1c-0.1,0.1-0.1,0.1-0.2,0.1
				c-1.3,0.7-2.6,1.3-3.7,2.2c-0.4,0.3-0.7,0.7-1,1C3.2,20.7,3,21,3.1,21.3c0.1,0.3,0.4,0.3,0.7,0.3c0.8,0,1.5-0.1,2.2-0.4
				c1.2-0.4,2.3-0.9,3.5-1.4c0.1-0.1,0.3-0.3,0.4-0.4c0.8-1.8,1.6-3.6,2.4-5.3c1.1-2.4,2.1-4.8,3.2-7.1c0.4-1,1-1.7,2-2.1
				c1.5-0.5,3,0.1,3.7,1.5c0.5,0.9,0.9,1.9,1.3,2.8c0.9,1.9,1.7,3.7,2.5,5.6C25,14.8,25,14.9,25.1,15z"/>
			<path class="st1" d="M26.3,11.1c1.6-0.7,3.1-1.2,4.7-1.7c0.8-0.2,1.6-0.3,2.3-0.4c0.4-0.1,0.9,0,1.4,0.1c0.7,0.1,1,0.7,0.8,1.4
				c-0.2,0.7-0.7,1.2-1.1,1.7c-1.2,1.4-2.7,2.5-4.1,3.5c-1.1,0.8-2.2,1.5-3.3,2.2c-0.4,0.2-0.4,0.2-0.2,0.7c1.3,3,2.6,5.9,3.9,8.8
				c0.1,0.4,0.3,0.7,0.4,1.1c-0.1,0-0.2,0-0.3,0c-1.2,0-2.5,0-3.8,0c-0.2,0-0.3-0.1-0.4-0.3c-1.2-2.6-2.3-5.3-3.5-7.9
				c0-0.1-0.1-0.1-0.1-0.1C17.6,23.3,12,26,6.2,28.5c0.1-0.1,0.1-0.2,0.1-0.3c0.5-1.2,1.1-2.5,1.6-3.6c0.1-0.1,0.2-0.3,0.4-0.4
				c3-1.4,6.1-2.7,9.1-4.2c3-1.5,5.9-3,8.7-4.8c1.3-0.8,2.5-1.7,3.8-2.6c0.4-0.3,0.8-0.7,1.2-1.2c0.1-0.1,0.2-0.3,0.2-0.4
				c0.1-0.3,0-0.5-0.3-0.7c-0.2-0.1-0.5-0.1-0.7-0.1c-1.3-0.1-2.5,0.3-3.7,0.7C26.5,11,26.4,11.1,26.3,11.1
				C26.4,11.1,26.4,11.1,26.3,11.1z"/>
		</g>
	</g>
</g>
</svg>
