<?xml version="1.0" encoding="utf-8"?>
<!-- Generator: Adobe Illustrator 24.3.0, SVG Export Plug-In . SVG Version: 6.00 Build 0)  -->
<svg version="1.1" id="Layer_1" xmlns="http://www.w3.org/2000/svg" xmlns:xlink="http://www.w3.org/1999/xlink" x="0px" y="0px"
	 viewBox="0 0 36 35" style="enable-background:new 0 0 36 35;" xml:space="preserve">
<style type="text/css">
	.st0{fill:#123744;}
	.st1{fill:#01AE7E;}
</style>
<desc>Created with Sketch.</desc>
<g id="Bq1xzN.tif">
	<g>
		<path class="st0" d="M30.2,26.1c0.6,1.7,1.3,3.2,2,4.8c0.2,0.5,0.4,0.9,0.6,1.4c-2.3,0-4.5,0-6.7,0c-0.4,0-0.4-0.3-0.5-0.5
			c-0.7-1.7-1.5-3.5-2.2-5.2c-0.1-0.2-0.2-0.3-0.2-0.5c-0.7-1.8-1.4-3.7-2.3-5.5c-1-2.7-2.2-5.4-3.3-8c-0.2-0.2-0.4-0.1-0.7-0.1
			c-2.1,0-4.2,0-6.2,0c1.4-3.2,2.8-6.5,4.1-9.7c0.1-0.3,0.3-0.3,0.5-0.3c1.4,0,2.8,0,4.3,0c0.4,0,0.5,0.2,0.6,0.5
			c1.3,3,2.5,5.9,3.8,8.9c0.1,0.2,0.2,0.4,0.3,0.6c0.8,1.8,1.5,3.6,2.3,5.5c0.4,0.9,0.8,1.9,1.2,2.8c0.1,0.3,0.2,0.7,0.4,1
			C28.9,23.2,29.4,24.7,30.2,26.1z"/>
		<path class="st1" d="M21,20.7c0.8,1.8,1.6,3.6,2.3,5.5c-3.5,0-7,0-10.4,0c-0.2,0-0.5-0.1-0.7,0.2c-0.2-0.2-0.5-0.1-0.7-0.1
			c-2,0-4,0-6,0c-0.9,0.1-1.2-0.4-1.5-1.1c-0.6-1.5-1.3-2.9-2-4.4c2.1,0,4.1,0,6.1,0c2.1,0,4.2,0,6.3,0C16.5,20.7,18.8,20.7,21,20.7
			z"/>
		<path class="st1" d="M10.8,12.6c2.1,0,4.2,0,6.2,0c0.2,0,0.5-0.1,0.7,0.1c-0.1,0.2-0.2,0.4-0.3,0.6c-0.7,1.6-1.4,3.3-2.1,4.9
			c-0.2-0.2-0.5-0.1-0.7-0.1c-1.8,0-3.6,0-5.5,0c-1.3-0.1-2.6,0-3.9-0.1c-0.8,0-1.5,0-2.3,0c-0.2,0-0.4,0-0.5-0.2
			c-0.7-1.7-1.5-3.4-2.3-5.2C3.7,12.6,7.2,12.6,10.8,12.6z"/>
		<path class="st1" d="M26.7,18c-0.8-1.8-1.5-3.6-2.3-5.5c3.3,0,6.6,0,9.9,0c0.6,0,0.6,0.2,0.4,0.6c-0.6,1.5-1.3,2.9-1.8,4.4
			c-0.2,0.4-0.3,0.5-0.7,0.5C30.2,17.9,28.4,17.9,26.7,18z"/>
		<path class="st0" d="M5.3,26.2c2,0,4,0,6,0c0.2,0,0.5-0.1,0.7,0.1c-0.9,1.9-1.7,3.8-2.6,5.8c-0.1,0.3-0.3,0.3-0.6,0.3
			c-2,0-4,0-6,0c-0.5,0-0.4-0.2-0.3-0.5C3.5,30,4.4,28.1,5.3,26.2z"/>
		<path class="st1" d="M30.2,26.1c-0.8-1.4-1.3-3-1.9-4.4c-0.1-0.3-0.3-0.6-0.4-1c1.9,0,3.9,0,5.9,0c-0.2,0.5-0.4,1-0.7,1.4
			c-0.5,1-1.1,2.1-1.5,3.1C31.3,26,30.9,26.3,30.2,26.1z"/>
		<path class="st0" d="M9.1,18.1c1.8,0,3.6,0,5.5,0c0.2,0,0.5-0.1,0.7,0.1c-0.3,0.8-0.6,1.7-0.9,2.5c-2.1,0-4.2,0-6.3,0
			C8.4,19.8,8.7,18.9,9.1,18.1z"/>
	</g>
</g>
</svg>
