<?xml version="1.0" encoding="utf-8"?>
<!-- Generator: Adobe Illustrator 26.0.3, SVG Export Plug-In . SVG Version: 6.00 Build 0)  -->
<svg version="1.1" id="Layer_1" xmlns="http://www.w3.org/2000/svg" xmlns:xlink="http://www.w3.org/1999/xlink" x="0px" y="0px"
	 viewBox="0 0 36 35" style="enable-background:new 0 0 36 35;" xml:space="preserve">
<style type="text/css">
	.st0{fill:#EF3124;}
	.st1{clip-path:url(#SVGID_00000075160637102675221250000013287646372030914203_);fill:#EF3124;}
	.st2{fill:#EF3124;stroke:#FFFFFF;stroke-miterlimit:10;}
	.st3{fill:#FFFFFF;}
</style>
<desc>Created with Sketch.</desc>
<rect x="7.3" y="28.8" class="st0" width="20.3" height="4.2"/>
<g>
	<g>
		<defs>
			<rect id="SVGID_1_" x="-9.1" y="-8.4" width="53.2" height="53.2"/>
		</defs>
		<clipPath id="SVGID_00000143585953306831889370000004671149802676781970_">
			<use xlink:href="#SVGID_1_"  style="overflow:visible;"/>
		</clipPath>
		<path style="clip-path:url(#SVGID_00000143585953306831889370000004671149802676781970_);fill:#EF3124;" d="M21.2,5.1
			C20.6,3.4,20,2,17.7,2s-3,1.4-3.6,3.1L7.8,23H12l1.5-4.3h8l1.3,4.3h4.4L21.2,5.1z M14.6,15.2l2.9-8.5h0.1l2.7,8.5H14.6z"/>
	</g>
</g>
<g>
	<path class="st2" d="M33.5,34.1H21.7c-1.1,0-2-0.9-2-2V20.4c0-1.1,0.9-2,2-2h11.8c1.1,0,2,0.9,2,2v11.8
		C35.5,33.2,34.6,34.1,33.5,34.1z"/>
</g>
<path class="st3" d="M22,28.5h0.6c0.1,0,0.2-0.1,0.2-0.2l0.3-0.9h1.1l0.3,0.9c0,0.1,0.1,0.2,0.2,0.2h0.7c0.1,0,0.1,0,0.2-0.1
	c0-0.1,0.1-0.1,0-0.2l-1.2-3.9c0-0.1-0.1-0.2-0.2-0.2h-1c-0.1,0-0.2,0.1-0.2,0.2l-1.2,3.9c0,0.1,0,0.1,0,0.2
	C21.9,28.5,21.9,28.5,22,28.5z M23.5,25.7c0-0.1,0.1-0.3,0.1-0.5c0,0,0-0.1,0-0.1c0.1,0.2,0.1,0.4,0.2,0.6l0.2,0.8h-0.8L23.5,25.7z"
	/>
<path class="st3" d="M25.5,25h0.9v3.2c0,0.1,0.1,0.2,0.2,0.2h0.6c0.1,0,0.2-0.1,0.2-0.2V25h0.9c0.1,0,0.2-0.1,0.2-0.2v-0.5
	c0-0.1-0.1-0.2-0.2-0.2h-2.9c-0.1,0-0.2,0.1-0.2,0.2v0.5C25.3,24.9,25.4,25,25.5,25z"/>
<path class="st3" d="M29.1,28.5h0.5c0.1,0,0.2-0.1,0.2-0.2l0.1-1.5c0-0.4,0-0.8,0.1-1.1c0-0.1,0-0.2,0-0.2c0.1,0.4,0.2,0.9,0.3,1.3
	l0.4,1.5c0,0.1,0.1,0.2,0.2,0.2h0.5c0.1,0,0.2-0.1,0.2-0.2l0.5-1.5c0.1-0.4,0.3-0.9,0.4-1.3c0,0.5,0,1,0,1.4l0.1,1.5
	c0,0.1,0.1,0.2,0.2,0.2h0.6c0.1,0,0.1,0,0.2-0.1c0,0,0.1-0.1,0.1-0.2l-0.2-3.9c0-0.1-0.1-0.2-0.2-0.2h-1c-0.1,0-0.2,0.1-0.2,0.2
	l-0.4,1.3c0,0,0,0,0,0c-0.1,0.5-0.3,1-0.4,1.3c-0.1-0.4-0.2-0.8-0.3-1.3c0,0,0,0,0,0l-0.4-1.3c0-0.1-0.1-0.2-0.2-0.2h-1
	c-0.1,0-0.2,0.1-0.2,0.2l-0.3,3.9c0,0.1,0,0.1,0.1,0.2C29,28.5,29.1,28.5,29.1,28.5z"/>
</svg>
