<?xml version="1.0" encoding="utf-8"?>
<!-- Generator: Adobe Illustrator 25.2.0, SVG Export Plug-In . SVG Version: 6.00 Build 0)  -->
<svg version="1.1" id="Layer_1" xmlns="http://www.w3.org/2000/svg" xmlns:xlink="http://www.w3.org/1999/xlink" x="0px" y="0px"
	 viewBox="0 0 36 35" style="enable-background:new 0 0 36 35;" xml:space="preserve">
<style type="text/css">
	.st0{fill-rule:evenodd;clip-rule:evenodd;fill:#E84142;}
	.st1{fill:#FFFFFF;}
</style>
<g>
	<circle class="st0" cx="17.6" cy="16.9" r="17"/>
	<path class="st1" d="M23.6,17.4c0.6-1,1.5-1,2.1,0l3.7,6.4c0.6,1,0.1,1.8-1.1,1.8h-7.4c-1.2,0-1.6-0.8-1.1-1.8L23.6,17.4z M16.5,5
		c0.6-1,1.5-1,2.1,0l0.8,1.5l1.9,3.4c0.5,1,0.5,2.1,0,3.1l-6.5,11.2c-0.6,0.9-1.6,1.5-2.7,1.6H6.9c-1.2,0-1.7-0.8-1.1-1.8L16.5,5z"
		/>
</g>
</svg>
