<?xml version="1.0" encoding="utf-8"?>
<!-- Generator: Adobe Illustrator 25.2.0, SVG Export Plug-In . SVG Version: 6.00 Build 0)  -->
<svg version="1.1" id="Layer_1" xmlns="http://www.w3.org/2000/svg" xmlns:xlink="http://www.w3.org/1999/xlink" x="0px" y="0px"
	 viewBox="0 0 36 35" style="enable-background:new 0 0 36 35;" xml:space="preserve">
<style type="text/css">
	.st0{fill:#F3BA2F;}
	.st1{fill:#FFFFFF;}
</style>
<circle class="st0" cx="17.5" cy="17.4" r="17.2"/>
<g>
	<path class="st1" d="M12.5,14.9l5.1-5l5.1,5.1l2.9-2.9l-8-8l-8,8L12.5,14.9z"/>
	<path class="st1" d="M4.6,16.9L7.5,14l2.9,2.9l-2.9,2.9L4.6,16.9z"/>
	<path class="st1" d="M12.5,19l5.1,5.1l5.1-5.1l2.9,2.9l-8,8l-8-8L12.5,19z"/>
	<path class="st1" d="M24.7,16.9l2.9-2.9l2.9,2.9l-2.9,2.9L24.7,16.9z"/>
	<path class="st1" d="M20.6,16.9l-3-3l-2.2,2.2l-0.3,0.3l-0.5,0.5l3,3L20.6,16.9L20.6,16.9z"/>
</g>
</svg>
