<?xml version="1.0" encoding="utf-8"?>
<!-- Generator: Adobe Illustrator 25.2.0, SVG Export Plug-In . SVG Version: 6.00 Build 0)  -->
<svg version="1.1" id="Layer_1" xmlns="http://www.w3.org/2000/svg" xmlns:xlink="http://www.w3.org/1999/xlink" x="0px" y="0px"
	 viewBox="0 0 36 35" style="enable-background:new 0 0 36 35;" xml:space="preserve">
<style type="text/css">
	.st0{fill-rule:evenodd;clip-rule:evenodd;fill:#8DC351;}
	.st1{fill:#FFFFFF;}
</style>
<g>
	<circle class="st0" cx="17.9" cy="17.1" r="17.5"/>
	<path class="st1" d="M23.5,11.1c-0.9-2.2-3-2.3-5.5-1.9l-0.9-3.1l-1.9,0.5l0.9,3c-0.4,0.1-1,0.3-1.5,0.4l-0.9-3.1l-1.9,0.5l0.9,3.1
		c-0.4,0.1-0.8,0.2-1.2,0.3l0,0l-2.5,0.9l0.5,2c0,0,1.4-0.4,1.3-0.4c0.8-0.2,1.1,0.1,1.3,0.5l1,3.5c0,0,0.1,0,0.2,0l-0.2,0.1
		l1.4,4.9c0,0.2,0,0.7-0.5,0.9l-1.3,0.4l0.2,2.3l2.4-0.7c0.4-0.1,0.9-0.2,1.3-0.3l0.9,3.1l1.9-0.5l-0.9-3.1c0.5-0.1,1-0.2,1.5-0.4
		l0.9,3.1l1.9-0.5L22,23.6c3.1-1.1,5-2.5,4.5-5.6c-0.4-2.4-1.9-3.2-3.8-3.1C23.8,13.8,24.2,12.7,23.5,11.1L23.5,11.1z M22.9,18.5
		c0.7,2.3-3.4,3.2-4.7,3.6L17,18C18.3,17.7,22.1,16.1,22.9,18.5L22.9,18.5z M20.3,13c0.7,2.1-2.7,2.8-3.8,3.2l-1.1-3.7
		C16.4,12.1,19.7,10.8,20.3,13L20.3,13z"/>
</g>
</svg>
