<?xml version="1.0" encoding="utf-8"?>
<!-- Generator: Adobe Illustrator 25.2.0, SVG Export Plug-In . SVG Version: 6.00 Build 0)  -->
<svg version="1.1" id="Layer_1" xmlns="http://www.w3.org/2000/svg" xmlns:xlink="http://www.w3.org/1999/xlink" x="0px" y="0px"
	 viewBox="0 0 36 35" style="enable-background:new 0 0 36 35;" xml:space="preserve">
<style type="text/css">
	.st0{fill:#0232AE;}
</style>
<desc>Created with Sketch.</desc>
<g>
	<path class="st0" d="M17.6,1.9c0.8-0.4,1.7,0.5,1.3,1.3c-0.2,0.6-1.1,0.8-1.6,0.3C16.8,3.1,17,2.2,17.6,1.9 M9.4,2.8
		c0.5-0.2,1.1,0.2,1,0.7c0,0.5-0.6,1-1.1,0.7C8.6,4,8.7,3,9.4,2.8 M26.2,4.3C25.4,4.2,25.3,3,26,2.8c0.5-0.3,1,0.2,1.1,0.7
		C27,4,26.7,4.4,26.2,4.3 M11.2,6.3C12,5.8,13.1,6.5,13,7.4c0,0.9-1.2,1.4-1.9,0.8C10.4,7.8,10.5,6.7,11.2,6.3 M23.1,6.8
		c0.3-0.9,1.7-0.9,2.1-0.1c0.4,0.7-0.1,1.5-0.8,1.7C23.5,8.7,22.6,7.7,23.1,6.8 M16.6,8.5c0-0.8,0.7-1.3,1.4-1.4
		c0.5,0.1,1,0.3,1.2,0.8c0.4,0.7,0,1.6-0.7,1.9c-0.3,0.2-0.7,0.1-1,0.1C17,9.6,16.5,9.1,16.6,8.5 M4.4,9.6C5.1,9.1,6,9.9,5.8,10.7
		c-0.1,0.7-1,0.9-1.6,0.5C3.7,10.8,3.8,9.9,4.4,9.6 M30.6,9.6c0.6-0.5,1.6,0.1,1.5,0.8c0,0.7-0.8,1.2-1.4,0.9C30,11,30,10,30.6,9.6
		 M20,11c1-0.4,2.2,0.1,2.7,1c0.7,1.1,0.3,2.7-0.8,3.3C20.7,16,19,15.4,18.5,14C18,12.8,18.8,11.3,20,11 M14.2,11.1
		c1.1-0.5,2.6-0.1,3.1,1c0.6,1.1,0.1,2.6-1,3.2c-1.1,0.6-2.7,0.2-3.2-1C12.5,13.1,13,11.6,14.2,11.1 M8.4,13.1
		c0.1-0.7,0.8-1.2,1.4-1.2c0.7,0.1,1.3,0.7,1.4,1.4c0,0.7-0.6,1.4-1.4,1.4S8.2,13.9,8.4,13.1 M25.6,12c0.9-0.5,2.1,0.2,2,1.2
		c0.1,1.1-1.3,1.8-2.1,1.2C24.6,13.9,24.6,12.4,25.6,12 M11.8,15.7c1-0.3,2.2,0.2,2.7,1.1s0.3,2.2-0.5,2.9c-1.1,1-3.1,0.6-3.7-0.8
		C9.6,17.8,10.5,16.1,11.8,15.7 M22.9,15.7c1-0.3,2.2,0.1,2.7,1c0.7,1,0.4,2.6-0.7,3.2c-1.1,0.8-2.8,0.4-3.4-0.8
		C20.7,17.9,21.5,16.1,22.9,15.7 M5.3,16.9c0.9-0.3,1.9,0.6,1.5,1.5c-0.2,0.8-1.3,1.1-1.9,0.5C4.2,18.4,4.4,17.1,5.3,16.9
		 M29.1,18.2c0-0.7,0.5-1.4,1.3-1.4c0.6,0.1,1.2,0.6,1.1,1.2c0.1,0.9-1,1.5-1.7,1C29.4,18.9,29.3,18.5,29.1,18.2 M1,17.3
		c0.5-0.2,1.2,0.2,1.1,0.8c0,0.7-1,0.9-1.4,0.4C0.3,18.1,0.5,17.5,1,17.3z M34.3,17.3c0.4-0.3,1-0.1,1.1,0.4c0.3,0.5-0.2,1.1-0.7,1
		C33.9,18.8,33.7,17.6,34.3,17.3 M14.7,20.5c1.4-0.4,2.9,0.8,2.9,2.2c0.1,1.4-1.4,2.7-2.8,2.4c-1.1-0.2-2-1.2-1.9-2.4
		C12.9,21.7,13.7,20.7,14.7,20.5 M20.2,20.5c1.4-0.4,3,0.8,2.9,2.3c0.1,1.4-1.4,2.7-2.7,2.4c-1.3-0.2-2.3-1.6-1.9-2.9
		C18.7,21.4,19.4,20.7,20.2,20.5 M9.6,21.4c1-0.2,1.9,0.9,1.5,1.9c-0.3,1-1.7,1.3-2.4,0.4C8,22.9,8.5,21.5,9.6,21.4 M25.8,21.4
		c0.9-0.4,1.9,0.4,1.9,1.3c0,1-1.3,1.8-2.1,1.2C24.5,23.4,24.7,21.8,25.8,21.4 M30.3,26c-0.3-0.6,0.3-1.5,1-1.4
		c0.4,0,0.6,0.3,0.8,0.5c0,0.4,0.1,0.8-0.2,1.1C31.5,26.8,30.5,26.6,30.3,26 M4.4,24.8C5,24.3,6,25,5.8,25.8
		c-0.1,0.7-0.9,1.1-1.5,0.7S3.7,25.1,4.4,24.8 M17.4,26.2c0.9-0.4,2,0.4,1.9,1.3c0.1,1.1-1.3,1.8-2.1,1.1
		C16.2,28.1,16.4,26.5,17.4,26.2 M11.4,27.6c0.7-0.4,1.7,0.3,1.7,1.1c0,0.7-0.6,1.3-1.3,1.2c-0.6,0-0.9-0.5-1.1-1
		C10.6,28.4,10.9,27.8,11.4,27.6 M23.6,27.6c0.8-0.5,1.8,0.2,1.8,1.1s-1.2,1.5-1.9,0.9C22.8,29.1,22.9,28,23.6,27.6 M25.7,32.9
		c-0.3-0.5,0.1-1.1,0.6-1.2c0.4,0.1,0.9,0.4,0.8,0.9C27.1,33.3,26.1,33.5,25.7,32.9 M8.9,32.4C9,32,9.3,31.6,9.8,31.7
		c0.7,0,0.9,1.1,0.3,1.4C9.5,33.5,8.9,33,8.9,32.4 M17,32.9c0.1-0.6,0.9-0.9,1.4-0.6c0.3,0.1,0.4,0.5,0.5,0.8c0,0.2-0.1,0.3-0.1,0.5
		c-0.2,0.2-0.5,0.5-0.8,0.5C17.3,34.2,16.8,33.5,17,32.9"/>
</g>
</svg>
