<?xml version="1.0" encoding="utf-8"?>
<!-- Generator: Adobe Illustrator 23.0.4, SVG Export Plug-In . SVG Version: 6.00 Build 0)  -->
<svg version="1.1" id="Layer_1" xmlns="http://www.w3.org/2000/svg" xmlns:xlink="http://www.w3.org/1999/xlink" x="0px" y="0px"
	 viewBox="0 0 36 35" style="enable-background:new 0 0 36 35;" xml:space="preserve">
<style type="text/css">
	.st0{fill:#A1D3A2;}
	.st1{fill:#1F212B;}
	.st2{fill:#60BE92;}
	.st3{fill:#FEF6AA;}
	.st4{fill:#F9E65C;}
</style>
<title>Layer_1</title>
<desc>Created with Sketch.</desc>
<g id="surface89817">
	<path class="st0" d="M30.2,27L5.3,20.7c-0.9-0.2-1.5-1.2-1.3-2.1L7.1,6.4C7.3,5.5,8.3,5,9.2,5.2l24.9,6.3c0.9,0.2,1.5,1.2,1.3,2.1
		l-3.1,12.2C32.1,26.7,31.1,27.2,30.2,27z"/>
	<path class="st1" d="M30.6,27.5c-0.2,0-0.3,0-0.5-0.1L5.2,21.1c-0.5-0.1-1-0.5-1.3-1c-0.3-0.5-0.4-1.1-0.2-1.6L6.7,6.4
		C7,5.2,8.2,4.5,9.3,4.8l24.9,6.3c1.1,0.3,1.8,1.4,1.5,2.6l-3.1,12.2c-0.1,0.5-0.5,1-1,1.3C31.4,27.4,31,27.5,30.6,27.5z M30.3,26.6
		c0.3,0.1,0.7,0,1-0.2c0.3-0.2,0.5-0.5,0.6-0.8L35,13.5c0.1-0.3,0-0.7-0.2-1c-0.2-0.3-0.5-0.5-0.8-0.6L9.1,5.6
		c-0.7-0.2-1.4,0.3-1.6,1L4.4,18.7c-0.1,0.3,0,0.7,0.1,1c0.2,0.3,0.5,0.5,0.8,0.6L30.3,26.6z"/>
	<path class="st2" d="M26.2,11.9L10.5,8c-0.2,1-1.2,1.6-2.1,1.3l-1.9,7.4C7.5,17,8,18,7.8,18.9l21.1,5.3c0.2-1,1.2-1.6,2.1-1.3
		l1.9-7.4c-0.9-0.2-1.4-1.2-1.2-2.2l-1.9-0.5"/>
	<path class="st1" d="M28.9,24.4C28.9,24.4,28.8,24.4,28.9,24.4L7.7,19.1c-0.1,0-0.1,0-0.1-0.1c0,0,0-0.1,0-0.2
		c0.1-0.4,0.1-0.9-0.1-1.2c-0.2-0.4-0.5-0.6-0.9-0.7c-0.1,0-0.1,0-0.1-0.1c0,0,0-0.1,0-0.2l1.9-7.4c0-0.1,0.1-0.2,0.2-0.1
		c0.8,0.2,1.6-0.3,1.8-1.2c0-0.1,0.1-0.2,0.2-0.1l15.7,3.9c0.1,0,0.2,0.1,0.1,0.2c0,0.1-0.1,0.2-0.2,0.1L10.7,8.2
		c-0.3,0.9-1.2,1.5-2.1,1.3l-1.8,7.1c0.4,0.2,0.7,0.4,1,0.8C8,17.9,8.1,18.3,8,18.8L28.7,24c0.2-0.4,0.4-0.8,0.8-1.1
		c0.4-0.2,0.8-0.3,1.2-0.3l1.8-7.1c-0.8-0.3-1.3-1.2-1.2-2.2L29.7,13c-0.1,0-0.2-0.1-0.1-0.2c0-0.1,0.1-0.2,0.2-0.1l1.9,0.5
		c0.1,0,0.2,0.1,0.1,0.2c-0.2,0.9,0.3,1.7,1.1,1.9c0.1,0,0.1,0,0.1,0.1c0,0,0,0.1,0,0.2l-1.9,7.4c0,0.1,0,0.1-0.1,0.1
		c0,0-0.1,0-0.2,0c-0.4-0.1-0.8,0-1.1,0.2c-0.4,0.2-0.6,0.6-0.7,1C29.1,24.4,29,24.4,28.9,24.4z"/>
	<path class="st0" d="M27.3,12.2l-0.4-0.1"/>
	<path class="st1" d="M27.3,12.4C27.3,12.4,27.2,12.4,27.3,12.4l-0.4-0.1c-0.1,0-0.2-0.1-0.1-0.2c0-0.1,0.1-0.2,0.2-0.1l0.4,0.1
		c0.1,0,0.2,0.1,0.1,0.2C27.4,12.3,27.4,12.4,27.3,12.4z"/>
	<path class="st0" d="M16.3,15.4c-0.5,1.8,0.6,3.6,2.5,4.1c1.8,0.5,3.6-0.6,4.1-2.5c0.5-1.8-0.6-3.6-2.5-4.1S16.7,13.6,16.3,15.4z"
		/>
	<path class="st1" d="M19.5,19.8c-0.3,0-0.6,0-0.9-0.1c-1.9-0.5-3.1-2.4-2.6-4.3c0.5-1.9,2.4-3.1,4.3-2.6c0.9,0.2,1.7,0.8,2.2,1.6
		c0.5,0.8,0.6,1.8,0.4,2.7C22.6,18.7,21.1,19.8,19.5,19.8z M19.5,13.1c-1.4,0-2.7,1-3.1,2.4c-0.4,1.7,0.6,3.4,2.3,3.9
		c1.7,0.4,3.4-0.6,3.9-2.3c0.2-0.8,0.1-1.7-0.4-2.4c-0.4-0.7-1.1-1.2-2-1.5C20,13.1,19.8,13.1,19.5,13.1z"/>
	<path class="st0" d="M12.2,14.2c-0.2,0.6,0.2,1.3,0.9,1.4c0.6,0.2,1.3-0.2,1.4-0.9c0.2-0.6-0.2-1.3-0.9-1.4
		C13,13.2,12.4,13.5,12.2,14.2z"/>
	<path class="st1" d="M13.4,15.9c-0.1,0-0.2,0-0.3,0c-0.4-0.1-0.7-0.3-0.9-0.6c-0.2-0.3-0.2-0.7-0.2-1.1c0.2-0.7,0.9-1.2,1.7-1
		c0.7,0.2,1.2,0.9,1,1.7C14.6,15.4,14,15.9,13.4,15.9z M13.4,13.5c-0.4,0-0.9,0.3-1,0.8c-0.1,0.3,0,0.5,0.1,0.8
		c0.1,0.2,0.4,0.4,0.6,0.5c0.3,0.1,0.5,0,0.8-0.1c0.2-0.1,0.4-0.4,0.5-0.6c0.1-0.5-0.2-1.1-0.7-1.2C13.5,13.5,13.4,13.5,13.4,13.5z
		 M14.5,14.8L14.5,14.8L14.5,14.8z"/>
	<path class="st0" d="M24.9,17.4c-0.2,0.6,0.2,1.3,0.9,1.4c0.6,0.2,1.3-0.2,1.4-0.9c0.2-0.6-0.2-1.3-0.9-1.4
		C25.7,16.3,25.1,16.7,24.9,17.4z"/>
	<path class="st1" d="M26.1,19c-0.1,0-0.2,0-0.3,0c-0.7-0.2-1.2-0.9-1-1.7c0.2-0.7,0.9-1.2,1.7-1c0.7,0.2,1.2,0.9,1,1.7
		C27.3,18.6,26.7,19,26.1,19z M26.1,16.7c-0.4,0-0.9,0.3-1,0.8c-0.1,0.5,0.2,1.1,0.7,1.2c0.3,0.1,0.5,0,0.8-0.1
		c0.2-0.1,0.4-0.4,0.5-0.6c0.1-0.5-0.2-1.1-0.7-1.2C26.2,16.7,26.2,16.7,26.1,16.7z M27.2,17.9L27.2,17.9L27.2,17.9z"/>
	<path class="st3" d="M6.4,15.1c-2.9,0-5.2,2.3-5.2,5.2s2.3,5.2,5.2,5.2s5.2-2.3,5.2-5.2S9.3,15.1,6.4,15.1z"/>
	<path class="st1" d="M6.4,25.8c-3.1,0-5.6-2.5-5.6-5.6c0-3.1,2.5-5.6,5.6-5.6c3.1,0,5.6,2.5,5.6,5.6C12,23.3,9.5,25.8,6.4,25.8z
		 M6.4,15.5c-2.6,0-4.8,2.1-4.8,4.8S3.8,25,6.4,25s4.8-2.1,4.8-4.8S9,15.5,6.4,15.5z"/>
	<path class="st4" d="M6.4,16.9c-1.9,0-3.4,1.5-3.4,3.4c0,1.9,1.5,3.4,3.4,3.4s3.4-1.5,3.4-3.4C9.8,18.4,8.3,16.9,6.4,16.9z"/>
	<path class="st1" d="M6.4,23.8c-2,0-3.6-1.6-3.6-3.6c0-2,1.6-3.6,3.6-3.6c2,0,3.6,1.6,3.6,3.6C10,22.2,8.4,23.8,6.4,23.8z
		 M6.4,17.1c-1.8,0-3.2,1.4-3.2,3.2s1.4,3.2,3.2,3.2s3.2-1.4,3.2-3.2S8.2,17.1,6.4,17.1z"/>
	<path class="st3" d="M15.6,22.2c-2.9,0-5.2,2.3-5.2,5.2s2.3,5.2,5.2,5.2s5.2-2.3,5.2-5.2S18.4,22.2,15.6,22.2z"/>
	<path class="st1" d="M15.6,32.9c-3.1,0-5.6-2.5-5.6-5.6c0-3.1,2.5-5.6,5.6-5.6c3.1,0,5.6,2.5,5.6,5.6
		C21.1,30.4,18.6,32.9,15.6,32.9z M15.6,22.6c-2.6,0-4.8,2.1-4.8,4.8s2.1,4.8,4.8,4.8s4.8-2.1,4.8-4.8S18.2,22.6,15.6,22.6z"/>
	<path class="st4" d="M15.6,24c-1.9,0-3.4,1.5-3.4,3.4c0,1.9,1.5,3.4,3.4,3.4s3.4-1.5,3.4-3.4C18.9,25.5,17.4,24,15.6,24z"/>
	<path class="st1" d="M15.6,31c-2,0-3.6-1.6-3.6-3.6c0-2,1.6-3.6,3.6-3.6c2,0,3.6,1.6,3.6,3.6C19.1,29.4,17.5,31,15.6,31z
		 M15.6,24.2c-1.8,0-3.2,1.4-3.2,3.2s1.4,3.2,3.2,3.2s3.2-1.4,3.2-3.2S17.3,24.2,15.6,24.2z"/>
</g>
</svg>
