<?xml version="1.0" encoding="utf-8"?>
<!-- Generator: Adobe Illustrator 25.2.0, SVG Export Plug-In . SVG Version: 6.00 Build 0)  -->
<svg version="1.1" id="Layer_1" xmlns="http://www.w3.org/2000/svg" xmlns:xlink="http://www.w3.org/1999/xlink" x="0px" y="0px"
	 viewBox="0 0 36 35" style="enable-background:new 0 0 36 35;" xml:space="preserve">
<style type="text/css">
	.st0{fill:#F5AC37;}
	.st1{fill:#FEFEFD;}
</style>
<desc>Created with Sketch.</desc>
<g id="Layer_x0020_1_1_">
	<path class="st0" d="M17.3,0c9.5,0,17.3,7.7,17.3,17.3c0,9.5-7.7,17.3-17.3,17.3C7.7,34.6,0,26.8,0,17.3C0,7.7,7.7,0,17.3,0z"/>
	<path class="st1" d="M17.9,18.5h6.6c0.1,0,0.2,0,0.2-0.2c0.1-0.7,0.1-1.3,0-2c0-0.1-0.1-0.2-0.2-0.2H11.4c-0.2,0-0.2,0.1-0.2,0.2
		v1.9c0,0.2,0,0.2,0.3,0.2H17.9L17.9,18.5z M24,13.9c0,0,0-0.1,0-0.2c-0.1-0.2-0.2-0.5-0.4-0.7c-0.2-0.4-0.5-0.7-0.8-1
		c-0.1-0.2-0.3-0.3-0.5-0.5c-0.9-0.8-2-1.4-3.2-1.6c-0.6-0.1-1.2-0.2-1.8-0.2h-5.8c-0.2,0-0.2,0.1-0.2,0.2v3.8c0,0.2,0,0.2,0.2,0.2
		L24,13.9C23.9,14,24,13.9,24,13.9L24,13.9L24,13.9z M24,20.7c-0.2,0-0.4,0-0.6,0h-12c-0.2,0-0.2,0-0.2,0.2v3.7c0,0.2,0,0.2,0.2,0.2
		H17c0.3,0,0.5,0,0.8-0.1c0.8-0.1,1.6-0.2,2.3-0.5c0.3-0.1,0.5-0.2,0.8-0.4H21c1.3-0.7,2.3-1.7,3-3C24,21,24,20.8,24,20.7L24,20.7z
		 M9,26.9L9,26.9v-2.6v-0.9v-2.5c0-0.1,0-0.2-0.2-0.2H6.5c-0.1,0-0.2,0-0.2-0.2v-2.1h2.5c0.1,0,0.2,0,0.2-0.2v-2
		c0-0.1,0-0.2-0.2-0.2H6.5c-0.1,0-0.2,0-0.2-0.2v-1.9c0-0.1,0-0.2,0.2-0.2h2.3c0.2,0,0.2,0,0.2-0.2V7.9c0-0.2,0-0.2,0.2-0.2h8.1
		c0.6,0,1.2,0.1,1.7,0.2c1.2,0.2,2.3,0.6,3.4,1.3c0.7,0.4,1.3,0.9,1.9,1.5c0.4,0.4,0.8,0.9,1.2,1.4c0.3,0.5,0.6,1.1,0.8,1.7
		c0,0.2,0.2,0.3,0.3,0.2h1.9c0.2,0,0.2,0,0.3,0.2v1.8c0,0.2-0.1,0.2-0.2,0.2h-1.5c-0.2,0-0.2,0-0.2,0.2c0.1,0.7,0.1,1.3,0,2
		c0,0.2,0,0.2,0.2,0.2h1.7c0.1,0.1,0,0.2,0,0.3c0,0.1,0,0.3,0,0.4v1.3c0,0.2-0.1,0.2-0.2,0.2h-2c-0.1,0-0.3,0.1-0.3,0.2
		c-0.5,1.3-1.3,2.4-2.3,3.3c-0.4,0.3-0.8,0.6-1.2,0.9c-0.4,0.2-0.9,0.5-1.3,0.7c-0.8,0.4-1.7,0.6-2.5,0.8c-0.8,0.1-1.7,0.2-2.5,0.2
		L9,26.9L9,26.9L9,26.9z"/>
</g>
</svg>
