<?xml version="1.0" encoding="utf-8"?>
<!-- Generator: Adobe Illustrator 25.2.0, SVG Export Plug-In . SVG Version: 6.00 Build 0)  -->
<svg version="1.1" id="Layer_1" xmlns="http://www.w3.org/2000/svg" xmlns:xlink="http://www.w3.org/1999/xlink" x="0px" y="0px"
	 viewBox="0 0 36 35" style="enable-background:new 0 0 36 35;" xml:space="preserve">
<style type="text/css">
	.st0{fill:#2573C2;}
	.st1{fill:#FFFFFF;}
</style>
<circle class="st0" cx="17.6" cy="16.9" r="17"/>
<g>
	<path class="st1" d="M28.7,12.5c0-0.4-0.1-0.8-0.3-1.1c-0.2-0.3-0.5-0.6-0.8-0.7c-0.4-0.2-0.8-0.3-1.2-0.3H11.3l-1.1,3.2h13.7
		l-2.2,6.6H8l-1.1,3.2h15.2c0.5,0,0.9-0.1,1.3-0.3c0.4-0.2,0.9-0.5,1.3-0.8c0.4-0.3,0.8-0.7,1.1-1.1c0.3-0.4,0.5-0.8,0.7-1.2l2-6.3
		C28.7,13.4,28.7,12.9,28.7,12.5L28.7,12.5z"/>
	<path class="st1" d="M15.6,15.4h-8l-1.1,3h8.1L15.6,15.4z"/>
</g>
</svg>
