<?xml version="1.0" encoding="utf-8"?>
<!-- Generator: Adobe Illustrator 25.3.1, SVG Export Plug-In . SVG Version: 6.00 Build 0)  -->
<svg version="1.1" id="Layer_1" xmlns="http://www.w3.org/2000/svg" xmlns:xlink="http://www.w3.org/1999/xlink" x="0px" y="0px"
	 viewBox="0 0 36 35" style="enable-background:new 0 0 36 35;" xml:space="preserve">
<style type="text/css">
	.st0{fill:#3AB83A;}
	.st1{fill:#0B8311;}
	.st2{fill:#146714;}
</style>
<desc>Created with Sketch.</desc>
<g id="Layer_2_1_">
	<g id="svg8">
		<g id="layer5">
			<g id="g1627">
				<path id="path1599" class="st0" d="M7.9,18.9c3.6,1.9,7.3,3.9,10.2,5.4l10.1-5.4c-3.6,5.4-6.7,9.9-10.1,14.9
					C14.7,28.9,10.9,23.4,7.9,18.9z M8.3,17.4l9.8-5.2l9.6,5.2l-9.6,5.2L8.3,17.4z M18.1,10.5L7.9,15.9L18,1.1l10.1,14.8L18.1,10.5z
					"/>
				<path id="path1593" class="st1" d="M18.1,24.3l10.1-5.4c-3.6,5.4-10.1,14.9-10.1,14.9V24.3z M18.1,12.2l9.6,5.2l-9.6,5.2
					L18.1,12.2z M18.1,10.5l0-9.5l10.1,14.8L18.1,10.5z"/>
				<path id="path1603" class="st1" d="M8.3,17.4l9.8,0.8l9.6-0.8l-9.6,5.2L8.3,17.4z"/>
				<path id="path1606" class="st2" d="M18.1,18.2l9.6-0.8l-9.6,5.2L18.1,18.2z"/>
			</g>
		</g>
	</g>
</g>
</svg>
