<?xml version="1.0" encoding="utf-8"?>
<!-- Generator: Adobe Illustrator 23.0.0, SVG Export Plug-In . SVG Version: 6.00 Build 0)  -->
<svg version="1.1" id="Layer_1" xmlns="http://www.w3.org/2000/svg" xmlns:xlink="http://www.w3.org/1999/xlink" x="0px" y="0px"
	 viewBox="0 0 36 35" style="enable-background:new 0 0 36 35;" xml:space="preserve">
<style type="text/css">
	.st0{fill:#828384;}
	.st1{fill:#2F3030;}
	.st2{fill:#353636;}
	.st3{fill:#131313;}
	.st4{fill:#313232;}
</style>
<title>Layer_1</title>
<desc>Created with Sketch.</desc>
<g id="YiyGAh.tif">
	<g>
		<path class="st0" d="M7.1,17.3c0.8-1.6,1.9-3.2,2.8-4.8c2.3-3.9,4.7-7.8,7.1-11.7c0.1-0.2,0.1-0.4,0.4-0.4c0.1,0,0.1,0,0.2,0
			c0,4.1,0,8.1,0,12.2c0,0-0.1,0.1-0.1,0.1c-0.2,0-0.3,0.1-0.5,0.1c-2.2,1-4.4,2-6.7,3C9.2,16.4,8.2,17,7.1,17.3z"/>
		<path class="st1" d="M17.6,12.6c0-4.1,0-8.1,0-12.2c0.1-0.1,0.1-0.1,0.2-0.2c2.2,3.7,4.5,7.4,6.7,11.1c1.2,2,2.4,4,3.6,6
			c-0.1,0-0.2,0-0.4,0C24.3,15.7,21,14.2,17.6,12.6z"/>
		<path class="st2" d="M7.1,17.3c1.1-0.3,2.1-0.9,3.2-1.4c2.2-1,4.5-2,6.7-3c0.2-0.1,0.3-0.1,0.5-0.1c0.1,0.4,0.2,0.8,0.2,1.1
			c0,3.2,0,6.5,0,9.7c0,0,0,0,0,0c-0.1,0-0.1,0.1-0.2,0.1c-3.3-2-6.7-3.9-10-5.9C7.3,17.7,6.8,17.7,7.1,17.3z"/>
		<path class="st3" d="M17.6,23.6c0-3.2,0-6.5,0-9.7c0-0.4,0-0.8-0.2-1.1c0,0,0.1-0.1,0.1-0.1c3.4,1.5,6.7,3.1,10.1,4.6
			c0.1,0,0.2,0,0.4,0c0.2,0.2,0,0.3-0.1,0.4c-3.4,2-6.7,4-10.1,5.9C17.8,23.6,17.7,23.6,17.6,23.6z"/>
		<path class="st4" d="M17.5,25.8c3.4-2,6.8-4,10.3-6c0.1,0.3-0.1,0.4-0.2,0.6c-3.2,4.5-6.4,9-9.6,13.5c-0.1,0.1-0.1,0.5-0.5,0.3
			C17.5,31.4,17.5,28.6,17.5,25.8z"/>
		<path class="st0" d="M17.5,25.8c0,2.8,0,5.6,0,8.4c-1.4-1.8-2.7-3.8-4.1-5.6c-2.1-2.9-4.1-5.8-6.1-8.7c0,0,0.1-0.1,0.1-0.1
			c2,1.2,4,2.3,6,3.5C14.7,24.2,16.1,25,17.5,25.8z"/>
		<path class="st2" d="M17.7,0.2c-0.1,0.1-0.1,0.1-0.2,0.2c-0.1,0-0.1,0-0.2,0c0-0.1,0-0.3,0.2-0.4C17.7,0,17.7,0.1,17.7,0.2z"/>
		<path class="st0" d="M7.2,19.9C7.2,19.9,7.1,19.9,7.2,19.9C7.2,19.8,7.3,19.8,7.2,19.9C7.3,19.9,7.3,19.9,7.2,19.9z"/>
		<path class="st1" d="M17.5,23.7c0.1,0,0.1-0.1,0.2-0.1C17.6,23.7,17.6,23.8,17.5,23.7z"/>
	</g>
</g>
</svg>
