<?xml version="1.0" encoding="utf-8"?>
<!-- Generator: Adobe Illustrator 25.2.0, SVG Export Plug-In . SVG Version: 6.00 Build 0)  -->
<svg version="1.1" id="Layer_1" xmlns="http://www.w3.org/2000/svg" xmlns:xlink="http://www.w3.org/1999/xlink" x="0px" y="0px"
	 viewBox="0 0 36 35" style="enable-background:new 0 0 36 35;" xml:space="preserve">
<style type="text/css">
	.st0{fill:#345D9D;}
	.st1{fill:#FFFFFF;}
</style>
<circle class="st0" cx="18" cy="17.5" r="17.5"/>
<path class="st1" d="M17.8,18.2l-1.5,5.2h8.2c0.2,0,0.4,0.2,0.4,0.4c0,0,0,0,0,0v0.1l-0.7,2.5c-0.1,0.2-0.3,0.4-0.5,0.4H11.1
	l2.1-7.1l-2.3,0.7l0.5-1.6l2.3-0.7l2.9-10c0.1-0.2,0.3-0.4,0.5-0.4h3.2c0.2,0,0.4,0.2,0.4,0.4c0,0,0,0,0,0v0.1l-2.5,8.5l2.3-0.7
	l-0.5,1.7L17.8,18.2z"/>
</svg>
