<?xml version="1.0" encoding="utf-8"?>
<!-- Generator: Adobe Illustrator 26.0.1, SVG Export Plug-In . SVG Version: 6.00 Build 0)  -->
<svg version="1.1" id="Layer_1" xmlns="http://www.w3.org/2000/svg" xmlns:xlink="http://www.w3.org/1999/xlink" x="0px" y="0px"
	 viewBox="0 0 36 35" style="enable-background:new 0 0 36 35;" xml:space="preserve">
<style type="text/css">
	.st0{fill-rule:evenodd;clip-rule:evenodd;fill:url(#SVGID_1_);}
	.st1{fill-rule:evenodd;clip-rule:evenodd;fill:url(#SVGID_00000058575150204458053100000001324376749008807562_);}
	.st2{fill-rule:evenodd;clip-rule:evenodd;fill:#FFFFFF;}
	.st3{fill-rule:evenodd;clip-rule:evenodd;fill:#FC9965;}
	.st4{fill-rule:evenodd;clip-rule:evenodd;fill:#FF2D55;}
	.st5{fill-rule:evenodd;clip-rule:evenodd;fill:url(#SVGID_00000030487350517628981480000014873138745290957732_);}
	.st6{fill-rule:evenodd;clip-rule:evenodd;fill:#FFBC5B;}
	.st7{fill-rule:evenodd;clip-rule:evenodd;fill:#FFC95B;}
</style>
<desc>Created with Sketch.</desc>
<g>
	
		<linearGradient id="SVGID_1_" gradientUnits="userSpaceOnUse" x1="-12.8924" y1="49.9518" x2="-12.9532" y2="49.8911" gradientTransform="matrix(400 0 0 -400 5187 19986)">
		<stop  offset="0" style="stop-color:#FF2D55"/>
		<stop  offset="1" style="stop-color:#FFBC5B"/>
	</linearGradient>
	<circle class="st0" cx="17.9" cy="17.4" r="17.2"/>
	
		<linearGradient id="SVGID_00000008869785198560099350000002180855421819206829_" gradientUnits="userSpaceOnUse" x1="-13.8837" y1="50.6973" x2="-13.8837" y2="50.6114" gradientTransform="matrix(125 0 0 -150 1753.7 7616)">
		<stop  offset="0" style="stop-color:#A524B3"/>
		<stop  offset="1" style="stop-color:#FF2D55"/>
	</linearGradient>
	<path style="fill-rule:evenodd;clip-rule:evenodd;fill:url(#SVGID_00000008869785198560099350000002180855421819206829_);" d="
		M12.9,11.4v12.9h10.7L12.9,11.4z"/>
	<path class="st2" d="M2.1,24.3h10.7V11.4L2.1,24.3z"/>
	<path class="st3" d="M4.1,27.7c1,1.3,2.1,2.5,3.4,3.4h20.6c1.3-1,2.5-2.1,3.4-3.4H4.1z"/>
	<path class="st4" d="M7.6,31.2c2.9,2.2,6.4,3.4,10.3,3.4s7.4-1.3,10.3-3.4H7.6z"/>
	
		<linearGradient id="SVGID_00000089561580791915420920000012734515097621116312_" gradientUnits="userSpaceOnUse" x1="-15.4822" y1="51.6157" x2="-15.4822" y2="51.5297" gradientTransform="matrix(91.7 0 0 -110 1447.3999 5696)">
		<stop  offset="0" style="stop-color:#A524B3"/>
		<stop  offset="1" style="stop-color:#FF2D55"/>
	</linearGradient>
	<path style="fill-rule:evenodd;clip-rule:evenodd;fill:url(#SVGID_00000089561580791915420920000012734515097621116312_);" d="
		M23.7,18.3v9.5h7.9L23.7,18.3z"/>
	<path class="st6" d="M23.7,24.3H2.1c0.5,1.2,1.2,2.4,2,3.4h19.6L23.7,24.3L23.7,24.3z"/>
	<path class="st2" d="M15.9,27.7h7.9v-9.5L15.9,27.7z"/>
	<circle class="st7" cx="23.7" cy="11.4" r="4.3"/>
	<circle class="st7" cx="12.9" cy="6.7" r="2.1"/>
</g>
</svg>
