<?xml version="1.0" encoding="utf-8"?>
<!-- Generator: Adobe Illustrator 25.4.1, SVG Export Plug-In . SVG Version: 6.00 Build 0)  -->
<svg version="1.1" id="Layer_1" xmlns="http://www.w3.org/2000/svg" xmlns:xlink="http://www.w3.org/1999/xlink" x="0px" y="0px"
	 viewBox="0 0 36 35" style="enable-background:new 0 0 36 35;" xml:space="preserve">
<style type="text/css">
	.st0{fill:#8247E5;}
</style>
<desc>Created with Sketch.</desc>
<g>
	<path class="st0" d="M27.2,11.8c-0.6-0.4-1.5-0.4-2.2,0l-5.1,3l-3.5,1.9l-5,3c-0.6,0.4-1.5,0.4-2.2,0l-3.9-2.4
		c-0.6-0.4-1.1-1.1-1.1-1.9v-4.6c0-0.7,0.4-1.5,1.1-1.9l3.9-2.3c0.6-0.4,1.5-0.4,2.2,0L15.3,9c0.6,0.4,1.1,1.1,1.1,1.9v3l3.5-2V8.8
		c0-0.7-0.4-1.5-1.1-1.9l-7.3-4.3c-0.6-0.4-1.5-0.4-2.2,0L1.8,7C1,7.4,0.7,8.1,0.7,8.8v8.6c0,0.7,0.4,1.5,1.1,1.9l7.4,4.3
		c0.6,0.4,1.5,0.4,2.2,0l5-2.9l3.5-2l5-2.9c0.6-0.4,1.5-0.4,2.2,0l3.9,2.3c0.6,0.4,1.1,1.1,1.1,1.9v4.6c0,0.7-0.4,1.5-1.1,1.9
		l-3.8,2.3c-0.6,0.4-1.5,0.4-2.2,0L21,26.5c-0.6-0.4-1.1-1.1-1.1-1.9v-2.9l-3.5,2v3c0,0.7,0.4,1.5,1.1,1.9l7.4,4.3
		c0.6,0.4,1.5,0.4,2.2,0l7.4-4.3c0.6-0.4,1.1-1.1,1.1-1.9V18c0-0.7-0.4-1.5-1.1-1.9L27.2,11.8z"/>
</g>
</svg>
