<?xml version="1.0" encoding="utf-8"?>
<!-- Generator: Adobe Illustrator 24.0.1, SVG Export Plug-In . SVG Version: 6.00 Build 0)  -->
<svg version="1.1" id="Layer_1" xmlns="http://www.w3.org/2000/svg" xmlns:xlink="http://www.w3.org/1999/xlink" x="0px" y="0px"
	 viewBox="0 0 36 35" style="enable-background:new 0 0 36 35;" xml:space="preserve">
<style type="text/css">
	.st0{fill-rule:evenodd;clip-rule:evenodd;fill:#FF6600;}
	.st1{fill-rule:evenodd;clip-rule:evenodd;fill:#4C4C4C;}
</style>
<title>Layer_1</title>
<desc>Created with Sketch.</desc>
<g id="__x0023_Layer_x0020_1">
	<g id="_391743896">
		<path id="_391744448" class="st0" d="M18,0C8.3,0,0.5,7.8,0.5,17.5c0,1.9,0.3,3.8,0.9,5.5h5.2V8.3L18,19.7L29.4,8.3V23h5.2
			c0.6-1.7,0.9-3.6,0.9-5.5C35.5,7.8,27.7,0,18,0L18,0z"/>
		<path id="_391744472" class="st1" d="M15.4,22.3l-5-5v9.3H8.5H6.6H3c3.1,5,8.6,8.4,15,8.4c6.3,0,11.9-3.4,15-8.4h-3.6H26h-0.4
			v-9.3l-5,5L18,24.9L15.4,22.3C15.4,22.3,15.4,22.3,15.4,22.3z"/>
	</g>
</g>
</svg>
