<?xml version="1.0" encoding="utf-8"?>
<!-- Generator: Adobe Illustrator 25.3.1, SVG Export Plug-In . SVG Version: 6.00 Build 0)  -->
<svg version="1.1" id="Layer_1" xmlns="http://www.w3.org/2000/svg" xmlns:xlink="http://www.w3.org/1999/xlink" x="0px" y="0px"
	 viewBox="0 0 36 35" style="enable-background:new 0 0 36 35;" xml:space="preserve">
<desc>Created with Sketch.</desc>
<g transform="translate(0.000000,250.000000) scale(0.100000,-0.100000)">
	<path d="M159.4,2489.8c-71.5-9.7-129.1-63.6-142.3-133.1c-8.2-43.9,0.8-87.9,25.9-125.5c8.8-13,30.7-35.1,43.4-43.5
		c19.3-12.6,39-20.9,61.7-25.8c15.7-3.3,48.1-3.3,63.8,0c32.4,6.9,58.6,20.5,81.8,42.3c24.5,23.3,40.7,51.5,47.9,83.2
		c12.5,55.1-2.8,111-41.5,152.1c-22.7,23.9-55.7,42.2-88.4,48.4C198,2490.6,171.8,2491.5,159.4,2489.8z M196.6,2476.6
		c39.5-4.5,76.9-24.7,101.2-54.8c15.7-19.5,24.7-37.6,30.7-62.2c2.9-11.7,3.5-17,3.6-33.2c0-23.1-2.4-37.4-10-56.5
		c-40-102.8-172.3-130.6-249.9-52.5c-43.7,43.9-56.6,107.7-33.4,165.3c11.8,29.7,36.6,58.2,64,73.8
		C132.8,2473.5,163.9,2480.2,196.6,2476.6z"/>
	<path d="M72.7,2364.1c-17.3-6.2-28.3-27.7-24.3-47.6c2-10,4.3-14.6,10.5-21.1c8.2-8.9,13.6-10.9,28.1-10.9
		c11.6,0,13.3,0.4,19.7,3.9c11.8,6.6,18.4,17.2,19.8,32c1.9,20.5-10,39.6-27.4,44.5C92.2,2366.8,79.2,2366.4,72.7,2364.1z
		 M101.8,2347.5c7.8-5.7,11.8-18.9,9-30.5c-5.3-22.3-34.7-26.7-44.8-6.6c-6.1,12-2.9,30.7,6.4,37.2
		C80.1,2353.2,93.8,2353.1,101.8,2347.5z"/>
	<path d="M252.6,2363.6c-25-10-32-46.8-13.2-69.1c10.2-12.2,34.4-14.5,45.2-4.1l2.9,2.8l0.4-3.7c0.4-3.3,0.8-3.6,7-3.6h6.6l0.4,21
		l0.4,20.9h-18.7h-18.6v-6.6v-6.6h11.3c12.2,0,12.6-0.3,9.2-7.4c-2.4-4.9-10.9-9.8-17.3-9.8c-15.3,0-24.5,10.8-24.5,28.2
		c0.1,19.3,12.5,30.3,29.4,26.3c6.5-1.6,13.2-7.3,13.2-11.4c0-1.3,2-1.9,8-1.9h7.8l-1.9,6c-4.1,14-14.4,21-31.2,21.5
		C261.7,2366.1,257.5,2365.6,252.6,2363.6z"/>
	<path d="M137.5,2325v-39.9h6.6h6.6l0.3,26.9l0.4,27l9.8-27l9.8-27l6.6,0.4l6.6,0.4l9.7,26.6l9.7,26.6l0.4-26.6l0.4-26.6l7-0.4
		l6.9-0.4l-0.3,39.6l-0.4,39.6h-9.2h-9.3l-10.6-29.5c-5.9-16.4-11-29.3-11.4-28.6c-0.5,0.5-5.3,13.2-10.6,28.2
		c-5.3,15-10.4,28.1-11,29c-0.8,0.9-4.5,1.6-9.7,1.6h-8.5C137.5,2364.9,137.5,2325,137.5,2325z"/>
</g>
</svg>
