<?xml version="1.0" encoding="utf-8"?>
<!-- Generator: Adobe Illustrator 24.3.0, SVG Export Plug-In . SVG Version: 6.00 Build 0)  -->
<svg version="1.1" id="Layer_1" xmlns="http://www.w3.org/2000/svg" xmlns:xlink="http://www.w3.org/1999/xlink" x="0px" y="0px"
	 viewBox="0 0 36 35" style="enable-background:new 0 0 36 35;" xml:space="preserve">
<style type="text/css">
	.st0{fill:#0098DD;}
	.st1{fill:#FEFEFE;}
</style>
<desc>Created with Sketch.</desc>
<circle class="st0" cx="17.9" cy="17.7" r="17.1"/>
<path class="st1" d="M12.3,17.8c0-3.5,0-6.9,0-10.4c0-0.2,0-0.3,0.3-0.3c1.7,0,3.4,0,5.1,0c1.1,0,2.3,0,3.4,0.1
	c1.7,0.1,2.9,1.1,3.8,2.6c0.6,1.1,0.8,2.3,0.9,3.5c0,1.2,0,2.4-0.5,3.5c-0.5,1.3-1.3,2.4-2.6,3.1c-0.7,0.3-1.6,0.4-2.4,0.5
	c-1.3,0.1-2.7,0.1-4.1,0.1c-0.3,0-0.4,0.1-0.4,0.4c0,2.5,0,4.9,0,7.4c0,0.3-0.1,0.4-0.4,0.4c-1,0-1.9,0-2.9,0
	c-0.3,0-0.3-0.1-0.3-0.3C12.3,24.8,12.3,21.3,12.3,17.8z M15.8,13.8c0,0.9,0,1.8,0,2.8c0,0.2,0.1,0.3,0.3,0.3c1.2,0,2.4,0.1,3.6-0.1
	c0.6-0.1,1.1-0.2,1.5-0.6c0.7-0.7,1-1.6,0.9-2.5c-0.1-1.5-0.9-2.6-2.6-2.7c-1.1-0.1-2.2-0.1-3.4-0.1c-0.3,0-0.3,0.1-0.3,0.3
	C15.9,12,15.8,12.9,15.8,13.8z"/>
</svg>
