<?xml version="1.0" encoding="utf-8"?>
<!-- Generator: Adobe Illustrator 25.2.0, SVG Export Plug-In . SVG Version: 6.00 Build 0)  -->
<svg version="1.1" id="Layer_1" xmlns="http://www.w3.org/2000/svg" xmlns:xlink="http://www.w3.org/1999/xlink" x="0px" y="0px"
	 viewBox="0 0 36 35" style="enable-background:new 0 0 36 35;" xml:space="preserve">
<style type="text/css">
	.st0{fill:#1E1E1E;}
	.st1{fill:#E6007A;}
</style>
<path class="st0" d="M17.8,0C10.5,0.1,4.5,6,4.5,13.3c0,1.5,0.2,2.9,0.7,4.3c0.3,0.9,1.4,1.5,2.3,1.2c0.9-0.4,1.4-1.4,1.1-2.3
	c-0.4-1.1-0.6-2.2-0.5-3.4c0.2-5.3,4.6-9.4,9.8-9.3c5.3,0.2,9.4,4.6,9.3,9.8c-0.1,4.9-4,9-9,9.3c0,0-1.9,0.1-2.8,0.2
	c-0.3,0-0.7,0.1-1,0.2c0,0-0.1,0-0.2,0l0,0c0,0,0-0.1,0-0.1l0.3-1.6l1.7-7.9c0.2-1-0.4-1.9-1.4-2.2S13,12,12.8,13
	c0,0-4.2,19.2-4.2,19.4c-0.2,0.9,0.3,1.9,1.3,2.1c0,0,0,0,0,0H10c0.9,0.2,1.9-0.3,2.1-1.3c0,0,0,0,0,0c0,0,0-0.1,0-0.1
	c0.1-0.2,0.6-2.8,0.6-2.8c0.4-1.9,2-3.4,3.9-3.7c0.4-0.1,2.1-0.2,2.1-0.2C26,25.7,31.3,19.2,30.6,12C29.9,5.3,24.4,0.2,17.8,0z"/>
<path class="st1" d="M18.6,30.6c-1.2-0.2-2.4,0.5-2.6,1.7c0,0,0,0,0,0c-0.3,1.2,0.5,2.4,1.7,2.6c0,0,0,0,0,0h0.1
	c1.2,0.3,2.3-0.4,2.6-1.6c0,0,0,0,0,0v-0.1C20.5,32,19.8,30.9,18.6,30.6z"/>
</svg>
