<?xml version="1.0" encoding="utf-8"?>
<!-- Generator: Adobe Illustrator 25.2.0, SVG Export Plug-In . SVG Version: 6.00 Build 0)  -->
<svg version="1.1" id="Layer_1" xmlns="http://www.w3.org/2000/svg" xmlns:xlink="http://www.w3.org/1999/xlink" x="0px" y="0px"
	 viewBox="0 0 36 35" style="enable-background:new 0 0 36 35;" xml:space="preserve">
<style type="text/css">
	.st0{fill:#00FFAD;}
	.st1{fill-rule:evenodd;clip-rule:evenodd;fill:url(#SVGID_2_);}
</style>
<path class="st0" d="M25,13.2c-0.1,0.1-0.3,0.2-0.4,0.2H8.8c-0.6,0-0.8-0.7-0.5-1.1l2.6-2.7c0.1-0.1,0.3-0.2,0.5-0.2h15.9
	c0.6,0,0.8,0.7,0.4,1.1L25,13.2z M25,25.2c-0.1,0.1-0.3,0.2-0.4,0.2H8.8c-0.6,0-0.8-0.7-0.5-1.1l2.6-2.6c0.1-0.1,0.3-0.2,0.5-0.2
	h15.9c0.6,0,0.8,0.7,0.4,1.1L25,25.2z M24.6,15.4c0.2,0,0.3,0.1,0.4,0.2l2.6,2.6c0.4,0.4,0.1,1.1-0.4,1.1H11.4
	c-0.2,0-0.3-0.1-0.5-0.2l-2.6-2.6c-0.4-0.4-0.1-1.1,0.5-1.1L24.6,15.4L24.6,15.4z"/>
<g>
	<g>
		<g>
			<path id="SVGID_1_" d="M18,0.5c9.4,0,17,7.6,17,17s-7.6,17-17,17s-17-7.6-17-17S8.6,0.5,18,0.5L18,0.5z"/>
		</g>
	</g>
</g>
<linearGradient id="SVGID_2_" gradientUnits="userSpaceOnUse" x1="9.2457" y1="-473.4108" x2="26.6931" y2="-490.8582" gradientTransform="matrix(1 0 0 1 0 500)">
	<stop  offset="0" style="stop-color:#CB4EE8"/>
	<stop  offset="1" style="stop-color:#10F4B1"/>
</linearGradient>
<path class="st1" d="M8.9,15.9h15.7c0.2,0,0.4,0.1,0.5,0.2l2.5,2.5c0.5,0.5,0.1,1.3-0.5,1.3H11.3c-0.2,0-0.4-0.1-0.5-0.2l-2.5-2.5
	C7.9,16.7,8.2,15.9,8.9,15.9z M8.3,12.6l2.5-2.5c0.1-0.1,0.3-0.2,0.5-0.2h15.7c0.7,0,1,0.8,0.5,1.3l-2.5,2.5
	c-0.1,0.1-0.3,0.2-0.5,0.2H8.9C8.2,13.8,7.9,13,8.3,12.6z M27.6,23.2l-2.5,2.5c-0.1,0.1-0.3,0.2-0.5,0.2H8.9c-0.7,0-1-0.8-0.5-1.3
	l2.5-2.5c0.1-0.1,0.3-0.2,0.5-0.2h15.7C27.7,21.9,28.1,22.7,27.6,23.2z"/>
</svg>
