<?xml version="1.0" encoding="utf-8"?>
<!-- Generator: Adobe Illustrator 26.2.1, SVG Export Plug-In . SVG Version: 6.00 Build 0)  -->
<svg version="1.1" id="Layer_1" xmlns="http://www.w3.org/2000/svg" xmlns:xlink="http://www.w3.org/1999/xlink" x="0px" y="0px"
	 viewBox="0 0 36 35" style="enable-background:new 0 0 36 35;" xml:space="preserve">
<style type="text/css">
	.st0{fill:url(#SVGID_1_);}
	.st1{fill:#28211E;}
</style>
<desc>Created with Sketch.</desc>
<linearGradient id="SVGID_1_" gradientUnits="userSpaceOnUse" x1="0.5" y1="17.5" x2="35.5" y2="17.5">
	<stop  offset="0.1174" style="stop-color:#E9C574"/>
	<stop  offset="0.9992" style="stop-color:#C9A750"/>
</linearGradient>
<circle class="st0" cx="18" cy="17.5" r="17.5"/>
<path class="st1" d="M18,32.4c-3.6,0-6.8-1.2-9.6-3.5c-2.7-2.3-4.3-5.3-5.1-8.7c-0.5-4.7,0.4-8.9,3.6-12.5c2.6-2.9,5.9-4.4,9.7-5
	c2.8,0,5.6,0.3,8.1,1.6c2.4,1.3,4.4,3,5.8,5.3c1.5,2.4,2.3,5.1,2.3,7.9C32.8,25.8,26.2,32.3,18,32.4z M31.4,17.5
	C31.3,9.9,25.2,4,17.8,4.1C10.4,4.3,4.5,10.3,4.6,17.8c0.1,7.3,6.2,13.5,14.1,13.1C25.8,30.6,31.4,24.7,31.4,17.5z"/>
<path class="st1" d="M18.1,21.9c2,0,4,0,6,0c0.2,0,0.3-0.1,0.3-0.3c0-1.1,0-2.2,0-3.3c0-0.3-0.2-0.2-0.4-0.2c-2,0-4,0-6,0
	c-0.7,0-1.4,0-2.2,0c-0.4,0-0.8-0.4-0.8-0.7c0-0.4,0.3-0.7,0.8-0.7c3,0,6.1,0,9.1,0c0.6,0,0.8,0.2,0.8,0.8c0,1.7,0,3.3,0,5
	c0,0.6-0.3,0.8-0.8,0.8c-1.3,0-2.5,0-3.8,0c-0.3,0-0.3,0.1-0.3,0.3c0,1.1,0,2.2,0,3.3c0,0.5-0.3,0.8-0.8,0.8c-0.4,0-0.7-0.3-0.7-0.8
	c0-1.1,0-2.1,0-3.2c0-0.3,0-0.4-0.4-0.4c-0.7,0-1.4,0-2.2,0c-0.3,0-0.4,0.1-0.4,0.4c0,1,0,2.1,0,3.1c0,0.5-0.3,0.9-0.8,0.9
	c-0.3,0-0.7-0.4-0.6-0.9c0-1,0-2.1,0-3.1c0-0.3-0.1-0.4-0.4-0.4c-1.3,0.1-2.5,0-3.8,0c-0.3,0-0.7-0.4-0.7-0.8c0-1,0-2,0-3
	c0-2.3,0-4.7,0-7c0-0.8,0.4-0.9,1-0.9c1.2,0,2.4,0,3.7,0c0.2,0,0.3-0.1,0.3-0.3c0-1.1,0-2.1,0-3.2c0-0.2,0-0.4,0.1-0.6
	c0.2-0.2,0.4-0.4,0.7-0.3c0.3,0.1,0.6,0.4,0.6,0.7c0,1,0,2,0,2.9c0,0.7,0,0.7,0.7,0.7c0.7,0,1.3,0,2,0c0.2,0,0.2,0,0.3-0.3
	c0-1.1,0-2.2,0-3.3c0-0.6,0.6-1,1.1-0.7c0.2,0.1,0.3,0.3,0.3,0.5c0,0.9,0,1.8,0,2.8c0,0.3,0,0.5,0,0.8c0,0.2,0.2,0.2,0.3,0.2
	c1.2,0,2.5,0,3.7,0c0.3,0,0.7,0.1,0.8,0.4c0.2,0.5-0.1,1-0.7,1c-1.3,0-2.6,0-3.9,0c-1.8,0-3.5,0-5.3,0c-1.3,0-2.5,0-3.8,0
	c-0.3,0-0.4,0.1-0.4,0.4c0,2.7,0,5.4,0,8.1c0,0.4,0.2,0.3,0.4,0.3C14.1,21.9,16.1,21.9,18.1,21.9C18.1,21.9,18.1,21.9,18.1,21.9z"/>
</svg>
