<?xml version="1.0" encoding="utf-8"?>
<!-- Generator: Adobe Illustrator 25.2.0, SVG Export Plug-In . SVG Version: 6.00 Build 0)  -->
<svg version="1.1" id="Layer_1" xmlns="http://www.w3.org/2000/svg" xmlns:xlink="http://www.w3.org/1999/xlink" x="0px" y="0px"
	 viewBox="0 0 36 35" style="enable-background:new 0 0 36 35;" xml:space="preserve">
<style type="text/css">
	.st0{fill:url(#SVGID_1_);}
	.st1{fill:#00D1FF;}
</style>
<g transform="translate(257.63 -97.669)">
	<g transform="matrix(.26458 0 0 .26458 -257.63 97.669)">
		
			<linearGradient id="SVGID_1_" gradientUnits="userSpaceOnUse" x1="8161.5439" y1="4578.4268" x2="8161.5439" y2="4623.7651" gradientTransform="matrix(0.1984 0 0 0.1984 -1553.103 -908.7466)">
			<stop  offset="0" style="stop-color:#090220"/>
			<stop  offset="1" style="stop-color:#170659"/>
		</linearGradient>
		<circle class="st0" cx="66.4" cy="64" r="64.3"/>
		<g>
			<path class="st1" d="M45.3,48.1c-0.5-0.6-1.3-1-2.1-1H26c-0.1,0-0.3-0.1-0.4-0.1c-0.1-0.1-0.1-0.2-0.1-0.3V35
				c0-0.1,0.1-0.2,0.1-0.3c0.1-0.1,0.2-0.2,0.4-0.1h18.1c4.6,0,8.5,1.9,11.8,5.6l4.4,5.4L51.8,56L45.3,48.1z M77,40.1
				c3.3-3.7,7.3-5.6,11.9-5.6H107c0.1,0,0.2,0,0.3,0.1c0.1,0.1,0.1,0.2,0.1,0.4v11.6c0,0.1,0,0.2-0.1,0.3c-0.1,0.1-0.2,0.2-0.3,0.1
				H89.8c-0.8,0-1.6,0.4-2.1,1L75,63.4l12.7,15.5c0.5,0.6,1.3,0.9,2.1,0.9h17.2c0.1,0,0.3,0.1,0.3,0.1c0.1,0.1,0.1,0.2,0.1,0.4v11.6
				c0,0.1,0,0.2-0.1,0.3c-0.1,0.1-0.2,0.2-0.3,0.1H88.9c-4.6,0-8.6-1.9-11.8-5.6L66.5,73.9L56,86.8c-3.3,3.7-7.3,5.6-11.9,5.6H26
				c-0.1,0-0.3-0.1-0.3-0.1c-0.1-0.1-0.1-0.2-0.1-0.4V80.3c0-0.1,0-0.2,0.1-0.3c0.1-0.1,0.2-0.2,0.3-0.1h17.2c0.8,0,1.6-0.4,2.1-1
				l12.4-15.2L77,40.1z"/>
		</g>
	</g>
</g>
</svg>
