<?xml version="1.0" encoding="utf-8"?>
<!-- Generator: Adobe Illustrator 25.0.0, SVG Export Plug-In . SVG Version: 6.00 Build 0)  -->
<svg version="1.1" id="Layer_1" xmlns="http://www.w3.org/2000/svg" xmlns:xlink="http://www.w3.org/1999/xlink" x="0px" y="0px"
	 viewBox="0 0 36 35" style="enable-background:new 0 0 36 35;" xml:space="preserve">
<style type="text/css">
	.st0{fill:#333542;}
	.st1{fill:#0496FF;}
	.st2{fill:#F4645A;}
	.st3{fill:#FFBC42;}
	.st4{fill:url(#SVGID_1_);}
	.st5{fill:url(#SVGID_2_);}
	.st6{fill:url(#SVGID_3_);}
</style>
<g>
	<path class="st0" d="M34,10.7c-1.6,0-3.1,0-4.6,0c-0.2,0-0.4,0.5-0.4,0.8c0,2.6,0,5.2,0,7.8c0,1.1-0.7,1.5-1.7,1.3
		c-0.7-0.2-0.8-0.8-0.8-1.4c0-2.5,0-4.9,0-7.4c0-0.3,0-0.6,0-1c-0.9,0-1.7,0-2.6,0c-0.1,4.9-0.1,9.3-0.1,14c0.2,0,0.5,0,0.8,0.2
		c4.6,2.3,9.4-0.6,9.4-5.7C34.1,16.4,34,13.6,34,10.7z"/>
	<path class="st0" d="M14,10.7c1.6,0,3.1,0,4.6,0c0.2,0,0.4,0.5,0.4,0.8c0,2.6,0,5.2,0,7.8c0,1.1,0.7,1.5,1.7,1.3
		c0.7-0.2,0.8-0.8,0.8-1.4c0-2.5,0-4.9,0-7.4c0-0.3,0-0.6,0-1c0.9,0,1.7,0,2.6,0c0.1,4.9,0.1,9.3,0.1,14c-0.2,0-0.5,0-0.8,0.2
		c-4.6,2.3-9.4-0.6-9.4-5.7C14,16.4,14,13.6,14,10.7z"/>
</g>
<rect x="1.4" y="10.7" class="st1" width="5.1" height="5.1"/>
<rect x="6.4" y="15.8" class="st2" width="5.1" height="5.1"/>
<rect x="1.4" y="20.8" class="st3" width="5.1" height="5.1"/>
<linearGradient id="SVGID_1_" gradientUnits="userSpaceOnUse" x1="2.1741" y1="26.2955" x2="4.6171" y2="22.0642" gradientTransform="matrix(1 0 0 -1 0 36.5511)">
	<stop  offset="0" style="stop-color:#0496FF"/>
	<stop  offset="0.5" style="stop-color:#0496FF"/>
	<stop  offset="1" style="stop-color:#007DD7"/>
</linearGradient>
<path class="st4" d="M2.4,15.8h-1v-5.1c0,0,3.6,0,5,0C2.8,13,2.4,15.8,2.4,15.8z"/>
<linearGradient id="SVGID_2_" gradientUnits="userSpaceOnUse" x1="7.2428" y1="21.2421" x2="9.8213" y2="16.7759" gradientTransform="matrix(1 0 0 -1 0 36.5511)">
	<stop  offset="0" style="stop-color:#F4645A"/>
	<stop  offset="0.5" style="stop-color:#F4645A"/>
	<stop  offset="1" style="stop-color:#D54F46"/>
</linearGradient>
<path class="st5" d="M7.7,20.8c-1,0-1.3,0-1.3,0v-5.1h5.1C11.5,15.8,10.4,20.2,7.7,20.8z"/>
<linearGradient id="SVGID_3_" gradientUnits="userSpaceOnUse" x1="2.1766" y1="16.1863" x2="5.2746" y2="10.8204" gradientTransform="matrix(1 0 0 -1 0 36.5511)">
	<stop  offset="0" style="stop-color:#FFBC42"/>
	<stop  offset="0.5" style="stop-color:#FFBC42"/>
	<stop  offset="1" style="stop-color:#D39931"/>
</linearGradient>
<path class="st6" d="M5,25.9H1.4v-5.1c0,0,3.3,0,5.1,0C3.1,23,5,25.9,5,25.9z"/>
</svg>
