<?xml version="1.0" encoding="utf-8"?>
<!-- Generator: Adobe Illustrator 24.0.1, SVG Export Plug-In . SVG Version: 6.00 Build 0)  -->
<svg version="1.1" id="Layer_1" xmlns="http://www.w3.org/2000/svg" xmlns:xlink="http://www.w3.org/1999/xlink" x="0px" y="0px"
	 viewBox="0 0 36 35" style="enable-background:new 0 0 36 35;" xml:space="preserve">
<style type="text/css">
	.st0{fill-rule:evenodd;clip-rule:evenodd;fill:#53AE94;}
	.st1{fill-rule:evenodd;clip-rule:evenodd;fill:#FFFFFF;}
</style>
<title>Layer_1</title>
<desc>Created with Sketch.</desc>
<g id="Layer_x0020_1">
	<g id="_1100808464">
		<path class="st0" d="M17.9,0c9.7,0,17.5,7.9,17.5,17.3c0,9.7-7.9,17.5-17.5,17.5C8.4,34.9,0.6,27,0.6,17.3C0.6,7.9,8.4,0,17.9,0z"
			/>
		<g>
			<path class="st1" d="M20.1,15.1v-2.5H26v-4H10v4h5.8v2.5c-4.7,0.2-8.5,1.1-8.5,2.2c0,1.3,3.8,2.2,8.5,2.5v8.3h4.3v-8.3
				c4.7-0.2,8.3-1.1,8.3-2.5C28.5,16.2,24.9,15.3,20.1,15.1L20.1,15.1z M20.1,19.1L20.1,19.1c-0.2,0-0.7,0-2,0c-1.1,0-2,0-2.2,0l0,0
				c-4.3-0.2-7.4-1.1-7.4-1.8c0-0.9,3.1-1.8,7.4-2v2.9c0.2,0,1.1,0.2,2.2,0.2c1.3,0,1.8-0.2,2-0.2v-2.9c4.3,0.2,7.4,1.1,7.4,2
				C27.6,18,24.4,18.9,20.1,19.1L20.1,19.1z M20.1,19.1L20.1,19.1L20.1,19.1z"/>
		</g>
	</g>
</g>
</svg>
