<?xml version="1.0" encoding="utf-8"?>
<!-- Generator: Adobe Illustrator 25.4.1, SVG Export Plug-In . SVG Version: 6.00 Build 0)  -->
<svg version="1.1" id="Layer_1" xmlns="http://www.w3.org/2000/svg" xmlns:xlink="http://www.w3.org/1999/xlink" x="0px" y="0px"
	 viewBox="0 0 37 35" style="enable-background:new 0 0 37 35;" xml:space="preserve">
<style type="text/css">
	.st0{fill-rule:evenodd;clip-rule:evenodd;fill:#FFFFFF;}
	.st1{fill-rule:evenodd;clip-rule:evenodd;fill:#FFE710;}
	.st2{fill-rule:evenodd;clip-rule:evenodd;fill:#231F20;}
	.st3{fill:#FFE710;stroke:#FFFFFF;stroke-miterlimit:10;}
	.st4{fill:#231F20;}
</style>
<desc>Created with Sketch.</desc>
<g id="Page-1">
	<g id="Icons" transform="translate(-312.000000, -254.000000)">
		<g id="Tinkoff" transform="translate(312.000000, 254.000000)">
			<g id="Слой_2">
				<g>
					<g id="Слой_1-2">
						<path id="Shape" class="st0" d="M36.5,16.2l0.5-1.6l-1.6,0.1c-0.7,0-1.4-0.3-2-0.7h0.2c1,0,1.9-0.6,2.3-1.5l0.7-1.6
							c-0.5,0-1.1,0-1.6-0.1c-0.5-0.1-1-0.4-1.3-0.8C33,9.3,32.4,9,31.7,9c-0.3,0-0.5,0-0.8,0.1c0-0.1,0.1-0.3,0.1-0.4
							c0.1-0.9-0.1-1.9-0.7-2.6l-1.2-1.5l-0.7,1.8c-0.1,0.3-0.3,0.5-0.5,0.6c-0.1-0.6-0.4-1.2-0.9-1.7c-0.7-0.8-1.8-1.3-2.9-1.2
							c-0.2,0-0.4,0-0.6,0l-1.4,0.3c0.1-0.5,0.3-1,0.6-1.4l0.8-1.3l-2,0.2l-0.6-1.4l-1.2,0.7L18.5,0l-1.1,1.2l-1.2-0.7l-0.6,1.4
							l-2-0.2L14.3,3c0.3,0.4,0.5,0.9,0.6,1.4l-1.4-0.3h0c-0.2,0-0.4,0-0.6,0c-1.1,0-2.1,0.4-2.8,1.2C9.6,5.8,9.3,6.4,9.1,7.1
							C8.9,6.9,8.7,6.7,8.6,6.4L7.9,4.6L6.7,6.2C6.1,6.9,5.9,7.8,6,8.8C6,8.9,6,9,6.1,9.2C5.8,9.1,5.5,9,5.3,9
							C4.6,9,3.9,9.3,3.4,9.9c-0.3,0.4-0.8,0.7-1.3,0.8c-0.6,0.1-1.1,0.1-1.7,0.1l0.7,1.6c0.4,0.9,1.3,1.5,2.3,1.5h0.2
							c-0.6,0.5-1.3,0.7-2,0.7L0,14.6l0.5,1.6c0.4,1.3,1.4,2.2,2.6,2.4c-0.1,0.8-0.6,1.6-1.4,2L0.5,21l0.7,1.2
							c0.5,0.9,1.5,1.4,2.5,1.4c0.3,0,0.5,0,0.8-0.1c0.1,0.3,0.1,0.6,0.2,0.9c0.2,0.6,0.2,1.3,0,2l-0.6,1.3l1.3,0.4
							c0.3,0.1,0.6,0.1,0.9,0.1c0.2,0,0.4,0,0.6-0.1c0.2,0,0.3-0.1,0.5-0.1c0.2,0.3,0.4,0.6,0.6,0.9c0.8,0.9,2.1,1.3,3.6,1.3l0,0
							h1.1l-2.3,1l1.7,0.9c0.7,0.4,1.4,0.7,2.1,1l-0.2,0.6l0.6,0.3c1,0.4,2,0.6,3.1,0.7h0.7h0.7c1,0,2.1-0.3,3-0.7l0.6-0.2L22.6,33
							c0.7-0.3,1.4-0.6,2.1-1l1.7-0.9l-2.2-1h1.1c1.5,0,2.7-0.5,3.6-1.4c0.2-0.3,0.5-0.6,0.6-0.9c0.1,0.1,0.3,0.1,0.5,0.1
							c0.2,0.1,0.4,0.1,0.6,0.1c0.3,0,0.6,0,0.9-0.1l1.3-0.4l-0.6-1.3c-0.2-0.6-0.2-1.3,0-2c0.1-0.3,0.2-0.6,0.2-0.9
							c0.3,0.1,0.5,0.1,0.8,0.1c1,0,1.9-0.5,2.5-1.4l0.6-1.2l-1.2-0.5c-0.7-0.4-1.2-1.1-1.4-2C35.1,18.4,36.1,17.5,36.5,16.2
							L36.5,16.2z"/>
						<path id="Shape_00000013897565963032356580000017868546921266453686_" class="st0" d="M18.5,4.9c-1.3,0-2.2,0.4-2.4,1l2.4,1
							l2.4-1C20.7,5.4,19.8,4.9,18.5,4.9"/>
						<path id="Shape_00000175300052881529765090000004721400148691547524_" class="st0" d="M18.5,31.6L18.5,31.6
							c-0.8,0-1.6-0.1-2.4-0.3l-0.6,1.8c1,0.3,2,0.4,3,0.4c1,0,2-0.2,3-0.4l-0.6-1.8C20.1,31.5,19.3,31.6,18.5,31.6"/>
						<path id="Shape_00000092428948836576572000000004167108531676223929_" class="st0" d="M23.2,29.9c-0.7,0.4-1.4,0.6-2.1,0.9
							l0.5,1.4c0.8-0.2,1.6-0.5,2.3-0.9L22.8,31L23.2,29.9"/>
						<path id="Shape_00000159436499495476716550000015362127286632567188_" class="st0" d="M13.8,29.9l0.3,1.1l-1,0.4
							c0.7,0.4,1.5,0.7,2.3,0.9l0.5-1.4C15.1,30.6,14.5,30.3,13.8,29.9"/>
						<path id="Shape_00000014595020082526814250000014624268833893512116_" class="st0" d="M18.5,3.3c0.9,0,1.8,0.2,2.6,0.7
							c0.1-0.3,0.2-0.5,0.3-0.8l-0.3,0l-0.3,0l-0.1-0.3l-0.4-0.8l-0.7,0.4l-0.3,0.1l-0.2-0.2l-0.7-0.8l-0.7,0.8l-0.2,0.2l-0.3-0.1
							l-0.7-0.4l-0.4,0.8l-0.1,0.3l-0.3,0l-0.3,0c0.1,0.3,0.2,0.5,0.3,0.8C16.7,3.5,17.6,3.3,18.5,3.3"/>
						<path id="Shape_00000048475950831499973830000006526455927328959106_" class="st0" d="M33.1,12.6c0.1,0,0.2,0.1,0.4,0.1
							c0.5,0,1-0.3,1.2-0.8c-0.8-0.1-1.5-0.6-2.1-1.2c-0.3-0.3-0.6-0.5-1-0.5c-0.3,0-0.6,0.1-0.8,0.3C32.1,11.2,32.4,12.4,33.1,12.6
							"/>
						<path id="Shape_00000000902165905442415030000011876794997564529586_" class="st0" d="M3.4,12.7c0.1,0,0.3,0,0.4-0.1
							c0.7-0.3,1-1.4,2.3-2.1c-0.3-0.2-0.5-0.3-0.8-0.3c-0.4,0-0.8,0.2-1,0.5c-0.5,0.6-1.3,1.1-2.1,1.2C2.4,12.4,2.9,12.7,3.4,12.7"
							/>
						<path id="Shape_00000174586541860022954950000002964695333710567336_" class="st0" d="M33.5,17.4L33.5,17.4
							c1.4,0,1.9-1.5,1.9-1.5h0c-1.4-0.1-2.8-0.8-3.7-2c-0.9-1.3-1.7-2.3-3.2-2.8l-0.2,0l0-0.2c0-0.2,0.1-0.5,0.5-0.7
							c2.1-1.4,0.7-3.3,0.7-3.3s-0.6,1.5-1.9,1.5h-0.1c-0.2,0-0.3,0-0.5,0l-0.2-0.1c0.2-0.7,0-1.6-0.5-2.1c-0.5-0.6-1.3-0.9-2-0.9
							c-0.1,0-0.3,0-0.4,0C24.1,6,24.5,7,24,7.7c-0.5,0.6-1.6,0.6-1.6,1.4c0,0.4,0.3,0.8,0.9,1.1c1.7,1.1,3.4,2.6,4.1,4.6
							c0.9,2.5-0.1,4.1-1.5,5.1c0.3,0.3,0.7,0.4,1.1,0.5h0.4c0.7,0,1.5-0.2,2.1-0.7c-0.1,0.7-0.4,1.3-0.8,1.8
							c-0.7,0.9-1.7,1.3-2.8,1.3c0,0.5,0.2,0.9,0.5,1.2c0.4,0.3,0.8,0.4,1.2,0.5c0,0-1.6,0.3-1.8,2.8c0,0.6-0.1,1.2-0.4,1.8h0
							c3.7,0,3.6-3.3,3.6-3.3c0.2,0.6,0.7,1.1,1.3,1.2c0.1,0,0.3,0,0.4,0c0.2,0,0.4,0,0.6-0.1c-0.3-0.9-0.3-1.9,0-2.9
							c0.3-0.8,0.4-1.6,0.4-2.4c0.4,0.5,1.1,0.8,1.7,0.8l0,0c0.6,0,1.1-0.3,1.5-0.8c-2.5-1.1-2.2-4.5-2.2-4.5
							C32.8,17.3,33.2,17.4,33.5,17.4 M32.7,21c-1-0.5-1.6-1.9-1.8-2.4c-0.2,2.7-1.4,4.6-2.9,6.4c-0.5,0.5-0.8,1.2-1,1.9
							c0.1-0.7,0.4-1.3,0.8-1.9c1.4-1.7,2.7-3.9,2.8-6.4c0.1-1.5-0.3-3-1-4.3c0.5,1.4,0.1,3.1-1,4.1c0,0,2.5-3.2-1-6.5
							c-1.4-1.2-3-2-3.8-2.6c2.9,1,4.3-0.1,4.3-0.1c-0.8,0.7-1.9,0.9-2.9,0.7c0.2,0.1,0.4,0.2,0.6,0.3c2.4,1.4,4.6,3.7,5,6.8l0,0
							C31.5,20.2,32.7,21,32.7,21"/>
						<path id="Shape_00000100344412944811549200000003491341028368293292_" class="st0" d="M9.5,24.4c0.4-0.1,0.9-0.2,1.2-0.5
							c0.3-0.3,0.5-0.7,0.5-1.2c-1.1,0-2.1-0.4-2.8-1.3C8,21,7.8,20.4,7.6,19.7c0.6,0.5,1.3,0.7,2,0.7h0.4c0.4,0,0.8-0.2,1.1-0.5
							c-1.4-1-2.4-2.6-1.5-5.1c0.7-2,2.4-3.5,4.1-4.6c0.6-0.4,0.9-0.8,0.9-1.1c0-0.8-1.1-0.9-1.6-1.4C12.5,7,12.8,6,13.3,5.3
							c-0.1,0-0.3,0-0.4,0c-0.8,0-1.5,0.3-2,0.9c-0.5,0.5-0.7,1.3-0.5,2.1L10,8.3c-0.2,0-0.3,0-0.5,0H9.5c-1.3,0-1.9-1.5-1.9-1.5
							s-1.4,1.9,0.7,3.3c0.4,0.2,0.5,0.5,0.5,0.7l0,0.2l-0.2,0c-1.5,0.4-2.3,1.5-3.2,2.8c-0.9,1.2-2.2,1.9-3.7,1.9h0
							c0,0,0.5,1.5,1.8,1.5h0.1c0.3,0,0.7-0.1,0.9-0.3c0,0,0.2,3.5-2.2,4.5c0.3,0.5,0.9,0.8,1.5,0.8l0,0c0.7,0,1.3-0.3,1.7-0.8
							c0,0.8,0.1,1.6,0.4,2.4c0.3,0.9,0.3,1.9,0,2.9C6,27,6.2,27,6.4,27c0.1,0,0.3,0,0.4,0c0.6-0.2,1.1-0.6,1.3-1.2
							c0,0-0.1,3.3,3.6,3.3h0c-0.3-0.6-0.4-1.2-0.4-1.8C11.1,24.8,9.5,24.4,9.5,24.4 M8.9,25c-1.5-1.8-2.7-3.7-2.9-6.4
							c-0.2,0.5-0.8,1.9-1.8,2.4c0,0,1.3-0.8,1.8-3.9l0,0c0.4-3.2,2.6-5.4,5-6.8c0.2-0.1,0.4-0.2,0.6-0.3c-1,0.2-2,0-2.9-0.7
							c0,0,1.4,1.1,4.3,0.1c-0.8,0.5-2.3,1.3-3.8,2.6c-3.5,3.3-1,6.5-1,6.5c-1.1-1.1-1.4-2.7-1-4.1c-0.8,1.3-1.1,2.8-1,4.3
							c0.1,2.5,1.4,4.7,2.8,6.4c0.4,0.5,0.7,1.2,0.8,1.9C9.7,26.2,9.4,25.6,8.9,25"/>
						<path id="Shape_00000014620435885330534010000013604151053619349436_" class="st0" d="M15.7,12.3c0.1,0.1,0.1,0.1,0.2,0.2
							l0,0.1l0.2,0.2l0,0.1c0.1,0.1,0.1,0.2,0.2,0.3c0.4,0.9,1.2,1.4,2.1,1.5c0.9-0.1,1.7-0.7,2.1-1.5c0.1-0.1,0.1-0.2,0.2-0.3l0,0
							c0.1-0.1,0.1-0.2,0.2-0.2l0,0c0.1-0.1,0.1-0.2,0.2-0.2l0,0c0.3-0.3,0.6-0.5,1-0.6l-0.2-0.1l0,0L21.3,11l-0.8-0.5l-2.1,1.2l0,0
							l-2.1-1.2L15.7,11l-0.8,0.5l0,0l-0.2,0.1C15.1,11.7,15.4,12,15.7,12.3L15.7,12.3L15.7,12.3z M17.6,12.2h1.7v0.6
							c-0.2-0.2-0.4-0.2-0.6-0.2v0.9c0,0.2,0.1,0.4,0.2,0.6h-0.9c0.1-0.2,0.2-0.4,0.2-0.6v-0.9c-0.2,0-0.4,0-0.6,0.2L17.6,12.2z"/>
						<path id="Shape_00000170986944609911915700000012991107433288538265_" class="st0" d="M18.3,11V7.3l-2.2-0.8l0.6,3.6L18.3,11
							L18.3,11z M17.8,8.2v0.6l-0.1-0.1c-0.2-0.1-0.3-0.2-0.5-0.3c-0.2-0.2-0.4-0.4-0.5-0.7L17.8,8.2z"/>
						<path id="Shape_00000078014826751160188820000006283104714723796137_" class="st0" d="M20.3,10.1l0.6-3.6l-2.2,0.8V11
							L20.3,10.1L20.3,10.1z M19.1,8.2l1-0.4c0,0.3-0.2,0.6-0.5,0.7c-0.1,0.1-0.3,0.2-0.5,0.3l-0.1,0.1L19.1,8.2z"/>
						<path id="Shape_00000134226361613928658110000011820685773358710937_" class="st0" d="M15.1,19.5c0.2,0.1,0.4,0.1,0.6,0.1
							v-0.1c0,0,0-0.1,0-0.1c0-0.2,0.1-0.4,0.1-0.6c-0.1-0.1-0.2-0.2-0.3-0.3c-0.1-0.2-0.2-0.3-0.4-0.3c-0.2,0-0.4,0.1-0.6,0.2
							C14.6,18.8,14.8,19.3,15.1,19.5"/>
						<path id="Shape_00000126294051682948899840000000352744162673133229_" class="st0" d="M20.1,17.5c-0.4,0.5-1.2,1.3-1.3,1.3
							l-0.1,0.1l-2.6,0c0,0.2,0,0.4-0.1,0.7v0.1l3,0.6c0.3-0.2,1.2-0.9,1.5-1.2c-0.2-0.3-0.3-0.7-0.2-1.1
							C20.3,17.8,20.2,17.7,20.1,17.5"/>
						<path id="Shape_00000110447277997534186110000001846018157689249692_" class="st0" d="M20.4,14.3c-0.5,0.6-1.2,0.9-1.9,0.9
							l0,0c-0.1,0-0.2,0-0.3,0c-0.1,0-0.2,0-0.3,0c-0.1,0.2,0,0.5,0,0.7c0.1,0.3,0.4,0.5,0.6,0.6l0.1,0v0.1c0,0.5,0.4,0.9,0.8,1
							c0.1-0.1,0.3-0.3,0.3-0.4c-0.2-0.3-0.1-0.8,0.2-1c-0.1,0.6,0.2,1.1,0.7,1.4l0.1,0.1l0,0.1c-0.2,0.6,0.1,1.2,0.7,1.4l0.2,0.1
							l-0.1,0.2c-0.2,0.5,0,1.2,0.5,1.4h1.9v-1.6c-0.5-0.1-1-0.5-1-1.1c-0.3,0-0.5-0.2-0.7-0.4c-0.2-0.3-0.2-0.7-0.1-1.1
							c0,0.3,0.1,0.6,0.3,0.9c0.2,0.2,0.4,0.3,0.6,0.3h0.1v0.1c0,0.4,0.3,0.8,0.7,0.9v-3.2c0-0.5,0.1-1,0.3-1.5H20.4"/>
						<polyline id="Shape_00000015350323241800398440000001505106927064016563_" class="st0" points="15.3,15.8 15.3,17.8 
							15.5,17.9 16,15.9 15.8,15.3 15.3,15.8 						"/>
						<path id="Shape_00000006684382292084385350000006725057887247056823_" class="st0" d="M21.3,25.2L21.3,25.2
							c0.4,0.1,0.5,1.4,1.1,1.5c0.1,0,0.1,0,0.2,0c0.2,0,0.3-0.1,0.4-0.2c0,0-0.3-0.5-0.5-0.8c-0.3-0.4-0.5-1-1.1-1h0
							c-0.1,0-0.2,0-0.3,0.1c-0.2-0.1-0.4-0.2-0.6-0.2c-0.3,0-0.5,0.1-0.7,0.2l0,0l-1.2-0.1c-0.2,0-0.3-0.2-0.4-0.3v0v-0.1
							c0-0.7-0.4-1.3-1.1-1.5c0,0,0-0.2-0.1-0.2l-0.3,0.3l-0.9-0.5l0.6,0.8l-0.5,0.6c-0.1,0.1-0.1,0.1,0,0.2l0.2,0.2l0.3-0.2
							c0,0,0,0,0.1,0h0.3c0.1,0,0.2,0,0.2-0.1c0,0.4-0.4,1.1-0.2,1.6l0.2,0.4l-1.1-0.2l-0.5,0.9c-0.2,0.2-0.2,0.6,0,0.8l0.2,0.2
							c0.1-0.1,0.2-0.3,0.3-0.5l-0.1-0.1c-0.1-0.1-0.1-0.2,0-0.2l0.3-0.6l1.3,0.3l0.1-0.1c0.1-0.1,0.2-0.2,0.4-0.2
							c0.1,0,0.1,0,0.2,0c0.3,0.1,0.7,0.1,1,0.1c0.4,0,0.8-0.1,1.1-0.4c0.5,0.7,1.4,0.8,1.3,1.2l-0.3,1.2c0.2,0,0.3,0,0.5,0l0.2-1.3
							c0-0.1,0.1-0.3,0.1-0.3c-0.2-0.2-0.3-0.3-0.5-0.6c-0.2-0.3-0.1-0.5-0.2-1C21.1,25.2,21.2,25.2,21.3,25.2 M16.5,23.4
							c-0.1,0-0.1-0.1-0.1-0.1s0.1-0.1,0.1-0.1s0.1,0.1,0.1,0.1S16.6,23.4,16.5,23.4"/>
						<path id="Shape_00000134239643178626695290000018238064035259901344_" class="st0" d="M14.7,26.4c0,0,0.4-0.2,0.5-0.3
							l-0.1-0.1c0-0.1,0-0.2,0-0.3l0.5-0.3l0.8,0.2c-0.1-0.1-0.1-0.3-0.1-0.4l-0.7-0.1l-0.7,0.4c-0.3,0.2-0.3,0.5-0.2,0.8L14.7,26.4
							"/>
						<path id="Shape_00000122685955275265868390000005245215992785813412_" class="st0" d="M20.2,28.5h0.5c0,0,0.4-1.2,0.4-1.3
							c-0.3-0.1-0.6-0.3-0.9-0.5c0.1,0.2,0.4,0.4,0.3,0.6L20.2,28.5"/>
						<path id="Shape_00000153677609491644948730000000626968052881526681_" class="st1" d="M24,21.3H13v4.3c0,1.8,1.2,2.9,3,2.9
							c1.5,0,1.9,0.1,2.5,0.6c0.4-0.4,0.9-0.6,1.4-0.6v-0.1l0.4-1.1l-0.6-0.7c-0.2,0.1-0.5,0.1-0.7,0.1c-0.4,0-0.7,0-1.1-0.1h-0.1
							c-0.1,0-0.1,0-0.1,0l-0.1,0.1L17.4,27l-0.2-0.1l-1.1-0.3L16,26.9v0l0.1,0.1l-0.1,0.2c-0.1,0.2-0.2,0.4-0.4,0.6l-0.3,0.3
							l-0.2-0.3L15,27.6c-0.2-0.3-0.2-0.6-0.1-0.9l0,0l-0.3,0.1l-0.1-0.3l-0.1-0.2c-0.2-0.5,0-1,0.3-1.3l0.8-0.5l0.8,0.2
							c0-0.1,0.1-0.4,0.1-0.4h0l-0.5,0.2l-0.5-0.3c0,0-0.1-0.1-0.1-0.2s0-0.1,0.1-0.2l0.4-0.7l-1.1-1.4l1.7,0.7l0.1-0.1l0.2-0.3
							l0.3,0.3c0.1,0.1,0.1,0.2,0.1,0.3c0.5,0.2,1.3,0.8,1.4,1.7l-0.3,0.1l0,0c0,0,0.1,0.1,0.1,0.1l1.2,0.1l0.1,0
							c0.2-0.1,0.4-0.1,0.6-0.1c0.2,0,0.4,0.1,0.6,0.2c0.1,0,0.2-0.1,0.3-0.1h0.1c0.6,0,1,0.5,1.2,0.9l0.1,0.2
							c0.2,0.3,0.5,0.8,0.5,0.8l0.1,0.2l-0.2,0.2c-0.2,0.2-0.4,0.3-0.6,0.3c-0.1,0-0.1,0-0.2,0c-0.1,0-0.1,0-0.2-0.1
							c0,0.1,0,0.1,0,0.2l-0.2,1.2c1.2-0.3,2.1-1.4,2.1-2.8L24,21.3"/>
						<path id="Shape_00000069390822437155242890000010243820831698060725_" class="st1" d="M13,20.9h8.5c-0.3-0.4-0.5-0.9-0.3-1.4
							c-0.1-0.1-0.2-0.1-0.3-0.2c-0.3,0.3-1.4,1-1.6,1.2l-0.1,0l-3.3-0.6h-0.1c-0.1,0-0.2,0-0.3,0c0,0.2-0.2,0.3-0.3,0.3h-0.1
							c-0.1,0-0.2-0.1-0.2-0.1c-0.1-0.1-0.1-0.2-0.1-0.3v-0.1c-0.4-0.3-0.6-0.9-0.5-1.4v-0.1l0.1,0c0,0,0.1,0,0.2-0.1l-0.2,0
							c-0.1,0-0.2-0.1-0.1-0.2c0,0,0-0.1,0.1-0.1c0,0,0.1,0,0.1,0l0.6,0.1l0.1-2.1l0.9-1l0.5,1.2l-0.6,2.1l0.5,0.1
							c0.1,0,0.1,0.1,0.1,0.2c0,0.1-0.1,0.1-0.2,0.1h0l-0.4-0.1v0c0,0.1,0.1,0.2,0.2,0.2l2.5,0l0.7-0.7c-0.5-0.2-0.9-0.6-0.9-1.2
							c-0.3-0.1-0.6-0.4-0.7-0.7c-0.1-0.3-0.1-0.6-0.1-1c-0.4-0.2-0.8-0.4-1.1-0.7h-3.8c0.2,0.5,0.3,1,0.3,1.5V20.9"/>
						<path id="Shape_00000098218682305053002700000006441319194194162350_" class="st2" d="M16.5,23.2
							C16.5,23.2,16.5,23.2,16.5,23.2c-0.1,0.1-0.1,0.1-0.1,0.1c0,0,0,0.1,0,0.1c0,0,0.1,0,0.1,0c0.1,0,0.1-0.1,0.1-0.1
							C16.6,23.2,16.6,23.2,16.5,23.2"/>
						<path id="Shape_00000024719404964024743420000013819040764770830000_" class="st2" d="M23.9,31l-0.6-0.3l0.2-0.7l0.2-0.7
							c-0.9,0.5-1.8,0.8-2.7,1.1c-0.5,0.1-0.8,0.2-0.8,0.2v0.5c-0.6,0.1-1.1,0.1-1.7,0.2h-0.1c-0.6,0-1.1-0.1-1.7-0.2v-0.5
							c0,0-0.3-0.1-0.8-0.2c-0.9-0.3-1.8-0.7-2.7-1.1l0.2,0.7l0.2,0.7L13,31l-0.7,0.3c0.9,0.5,1.9,1,2.9,1.3L15,33.3
							c1.1,0.4,2.3,0.7,3.5,0.6h0c1.2,0,2.3-0.2,3.4-0.6l-0.2-0.7c1-0.3,2-0.8,2.9-1.3L23.9,31 M13,31.3l1-0.4l-0.3-1
							c0.7,0.4,1.4,0.6,2.1,0.9l-0.5,1.4C14.6,32,13.8,31.7,13,31.3 M18.5,33.5c-1,0-2-0.2-3-0.5l0.6-1.8c0.8,0.2,1.6,0.3,2.3,0.3
							h0.1c0.8,0,1.6-0.1,2.3-0.3l0.6,1.8C20.5,33.4,19.5,33.5,18.5,33.5 M21.6,32.2l-0.5-1.4c0.7-0.2,1.4-0.5,2.1-0.9L22.8,31
							l1,0.4C23.1,31.7,22.4,32,21.6,32.2"/>
						<path id="Shape_00000044891567057464302890000014932099184829227959_" class="st2" d="M18.5,3.7c1,0,2,0.3,2.9,0.9
							c0.1-0.7,0.4-1.4,0.7-2l-1,0.1l-0.5-1.2l-1,0.6l-1-1l-1,1l-1-0.6l-0.6,1.2l-1-0.1c0.4,0.6,0.6,1.3,0.7,2
							C16.4,4,17.4,3.7,18.5,3.7L18.5,3.7z M15.8,3.1l0.3,0l0.1-0.3l0.4-0.8l0.7,0.4l0.3,0.1l0.9-1l0.7,0.8l0.2,0.2l0.3-0.1l0.7-0.4
							l0.4,0.8l0.1,0.3l0.3,0l0.3,0c-0.1,0.3-0.2,0.5-0.3,0.8c-1.6-0.9-3.6-0.9-5.2,0c-0.1-0.3-0.2-0.5-0.3-0.8L15.8,3.1z"/>
						<path id="Shape_00000083808373227106660470000005551194300092363405_" class="st2" d="M33.6,17.8c1.7,0,2.2-1.8,2.2-1.9
							l0.2-0.6h-0.6l0,0c-1.3,0-2.5-0.7-3.4-1.8l-0.1-0.1c-0.8-1.1-1.7-2.2-3.1-2.7c0.1-0.1,0.1-0.1,0.2-0.1
							c0.7-0.4,1.2-1.1,1.3-1.9c0.1-0.7-0.1-1.5-0.5-2L29.3,6L29,6.7c0,0-0.5,1.2-1.5,1.2h-0.1h-0.2c0.1-0.8-0.2-1.5-0.7-2
							c-0.6-0.7-1.5-1-2.3-1c-0.2,0-0.3,0-0.5,0L22.9,5l0.4,0.6c0.3,0.5,0.6,1.3,0.3,1.8c-0.2,0.2-0.4,0.3-0.6,0.4
							c-0.5,0.2-1.1,0.6-1.1,1.4c0,0.5,0.4,1.1,1.1,1.5c2.1,1.4,3.3,2.8,3.9,4.4c0.9,2.4-0.3,3.8-1.3,4.5l-0.5,0.3l0.4,0.4
							c0.4,0.3,0.8,0.5,1.3,0.6h0.4c0.4,0,0.8-0.1,1.3-0.2c-0.1,0.2-0.2,0.4-0.4,0.5c-0.6,0.8-1.5,1.2-2.5,1.1h-0.4l0,0.4
							c0,0.6,0.2,1.2,0.7,1.6c0.1,0.1,0.2,0.2,0.4,0.3c-0.7,0.7-1.1,1.6-1.1,2.6c0,0.6-0.1,1.1-0.3,1.6l-0.5,0.7h0.8
							c1.3,0,2.4-0.4,3.1-1.2c0.4-0.4,0.6-0.9,0.8-1.4c0.3,0.2,0.6,0.4,0.9,0.5c0.2,0,0.3,0.1,0.5,0.1c0.2,0,0.5,0,0.7-0.1l0.5-0.1
							l-0.2-0.5c-0.3-0.8-0.3-1.7,0-2.5c0.2-0.5,0.3-1.1,0.4-1.6c0.4,0.2,0.9,0.3,1.3,0.3c0.8,0,1.5-0.4,1.9-1l0.3-0.5l-0.5-0.2
							c-1.5-0.7-1.9-2.5-1.9-3.4c0.2,0,0.3,0.1,0.5,0.1L33.6,17.8 M34.7,21.6c-0.3,0.5-0.9,0.8-1.5,0.8l0,0c-0.7,0-1.3-0.3-1.7-0.8
							c0,0.8-0.1,1.6-0.4,2.4c-0.3,0.9-0.3,1.9,0,2.9c-0.2,0.1-0.4,0.1-0.6,0.1c-0.1,0-0.3,0-0.4,0c-0.6-0.2-1.1-0.6-1.3-1.2
							c0,0,0.1,3.3-3.6,3.3h0c0.3-0.6,0.4-1.2,0.4-1.8c0.2-2.5,1.8-2.8,1.8-2.8c-0.4-0.1-0.9-0.2-1.2-0.5c-0.3-0.3-0.5-0.7-0.5-1.2
							c1.1,0,2.1-0.4,2.8-1.3c0.4-0.5,0.7-1.1,0.8-1.8c-0.6,0.5-1.3,0.7-2,0.7h-0.4c-0.4,0-0.8-0.2-1.1-0.5c1.4-1,2.4-2.6,1.5-5.1
							c-0.7-2-2.4-3.5-4.1-4.6c-0.5-0.3-0.8-0.7-0.8-1.1c0-0.8,1.1-0.9,1.6-1.4C24.5,7,24.2,6,23.7,5.3c0.1,0,0.3,0,0.4,0
							c0.8,0,1.5,0.3,2,0.9c0.5,0.5,0.7,1.3,0.5,2.1l0.2,0.1c0.2,0,0.3,0,0.5,0h0.1c1.3,0,1.9-1.5,1.9-1.5s1.4,1.8-0.7,3.3
							c-0.4,0.2-0.5,0.5-0.5,0.7l0,0.2l0.2,0c1.5,0.4,2.3,1.5,3.2,2.8c0.9,1.2,2.2,1.9,3.6,2h0c0,0-0.5,1.5-1.8,1.5h-0.1
							c-0.3,0-0.7-0.1-0.9-0.3C32.5,17.1,32.3,20.5,34.7,21.6"/>
						<path id="Shape_00000126312025860913345490000005484649124319694011_" class="st2" d="M30.6,10.9c0.5,0.3,1,0.7,1.3,1.2
							c0.3,0.4,0.6,0.8,1.1,1c0.2,0.1,0.3,0.1,0.5,0.1c0.7,0,1.3-0.4,1.7-1.1l0.3-0.6l-0.6,0c-0.7-0.1-1.3-0.5-1.8-1.1
							c-0.3-0.4-0.8-0.6-1.3-0.6c-0.4,0-0.8,0.1-1.1,0.3L30,10.5L30.6,10.9 M31.7,10.2c0.4,0,0.8,0.2,1,0.5c0.5,0.6,1.3,1.1,2.1,1.2
							c-0.2,0.5-0.7,0.8-1.3,0.8c-0.1,0-0.3,0-0.4-0.1c-0.7-0.3-1-1.4-2.3-2.1C31.1,10.3,31.4,10.2,31.7,10.2"/>
						<path id="Shape_00000091006548456356469690000003883821302572004001_" class="st2" d="M30.9,17.1L30.9,17.1
							c-0.4-3.2-2.6-5.4-5-6.8c-0.2-0.1-0.4-0.2-0.6-0.3c1,0.2,2,0,2.9-0.7c0,0-1.4,1.1-4.3,0.1c0.8,0.5,2.3,1.3,3.8,2.6
							c3.5,3.3,1,6.5,1,6.5c1.1-1.1,1.4-2.7,1-4.1c0.8,1.3,1.1,2.8,1,4.4c-0.1,2.5-1.4,4.7-2.8,6.4c-0.4,0.6-0.7,1.2-0.8,1.9
							c0.2-0.7,0.6-1.3,1-1.9c1.5-1.8,2.7-3.7,2.9-6.4c0.2,0.5,0.8,1.9,1.8,2.4C32.7,21,31.5,20.2,30.9,17.1"/>
						<path id="Shape_00000152232697677827045070000013401479647830514335_" class="st2" d="M12,28.8c-0.2-0.5-0.3-1-0.3-1.6
							c0-1-0.4-1.9-1.1-2.6c0.1-0.1,0.3-0.2,0.4-0.3c0.4-0.4,0.7-1,0.7-1.6l0-0.4h-0.4c-0.9,0-1.9-0.4-2.5-1.1
							c-0.1-0.2-0.2-0.3-0.4-0.5c0.4,0.1,0.8,0.2,1.2,0.2h0.4c0.5-0.1,1-0.3,1.3-0.6l0.5-0.4l-0.5-0.3c-1.1-0.7-2.2-2.1-1.3-4.5
							c0.6-1.6,1.8-3,3.9-4.4c0.7-0.5,1.1-1,1.1-1.5c0-0.8-0.6-1.1-1.1-1.4c-0.2-0.1-0.4-0.2-0.6-0.4c-0.4-0.4-0.1-1.3,0.3-1.8
							L14.1,5l-0.7-0.1c-0.2,0-0.3,0-0.5,0c-0.9,0-1.8,0.3-2.4,1c-0.5,0.5-0.8,1.3-0.7,2H9.6H9.5C8.5,7.9,8,6.8,8,6.7L7.7,6L7.2,6.6
							c-0.4,0.6-0.6,1.3-0.5,2c0.2,0.8,0.6,1.5,1.3,1.9c0.1,0,0.1,0.1,0.2,0.1c-1.4,0.5-2.2,1.6-3.1,2.7L5,13.6
							c-0.8,1.1-2,1.7-3.4,1.8l-0.6,0L1.2,16c0,0.1,0.6,1.9,2.2,1.9h0.1c0.2,0,0.3,0,0.5-0.1c-0.1,1-0.4,2.8-1.9,3.4l-0.5,0.2
							l0.3,0.5c0.4,0.7,1.1,1,1.9,1c0.5,0,0.9-0.1,1.3-0.3c0.1,0.6,0.2,1.1,0.4,1.6c0.3,0.8,0.3,1.7,0,2.5l-0.2,0.5l0.5,0.1
							c0.2,0.1,0.5,0.1,0.7,0.1c0.2,0,0.3,0,0.5-0.1c0.3-0.1,0.6-0.2,0.9-0.5c0.2,0.5,0.4,1,0.8,1.4c0.7,0.8,1.7,1.2,3.1,1.2h0.8
							L12,28.8L12,28.8z M11.6,29.1c-3.7,0-3.6-3.3-3.6-3.3c-0.2,0.6-0.7,1.1-1.3,1.2c-0.1,0-0.3,0-0.4,0c-0.2,0-0.4,0-0.6-0.1
							c0.3-0.9,0.3-1.9,0-2.9c-0.3-0.8-0.4-1.6-0.4-2.4c-0.4,0.5-1,0.8-1.7,0.8l0,0c-0.6,0-1.1-0.3-1.5-0.8c2.5-1.1,2.2-4.5,2.2-4.5
							c-0.3,0.2-0.6,0.3-0.9,0.3H3.4c-1.4,0-1.8-1.5-1.8-1.5h0c1.4-0.1,2.8-0.8,3.7-2c0.9-1.3,1.7-2.3,3.2-2.8l0.2,0l0-0.2
							c0-0.2-0.1-0.5-0.5-0.7C6.1,8.7,7.6,6.9,7.6,6.9s0.6,1.5,1.9,1.5h0.1c0.2,0,0.3,0,0.5,0l0.2-0.1c-0.2-0.7,0-1.6,0.5-2.1
							c0.5-0.6,1.3-0.9,2-0.9c0.1,0,0.3,0,0.4,0C12.8,6,12.5,7,13,7.7c0.5,0.6,1.6,0.6,1.6,1.4c0,0.4-0.3,0.8-0.9,1.1
							c-1.7,1.1-3.4,2.6-4.1,4.6c-0.9,2.5,0.1,4.1,1.5,5.1c-0.3,0.3-0.7,0.4-1.1,0.5H9.7c-0.7,0-1.5-0.2-2-0.7
							C7.8,20.4,8,21,8.5,21.5c0.7,0.9,1.7,1.3,2.8,1.3c0,0.5-0.2,0.9-0.5,1.2c-0.4,0.3-0.8,0.4-1.2,0.5c0,0,1.6,0.3,1.8,2.8
							C11.3,27.9,11.4,28.5,11.6,29.1L11.6,29.1z"/>
						<path id="Shape_00000025422951234516302750000000330229077450816913_" class="st2" d="M3.4,13.2c0.2,0,0.3,0,0.5-0.1
							c0.4-0.2,0.8-0.5,1.1-1c0.3-0.5,0.8-0.9,1.3-1.2L7,10.5l-0.6-0.4C6,9.9,5.7,9.8,5.3,9.8c-0.5,0-1,0.2-1.3,0.6
							c-0.5,0.6-1.1,0.9-1.8,1.1l-0.6,0.1l0.3,0.6C2.1,12.8,2.7,13.2,3.4,13.2 M4.3,10.7c0.3-0.3,0.6-0.5,1-0.5
							c0.3,0,0.6,0.1,0.8,0.3c-1.3,0.7-1.6,1.9-2.3,2.1c-0.1,0-0.2,0.1-0.4,0.1c-0.5,0-1-0.3-1.2-0.8C3,11.8,3.7,11.4,4.3,10.7"/>
						<path id="Shape_00000038402519928402664140000003143664727541081495_" class="st2" d="M6.3,18.6c-0.1-1.5,0.3-3,1-4.3
							c-0.5,1.4-0.1,3.1,1,4.1c0,0-2.5-3.2,1-6.5c1.4-1.2,3-2,3.8-2.6c-2.9,1-4.3-0.1-4.3-0.1c0.8,0.7,1.8,0.9,2.9,0.7
							c-0.2,0.1-0.4,0.2-0.6,0.3c-2.4,1.4-4.6,3.7-5,6.8l0,0C5.5,20.2,4.2,21,4.2,21c1-0.5,1.6-1.9,1.8-2.4c0.2,2.7,1.4,4.6,2.9,6.4
							c0.5,0.5,0.8,1.2,1,1.9c-0.1-0.7-0.4-1.3-0.8-1.9C7.8,23.3,6.4,21.1,6.3,18.6"/>
						<path id="Shape_00000041981810841419443460000006913112915514734489_" class="st2" d="M17.6,12.2v0.6c0.2-0.2,0.4-0.2,0.6-0.2
							v0.9c0,0.2-0.1,0.4-0.2,0.6h0.9c-0.1-0.2-0.2-0.4-0.2-0.6v-0.9c0.2,0,0.4,0,0.6,0.2v-0.6H17.6"/>
						<path id="Shape_00000125597554950290681510000015601476834088277160_" class="st2" d="M17.3,8.5c0.1,0.1,0.3,0.2,0.5,0.3
							l0.1,0.1V8.2l-1-0.4C16.9,8.1,17,8.3,17.3,8.5"/>
						<path id="Shape_00000160872565126467948940000006303308949285136537_" class="st2" d="M19.7,8.5c0.2-0.2,0.4-0.4,0.5-0.7
							l-1,0.4v0.6l0.1-0.1C19.4,8.7,19.5,8.6,19.7,8.5"/>
						<path id="Shape_00000067956075951451170280000013291369952544787630_" class="st2" d="M21.5,6.1c0-0.9-1.4-1.7-3-1.7l0,0
							c-1.6,0-3,0.8-3,1.7l0,0.2l0.6,3.8l-0.6,0.4l-1.7,1l0,0c0,0-0.4,0.2-0.5,0.3c-0.6,0.5-0.8,1.1-0.4,1.4
							c0.1-0.7,0.6-1.1,1.3-1.1c0.5,0,1,0.3,1.3,0.7c0.1,0.1,0.2,0.2,0.2,0.4c0.1,0.2,0.2,0.3,0.3,0.4h-4.2c0.4,0.6,0.6,1.4,0.6,2.1
							v9.8c0,2.4,1.7,3.5,3.7,3.5c1.5,0,1.7-0.1,2.5,0.8c0.8-0.8,1-0.8,2.5-0.8c1.9,0,3.6-1.1,3.6-3.5v-9.8c0-0.7,0.3-1.5,0.6-2.1
							h-4.3c0.1-0.1,0.2-0.3,0.3-0.4c0.1-0.1,0.2-0.2,0.3-0.4c0.3-0.5,0.8-0.7,1.3-0.7c0.6,0,1.2,0.5,1.3,1.1c0.4-0.3,0.2-1-0.4-1.4
							c-0.2-0.1-0.5-0.3-0.5-0.3l0,0l-1.6-1l-0.6-0.4l0.6-3.8L21.5,6.1L21.5,6.1z M16.1,6.5l2.2,0.8v3.7l-1.6-0.9L16.1,6.5z
							 M16.5,14.3c0.3,0.3,0.7,0.6,1.1,0.7c-0.1,0.3-0.1,0.7,0.1,1c0.1,0.3,0.4,0.6,0.7,0.7c0.1,0.5,0.4,1,0.9,1.2
							c-0.3,0.3-0.5,0.6-0.7,0.7l-2.5,0c-0.1,0-0.2-0.1-0.2-0.2v0l0.4,0.1h0c0.1,0,0.1-0.1,0.1-0.1c0-0.1,0-0.2-0.1-0.2l-0.5-0.1
							l0.6-2.1l-0.5-1.2l-0.9,1l-0.1,2.1l-0.6-0.1c0,0-0.1,0-0.1,0c0,0-0.1,0.1-0.1,0.1c0,0.1,0,0.2,0.1,0.2l0.2,0
							c-0.1,0.1-0.1,0.1-0.2,0.1l-0.1,0v0.1c-0.1,0.5,0.1,1.1,0.5,1.4v0.1c0,0.2,0.1,0.4,0.3,0.4h0.1c0.2,0,0.3-0.1,0.3-0.3
							c0.1,0,0.2,0,0.3,0h0.1l3.3,0.6l0.1,0c0.3-0.2,1.3-1,1.6-1.2c0.1,0.1,0.2,0.2,0.3,0.2c-0.2,0.5,0,1.1,0.3,1.4H13v-5.2
							c0-0.5-0.1-1-0.3-1.5L16.5,14.3z M20.6,19c-0.3,0.3-1.2,0.9-1.5,1.2l-3-0.6v-0.1c0.1-0.2,0.1-0.4,0.1-0.7l2.6,0l0.1-0.1
							c0,0,0.8-0.9,1.3-1.3c0.1,0.1,0.2,0.3,0.4,0.4C20.3,18.2,20.4,18.7,20.6,19L20.6,19z M15.6,18.5c0.1,0.1,0.2,0.2,0.3,0.3
							c0,0.2,0,0.4-0.1,0.6c0,0,0,0.1,0,0.1v0.1c-0.2,0-0.4,0-0.6-0.1c-0.4-0.2-0.6-0.6-0.6-1.1c0.2-0.1,0.4-0.2,0.6-0.2
							C15.4,18.2,15.5,18.3,15.6,18.5L15.6,18.5z M15.3,17.8l0.1-2.1l0.5-0.5l0.3,0.6l-0.5,2L15.3,17.8z M20.6,28.5h-0.5l0.4-1.2
							c0.1-0.2-0.2-0.4-0.3-0.6c0.3,0.2,0.6,0.3,0.9,0.5C21.1,27.3,20.7,28.5,20.6,28.5L20.6,28.5z M21.8,27.2l-0.2,1.3
							c-0.2,0-0.3,0-0.5,0l0.3-1.2c0.1-0.4-0.9-0.5-1.3-1.2c-0.3,0.3-0.7,0.4-1.1,0.4c-0.3,0-0.7,0-1-0.1c-0.1,0-0.1,0-0.2,0
							c-0.1,0-0.3,0.1-0.4,0.2l-0.1,0.1L16,26.2l-0.3,0.6c-0.1,0.1,0,0.2,0,0.2l0.1,0.1c-0.1,0.2-0.2,0.3-0.3,0.5l-0.2-0.2
							c-0.1-0.3-0.1-0.6,0-0.8l0.5-0.9l1.1,0.2l-0.2-0.4c-0.2-0.5,0.1-1.2,0.2-1.6c0,0.1-0.1,0.1-0.2,0.1h-0.3c0,0,0,0-0.1,0
							L16,24.1l-0.2-0.2c0-0.1,0-0.2,0-0.2l0.5-0.6l-0.6-0.8l0.9,0.5l0.3-0.3c0.1,0.1,0,0.3,0,0.3c0.7,0.2,1.1,0.8,1.1,1.5v0.1v0
							c0.1,0.2,0.2,0.3,0.4,0.3l1.2,0.1l0,0c0.2-0.1,0.5-0.1,0.7-0.2c0.2,0,0.4,0.1,0.6,0.2c0.1-0.1,0.2-0.1,0.3-0.1h0
							c0.6,0,0.8,0.5,1.1,1c0.2,0.3,0.5,0.8,0.5,0.8c-0.1,0.1-0.2,0.2-0.4,0.2c-0.1,0-0.1,0-0.2,0c-0.6-0.1-0.7-1.4-1-1.5h-0.1
							c-0.1,0-0.1,0-0.2,0.1c0.2,0.4,0.1,0.6,0.2,1c0.1,0.2,0.3,0.4,0.5,0.6C21.8,26.8,21.8,27,21.8,27.2L21.8,27.2z M15.1,25.9
							l0.1,0.1c0,0.1-0.5,0.3-0.5,0.3l-0.1-0.2c-0.1-0.3,0-0.6,0.2-0.8l0.7-0.4l0.7,0.2c0,0.2,0,0.3,0.1,0.4l-0.8-0.2l-0.5,0.3
							C15.1,25.7,15.1,25.8,15.1,25.9L15.1,25.9z M21.9,28.4l0.2-1.2c0-0.1,0-0.1,0-0.2c0.1,0,0.1,0,0.2,0.1c0.1,0,0.1,0,0.2,0
							c0.3,0,0.5-0.1,0.6-0.3l0.2-0.2l-0.1-0.2c0,0-0.3-0.5-0.5-0.8l-0.1-0.2c-0.2-0.5-0.7-0.9-1.2-0.9h-0.1c-0.1,0-0.2,0.1-0.2,0.1
							c-0.2-0.1-0.4-0.2-0.6-0.2c-0.2,0-0.4,0-0.6,0.1l-0.1,0l-1.2-0.1c0,0-0.1-0.1-0.1-0.1l0,0l0.3-0.1c-0.1-0.9-0.9-1.5-1.4-1.7
							c0-0.1-0.1-0.2-0.1-0.3l-0.3-0.3l-0.2,0.3l-0.1,0.1l-1.7-0.7l1.1,1.4l-0.4,0.7c0,0-0.1,0.1-0.1,0.2s0,0.1,0.1,0.2l0.5,0.3
							l0.5-0.2h0c0,0.1-0.1,0.4-0.1,0.4l-0.8-0.2L14.7,25c-0.4,0.3-0.5,0.8-0.3,1.3l0.1,0.2l0.1,0.3l0.3-0.1l0,0
							c-0.1,0.3-0.1,0.7,0.1,0.9l0.2,0.2l0.2,0.3l0.3-0.3c0.2-0.2,0.3-0.4,0.4-0.6l0.1-0.2L16,26.9v0l0.1-0.2l1.1,0.3l0.2,0.1
							l0.1-0.2l0.1-0.1c0,0,0,0,0.1,0c0,0,0.1,0,0.1,0c0.4,0.1,0.7,0.1,1.1,0.1c0.2,0,0.5,0,0.7-0.1l0.6,0.7l-0.3,1.1v0.1
							c-0.5,0-1,0.2-1.4,0.6c-0.6-0.6-1-0.6-2.5-0.6c-1.8,0-3-1.1-3-2.9v-4.3h11v4.3C24,26.9,23.1,28.1,21.9,28.4L21.9,28.4z
							 M24.3,14.3c-0.2,0.5-0.3,1-0.3,1.5V19c-0.4-0.1-0.7-0.4-0.7-0.9V18h-0.1c-0.2,0-0.5-0.1-0.6-0.3c-0.2-0.2-0.3-0.6-0.3-0.9
							c-0.2,0.3-0.2,0.8,0.1,1.1c0.2,0.2,0.4,0.4,0.7,0.4c0.1,0.6,0.5,1,1,1.1v1.6h-1.9c-0.5-0.3-0.7-0.9-0.5-1.4l0.1-0.2l-0.2-0.1
							c-0.5-0.2-0.8-0.8-0.7-1.4l0-0.1l-0.1-0.1c-0.5-0.3-0.7-0.9-0.7-1.4c-0.3,0.3-0.3,0.7-0.2,1c-0.1,0.1-0.2,0.2-0.3,0.4
							c-0.5-0.1-0.8-0.5-0.8-1v-0.1l-0.1,0c-0.3-0.1-0.5-0.3-0.6-0.6c-0.1-0.2-0.1-0.5,0-0.7c0.1,0,0.2,0,0.3,0h0.3l0,0h0.3
							c0.6-0.1,1.2-0.4,1.7-0.9L24.3,14.3z M21.3,11l0.7,0.5l0,0l0.2,0.1c-0.4,0.1-0.7,0.3-1,0.6l0,0c-0.1,0.1-0.1,0.1-0.2,0.2l0,0
							c-0.1,0.1-0.1,0.2-0.2,0.2l0,0c-0.1,0.1-0.1,0.2-0.2,0.3c-0.4,0.9-1.2,1.4-2.1,1.5c-0.9-0.1-1.7-0.7-2.1-1.5
							c-0.1-0.1-0.1-0.2-0.2-0.3l0-0.1l-0.2-0.2l0-0.1c-0.1-0.1-0.1-0.1-0.2-0.2l0,0c-0.3-0.3-0.6-0.5-1-0.6l0.2-0.1l0,0l0.7-0.5
							l0.8-0.5l2.1,1.2l0,0l2.1-1.1L21.3,11z M20.3,10.1L18.7,11V7.3l2.2-0.8L20.3,10.1z M18.5,6.9l-2.4-1c0.2-0.5,1.2-1,2.4-1
							s2.2,0.4,2.4,1L18.5,6.9z"/>
					</g>
				</g>
			</g>
		</g>
	</g>
</g>
<g>
	<path class="st3" d="M33.4,33.4H21.6c-1.1,0-2-0.9-2-2V19.7c0-1.1,0.9-2,2-2h11.8c1.1,0,2,0.9,2,2v11.8
		C35.4,32.5,34.5,33.4,33.4,33.4z"/>
	<g>
		<g>
			<path class="st4" d="M24.5,21.9c-0.1-0.1-0.2-0.2-0.4-0.2c-0.1,0-0.3,0.1-0.4,0.2c-0.1,0.1-0.2,0.2-0.2,0.4s0.1,0.3,0.2,0.4
				c0.1,0.1,0.2,0.2,0.4,0.2c0.1,0,0.3-0.1,0.4-0.2c0.1-0.1,0.2-0.2,0.2-0.4S24.6,22,24.5,21.9z"/>
		</g>
	</g>
	<g>
		<g>
			<path class="st4" d="M26.4,19.5h-4.5c-0.3,0-0.6,0.3-0.6,0.6v4.5c0,0.3,0.3,0.6,0.6,0.6h4.5c0.3,0,0.6-0.3,0.6-0.6v-4.5
				C26.9,19.7,26.7,19.5,26.4,19.5z M26.1,24.2h-3.4c-0.3,0-0.5-0.2-0.5-0.5v-2.9c0-0.3,0.2-0.5,0.5-0.5h2.9c0.3,0,0.5,0.2,0.5,0.5
				L26.1,24.2L26.1,24.2z"/>
		</g>
	</g>
	<g>
		<g>
			<path class="st4" d="M31.2,21.9c-0.1-0.1-0.2-0.2-0.4-0.2s-0.3,0.1-0.4,0.2c-0.1,0.1-0.2,0.2-0.2,0.4s0.1,0.3,0.2,0.4
				c0.1,0.1,0.2,0.2,0.4,0.2c0.1,0,0.3-0.1,0.4-0.2c0.1-0.1,0.2-0.2,0.2-0.4S31.3,22,31.2,21.9z"/>
		</g>
	</g>
	<g>
		<g>
			<path class="st4" d="M24.5,28.6c-0.1-0.1-0.2-0.2-0.4-0.2c-0.1,0-0.3,0.1-0.4,0.2c-0.1,0.1-0.2,0.2-0.2,0.4
				c0,0.1,0.1,0.3,0.2,0.4c0.1,0.1,0.2,0.2,0.4,0.2c0.1,0,0.3-0.1,0.4-0.2c0.1-0.1,0.2-0.2,0.2-0.4C24.7,28.9,24.6,28.7,24.5,28.6z"
				/>
		</g>
	</g>
	<g>
		<g>
			<path class="st4" d="M31.2,28.5h-0.4c-0.3,0-0.6,0.2-0.6,0.5s0.3,0.5,0.6,0.5h0.4c0.3,0,0.6-0.2,0.6-0.5S31.5,28.5,31.2,28.5z"/>
		</g>
	</g>
	<g>
		<g>
			<path class="st4" d="M33.2,29.9c-0.3,0-0.5,0.2-0.5,0.5v0.5h-1.1c-0.3,0-0.5,0.2-0.5,0.5s0.2,0.5,0.5,0.5h1.6
				c0.3,0,0.5-0.2,0.5-0.5v-1C33.6,30.1,33.4,29.9,33.2,29.9z"/>
		</g>
	</g>
	<g>
		<g>
			<path class="st4" d="M28.7,28.5c-0.3,0-0.5,0.3-0.5,0.6v0.7c0,0.3,0.2,0.6,0.5,0.6s0.5-0.3,0.5-0.6V29
				C29.2,28.7,28.9,28.5,28.7,28.5z"/>
		</g>
	</g>
	<g>
		<g>
			<path class="st4" d="M31.2,26.2h-1.1c-0.3,0-0.6,0.2-0.6,0.5c0,0.3,0.3,0.5,0.6,0.5h1.1c0.3,0,0.6-0.2,0.6-0.5
				C31.8,26.4,31.5,26.2,31.2,26.2z"/>
		</g>
	</g>
	<g>
		<g>
			<path class="st4" d="M33.1,19.5h-4.5c-0.3,0-0.6,0.3-0.6,0.6v4.5c0,0.3,0.3,0.6,0.6,0.6h4.5c0.3,0,0.6-0.3,0.6-0.6v-4.5
				C33.7,19.8,33.4,19.5,33.1,19.5z M32.8,24.3h-3.4c-0.3,0-0.5-0.2-0.5-0.5v-2.9c0-0.3,0.2-0.5,0.5-0.5h2.9c0.3,0,0.5,0.2,0.5,0.5
				L32.8,24.3L32.8,24.3z"/>
		</g>
	</g>
	<g>
		<g>
			<path class="st4" d="M26.3,26.3h-4.5c-0.3,0-0.6,0.3-0.6,0.6v4.5c0,0.3,0.3,0.6,0.6,0.6h4.5c0.3,0,0.6-0.3,0.6-0.6v-4.5
				C26.9,26.5,26.6,26.3,26.3,26.3z M26.1,31h-3.4c-0.3,0-0.5-0.2-0.5-0.5v-2.9c0-0.3,0.2-0.5,0.5-0.5h2.9c0.3,0,0.5,0.2,0.5,0.5
				L26.1,31L26.1,31z"/>
		</g>
	</g>
</g>
</svg>
