<?xml version="1.0" encoding="utf-8"?>
<!-- Generator: Adobe Illustrator 26.2.1, SVG Export Plug-In . SVG Version: 6.00 Build 0)  -->
<svg version="1.1" id="Layer_1" xmlns="http://www.w3.org/2000/svg" xmlns:xlink="http://www.w3.org/1999/xlink" x="0px" y="0px"
	 viewBox="0 0 36 35" style="enable-background:new 0 0 36 35;" xml:space="preserve">
<style type="text/css">
	.st0{fill:#0088CC;}
	.st1{fill-rule:evenodd;clip-rule:evenodd;fill:#FFFFFF;}
</style>
<desc>Created with Sketch.</desc>
<circle class="st0" cx="17.5" cy="17.5" r="17.5"/>
<path class="st1" d="M12.6,11.6h9.8c0.4,0,0.7,0.1,1.1,0.2c0.4,0.2,0.7,0.5,0.8,0.8c0,0,0,0.1,0.1,0.1c0.2,0.3,0.3,0.7,0.3,1.1
	c0,0.4-0.1,0.8-0.3,1.1l0,0l-6.2,10.6c-0.1,0.2-0.4,0.4-0.7,0.4c-0.2,0-0.5-0.1-0.7-0.4l-6.1-10.6l0,0c-0.1-0.2-0.4-0.6-0.4-1.1
	c-0.1-0.4,0.1-0.8,0.2-1.2c0.2-0.4,0.5-0.7,0.9-0.8C11.9,11.6,12.4,11.6,12.6,11.6z M16.8,13.1h-4.1c-0.2,0-0.4,0-0.4,0.1
	c-0.1,0.1-0.2,0.1-0.2,0.2c-0.1,0.1-0.1,0.2-0.1,0.3c0,0.1,0.1,0.1,0.2,0.4l0,0l4.7,8.1V13.1z M18.2,13.1v9.2l4.8-8.2
	c0.1-0.1,0.1-0.2,0.1-0.4c0-0.1,0-0.2-0.1-0.3c-0.1-0.1-0.1-0.1-0.1-0.1l-0.1-0.1c-0.1-0.1-0.2-0.1-0.4-0.1L18.2,13.1L18.2,13.1z"/>
</svg>
