<?xml version="1.0" encoding="utf-8"?>
<!-- Generator: Adobe Illustrator 25.2.0, SVG Export Plug-In . SVG Version: 6.00 Build 0)  -->
<svg version="1.1" id="Layer_1" xmlns="http://www.w3.org/2000/svg" xmlns:xlink="http://www.w3.org/1999/xlink" x="0px" y="0px"
	 viewBox="0 0 36 35" style="enable-background:new 0 0 36 35;" xml:space="preserve">
<style type="text/css">
	.st0{fill:#FF060A;}
	.st1{fill:#FFFFFF;}
</style>
<path class="st0" d="M35,17.1c0,9.4-7.6,17-17,17c-9.4,0-17-7.6-17-17c0-9.4,7.6-17,17-17S35,7.7,35,17.1L35,17.1z"/>
<g id="tron">
	<path class="st1" d="M29.2,14.4c-1.1-1-2.6-2.5-3.8-3.6l-0.1-0.1c-0.1-0.1-0.3-0.2-0.4-0.2l0,0C22,9.9,8.3,7.4,8,7.4
		c-0.1,0-0.1,0-0.2,0.1L7.7,7.5C7.6,7.6,7.6,7.7,7.5,7.8l0,0v0.3v0c1.5,4.3,7.6,18.4,8.8,21.7c0.1,0.2,0.2,0.7,0.5,0.7h0.1
		c0.1,0,0.7-0.8,0.7-0.8s10.5-12.7,11.5-14.1c0.1-0.2,0.3-0.3,0.4-0.5C29.6,14.9,29.5,14.6,29.2,14.4z M20.3,15.9l4.5-3.7l2.6,2.4
		L20.3,15.9z M18.6,15.6l-7.7-6.3l12.5,2.3L18.6,15.6z M19.3,17.3l7.9-1.3l-9,10.9L19.3,17.3z M9.8,9.9l8.1,6.9l-1.2,10L9.8,9.9z"/>
</g>
</svg>
