<?xml version="1.0" encoding="utf-8"?>
<!-- Generator: Adobe Illustrator 25.2.0, SVG Export Plug-In . SVG Version: 6.00 Build 0)  -->
<svg version="1.1" id="Layer_1" xmlns="http://www.w3.org/2000/svg" xmlns:xlink="http://www.w3.org/1999/xlink" x="0px" y="0px"
	 viewBox="0 0 36 35" style="enable-background:new 0 0 36 35;" xml:space="preserve">
<style type="text/css">
	.st0{fill:#F2EBEE;}
	.st1{fill:#FF007A;}
	.st2{fill-rule:evenodd;clip-rule:evenodd;fill:#FF007A;}
</style>
<path class="st0" d="M35,17.1c0,9.4-7.6,17-17,17c-9.4,0-17-7.6-17-17c0-9.4,7.6-17,17-17S35,7.7,35,17.1L35,17.1z"/>
<path class="st1" d="M14.4,8.2c-0.3,0-0.3-0.1-0.2-0.1c0.2,0,0.8,0,1.2,0.1c0.9,0.2,1.8,0.8,2.7,1.8l0.2,0.3l0.3-0.1
	c1.5-0.2,2.9-0.1,4.2,0.5c0.3,0.2,0.9,0.5,0.9,0.5c0,0,0.1,0.2,0.1,0.4c0.1,0.6,0.1,1.1-0.1,1.4c-0.1,0.2-0.1,0.2,0,0.4
	c0.1,0.1,0.2,0.2,0.4,0.2c0.3,0,0.6-0.5,0.8-1.2l0.1-0.3l0.1,0.1c0.7,0.7,1.2,1.8,1.3,2.5l0,0.2L26.3,15c-0.2-0.3-0.4-0.5-0.6-0.7
	c-0.4-0.3-0.9-0.4-2.2-0.5c-1.1-0.1-1.8-0.2-2.4-0.4c-1.1-0.4-1.6-0.8-2.9-2.5c-0.6-0.7-0.9-1.1-1.3-1.5C16.2,8.8,15.4,8.4,14.4,8.2
	z"/>
<path class="st1" d="M24.1,9.9c0-0.5,0.1-0.8,0.2-1.1c0.1-0.1,0.1-0.2,0.1-0.2s0,0.1-0.1,0.2c-0.1,0.3-0.1,0.7-0.1,1.1
	c0.1,0.6,0.1,0.7,0.8,1.3c0.3,0.3,0.6,0.7,0.8,0.8l0.2,0.3l-0.2-0.2c-0.3-0.3-0.9-0.8-1-0.8c-0.1-0.1-0.1-0.1-0.2,0
	c-0.1,0.1-0.1,0.1-0.1,0.5c0,0.6-0.1,1-0.3,1.3c-0.1,0.2-0.1,0.2,0-0.1c0.1-0.2,0.1-0.2,0.1-0.8c0-1.1-0.1-1.4-0.9-1.9
	c-0.2-0.1-0.5-0.3-0.7-0.4c-0.2-0.1-0.4-0.2-0.4-0.2c0,0,0.8,0.2,1.1,0.3c0.5,0.2,0.5,0.2,0.6,0.2C24.1,10.3,24.1,10.2,24.1,9.9z"/>
<path class="st1" d="M14.9,11.8C14.4,11.1,14,9.9,14.1,9l0-0.3l0.1,0c0.2,0,0.6,0.2,0.8,0.3c0.5,0.3,0.8,0.7,1,1.8
	c0.1,0.3,0.2,0.7,0.2,0.8c0.1,0.2,0.3,0.7,0.5,0.9c0.1,0.2,0.1,0.3-0.3,0.3C16,12.9,15.4,12.4,14.9,11.8z"/>
<path class="st1" d="M23.5,17.5c-2.6-1-3.5-1.9-3.5-3.5c0-0.2,0-0.4,0-0.4c0,0,0.1,0.1,0.2,0.2c0.5,0.4,1.1,0.6,2.7,0.8
	c1,0.1,1.5,0.2,2,0.4c1.6,0.5,2.6,1.6,2.8,3c0.1,0.4,0,1.2-0.1,1.6c-0.1,0.3-0.4,0.9-0.4,0.9c0,0,0-0.1,0-0.2c0-0.5-0.3-1.1-0.8-1.5
	C25.9,18.5,25.2,18.2,23.5,17.5z"/>
<path class="st1" d="M21.6,17.9c0-0.2-0.1-0.4-0.1-0.5l-0.1-0.2l0.1,0.1c0.2,0.2,0.3,0.4,0.4,0.8c0.1,0.2,0.1,0.3,0.1,0.7
	c0,0.4,0,0.5-0.1,0.7c-0.1,0.4-0.3,0.6-0.5,0.9c-0.5,0.5-1.1,0.7-2,0.9c-0.2,0-0.6,0.1-1,0.1c-1,0.1-1.6,0.2-2.2,0.4
	c-0.1,0-0.2,0.1-0.2,0c0,0,0.4-0.3,0.7-0.4c0.5-0.2,0.9-0.3,2-0.5c0.5-0.1,1-0.2,1.2-0.2C21.2,20.2,21.8,19.2,21.6,17.9z"/>
<path class="st1" d="M22.8,20c-0.3-0.7-0.4-1.5-0.2-2.1c0-0.1,0.1-0.1,0.1-0.1c0,0,0.1,0,0.2,0.1c0.2,0.1,0.5,0.3,1.3,0.7
	c1.1,0.6,1.7,1,2.1,1.5c0.4,0.4,0.6,1,0.7,1.6c0.1,0.4,0,1.2-0.1,1.6c-0.3,1.1-0.9,2-1.9,2.5c-0.1,0.1-0.3,0.1-0.3,0.1
	s0-0.1,0.1-0.3c0.3-0.7,0.4-1.3,0.1-2c-0.1-0.4-0.4-1-1-1.9C23.2,20.7,23,20.4,22.8,20z"/>
<path class="st1" d="M13.1,24c1-0.8,2.2-1.4,3.3-1.6c0.5-0.1,1.3-0.1,1.7,0.1c0.7,0.2,1.3,0.6,1.6,1.1c0.3,0.5,0.5,0.9,0.6,1.8
	c0.1,0.4,0.1,0.7,0.1,0.8c0.1,0.5,0.3,0.8,0.6,1c0.4,0.3,1.1,0.3,1.8,0.1c0.1,0,0.2-0.1,0.2-0.1c0,0-0.3,0.3-0.6,0.4
	c-0.3,0.2-0.6,0.2-0.9,0.2c-0.6,0-1.2-0.3-1.6-1c-0.1-0.1-0.3-0.5-0.4-0.9c-0.5-1.1-0.7-1.4-1.2-1.7c-0.5-0.3-1.1-0.4-1.5-0.1
	c-0.6,0.3-0.8,1.1-0.3,1.5c0.2,0.2,0.5,0.4,0.7,0.4c0.5,0.1,0.9-0.3,0.9-0.8c0-0.3-0.1-0.5-0.4-0.6c-0.4-0.2-0.9,0-0.9,0.4
	c0,0.2,0.1,0.3,0.2,0.4c0.1,0.1,0.1,0.1,0,0c-0.4-0.1-0.5-0.5-0.2-0.8c0.4-0.4,1.1-0.2,1.4,0.3c0.1,0.2,0.1,0.6,0,0.9
	c-0.2,0.6-0.8,0.9-1.5,0.7c-0.4-0.1-0.6-0.2-1.1-0.8c-0.9-0.9-1.3-1.1-2.6-1.3l-0.2,0L13.1,24z"/>
<path class="st2" d="M6.2,3c3,3.7,7.7,9.4,8,9.8c0.2,0.3,0.1,0.5-0.2,0.7c-0.2,0.1-0.6,0.2-0.7,0.2c-0.2,0-0.5-0.1-0.6-0.3
	c-0.1-0.1-0.6-0.9-1.8-2.7C10,9.4,9.2,8.2,9.2,8.2c-0.1,0-0.1,0,1.5,2.8c1,1.8,1.3,2.4,1.3,2.5c0,0.2-0.1,0.3-0.3,0.5
	c-0.4,0.4-0.5,0.8-0.6,1.8c-0.1,1-0.5,1.8-1.5,3C9.1,19.6,9,19.7,8.9,20c-0.2,0.4-0.2,0.6-0.3,1c0,0.5,0,0.8,0.2,1.3
	c0.1,0.4,0.3,0.7,0.6,1.2c0.3,0.5,0.5,0.8,0.5,1c0,0.1,0,0.1,0.5,0c1.1-0.3,2.1-0.7,2.6-1.3c0.3-0.3,0.4-0.5,0.4-1
	c0-0.3,0-0.4-0.1-0.5c-0.1-0.3-0.4-0.5-0.9-0.9c-0.7-0.5-1-0.9-1.1-1.4c-0.1-0.4,0-0.7,0.4-1.6c0.4-0.8,0.5-1.2,0.6-2.1
	c0-0.5,0.1-0.8,0.3-0.9c0.2-0.2,0.3-0.2,0.7-0.3c0.7-0.1,1.1-0.3,1.4-0.6c0.3-0.3,0.4-0.5,0.4-1l0-0.3l-0.2-0.2
	C14.3,11.8,5.8,2.5,5.8,2.5C5.8,2.5,6,2.7,6.2,3z M10.2,21.6c0.1-0.2,0.1-0.6-0.2-0.7c-0.2-0.1-0.6-0.1-0.6,0.1c0,0.1,0,0.1,0.1,0.1
	c0.1,0.1,0.1,0.1,0,0.3c-0.1,0.1-0.1,0.3,0,0.4C9.8,21.9,10.1,21.8,10.2,21.6z"/>
<path class="st2" d="M15.5,14.7c-0.3,0.1-0.6,0.4-0.7,0.8c-0.1,0.2,0,0.6,0.1,0.7c0.1,0.2,0.3,0.2,0.6,0.2c0.7,0,1.3-0.3,1.4-0.7
	c0.1-0.3-0.2-0.7-0.6-0.9C16.1,14.7,15.7,14.7,15.5,14.7z M16.4,15.4c0.1-0.2,0.1-0.3-0.1-0.4c-0.4-0.2-0.9,0-0.9,0.3
	c0,0.2,0.3,0.4,0.5,0.4C16,15.6,16.3,15.5,16.4,15.4z"/>
</svg>
