<?xml version="1.0" encoding="utf-8"?>
<!-- Generator: Adobe Illustrator 25.4.1, SVG Export Plug-In . SVG Version: 6.00 Build 0)  -->
<svg version="1.1" id="Layer_1" xmlns="http://www.w3.org/2000/svg" xmlns:xlink="http://www.w3.org/1999/xlink" x="0px" y="0px"
	 viewBox="0 0 36 35" style="enable-background:new 0 0 36 35;" xml:space="preserve">
<style type="text/css">
	.st0{fill-rule:evenodd;clip-rule:evenodd;fill:#B3D234;}
	.st1{fill-rule:evenodd;clip-rule:evenodd;fill:#0095D9;}
	.st2{fill-rule:evenodd;clip-rule:evenodd;fill:#EEE809;}
	.st3{fill-rule:evenodd;clip-rule:evenodd;fill:#51B849;}
	.st4{fill-rule:evenodd;clip-rule:evenodd;fill:#00845D;}
	.st5{fill-rule:evenodd;clip-rule:evenodd;fill:#005121;}
</style>
<desc>Created with Sketch.</desc>
<path id="Fill-1" class="st0" d="M10,5.5c0.7-0.8,1.3-1.4,1.9-2C2,3.2,4.9,10.3,1.7,17.6C-2,26,2.1,29.2,8.3,30.2
	c-0.9-1-1.5-2.2-2.1-3.4C2.2,21.7,3.8,12.5,10,5.5"/>
<path id="Fill-3" class="st1" d="M33.6,14.4c-0.9,2.6-2.6,5.5-5,8.4c-1.8,2.2-3.9,4-6,5.3c-2.5,1.6-5.5,2.5-8.9,2.5
	c-1.9,0-3.8-0.1-5.5-0.4c1,1.2,2.2,2.2,3.7,2.9c8.9,4.3,9.4-3.7,18.8-7.8C36,23,36.1,18.5,33.6,14.4"/>
<path id="Fill-5" class="st2" d="M22.6,6c1.3,0.2,2.6,0.7,3.7,1.3c3,1.7,5.7,4.3,7.3,7.1c1.6-4.5,0.9-8.1-2.6-8.8
	c-3.8-0.7-6.9-0.9-9.7-3c-3.6-2.5-6.7-1.7-9.4,0.9c0.2,0,0.4,0,0.6,0C16.2,3.8,19.8,4.5,22.6,6"/>
<path id="Fill-7" class="st3" d="M10,5.5c-6.2,7-7.8,16.2-3.8,21.3C4.4,22.5,4.5,17.3,7,13c3.4-5.6,10.1-8,15.6-7
	c-2.9-1.5-6.4-2.3-10.2-2.5c-0.2,0-0.4,0-0.6,0C11.3,4,10.7,4.7,10,5.5"/>
<path id="Fill-9" class="st4" d="M26.3,7.3C25.2,6.7,24,6.3,22.6,6c3.8,2,6.3,5.4,6.2,10.7c0,4.7-2.4,8.8-6.2,11.3
	c2.1-1.3,4.2-3,6-5.3c2.4-2.9,4-5.8,5-8.4C32,11.6,29.3,9,26.3,7.3"/>
<path id="Fill-11" class="st5" d="M22,25.5c-4.3,2.8-9.9,1.5-12.7-2.7S8,13,12.1,10c4.6-3.3,10.5-2,12.7,2.7
	C26.9,17.4,26.3,22.7,22,25.5 M22.6,6C17.1,5,10.4,7.4,7,13c-2.5,4.2-2.6,9.5-0.9,13.7c0.5,1.2,1.2,2.4,2.1,3.4
	c1.7,0.3,3.6,0.4,5.5,0.4c3.4,0,6.4-0.9,8.9-2.5c3.8-2.5,6.2-6.6,6.2-11.3C28.9,11.4,26.4,8,22.6,6"/>
</svg>
