<?xml version="1.0" encoding="utf-8"?>
<!-- Generator: Adobe Illustrator 25.2.0, SVG Export Plug-In . SVG Version: 6.00 Build 0)  -->
<svg version="1.1" id="Layer_1" xmlns="http://www.w3.org/2000/svg" xmlns:xlink="http://www.w3.org/1999/xlink" x="0px" y="0px"
	 viewBox="0 0 36 35" style="enable-background:new 0 0 36 35;" xml:space="preserve">
<style type="text/css">
	.st0{fill:#5A5564;}
	.st1{fill:#F09242;}
	.st2{fill:#282138;}
</style>
<g id="Layer_2_1_">
	<g id="Layer_1-2">
		<g id="Page-1">
			<g id="wbtc_colour">
				<path id="Shape" class="st0" d="M28.6,7.3l-0.9,0.9c4.6,5,4.6,12.8,0,17.8l0.9,0.9C33.7,21.4,33.7,12.8,28.6,7.3L28.6,7.3z"/>
				<path id="Shape-2" class="st0" d="M8.9,7.3c5-4.6,12.8-4.6,17.8,0l0.9-0.9C22.1,1.3,13.6,1.3,8,6.4L8.9,7.3z"/>
				<path id="Shape-3" class="st0" d="M8.1,26c-4.6-5-4.6-12.8,0-17.8L7.1,7.3C2,12.8,2,21.4,7.1,27L8.1,26z"/>
				<path id="Shape-4" class="st0" d="M26.8,26.9c-5,4.6-12.8,4.6-17.8,0L8,27.8c5.6,5.1,14.2,5.1,19.7,0L26.8,26.9z"/>
				<path id="Shape-5" class="st1" d="M23.7,14c-0.2-1.9-1.9-2.6-4-2.8V8.5h-1.6v2.6c-0.4,0-0.9,0-1.3,0V8.5h-1.6v2.7h-3.3V13
					c0,0,1.2,0,1.2,0c0.5-0.1,0.9,0.3,0.9,0.7v7.4c0,0.2-0.1,0.3-0.2,0.4c-0.1,0.1-0.3,0.2-0.4,0.1c0,0-1.2,0-1.2,0l-0.3,2h3.3v2.7
					h1.6v-2.7h1.3v2.7h1.6v-2.7c2.8-0.2,4.7-0.9,5-3.5c0.2-2.1-0.8-3-2.4-3.4C23.3,16.3,23.9,15.4,23.7,14z M21.4,19.9
					c0,2-3.5,1.8-4.6,1.8V18C17.9,18,21.4,17.7,21.4,19.9z M20.7,14.7c0,1.9-2.9,1.6-3.8,1.6v-3.3C17.8,13.1,20.7,12.8,20.7,14.7z"
					/>
				<path id="Shape-6" class="st2" d="M17.8,34.1c-9.4,0-17-7.6-17-17c0-9.4,7.6-17,17-17c9.4,0,17,7.6,17,17
					C34.9,26.5,27.2,34.1,17.8,34.1C17.9,34.1,17.8,34.1,17.8,34.1z M17.8,1.4c-8.7,0-15.7,7-15.7,15.7c0,8.7,7,15.7,15.7,15.7
					c8.6,0,15.6-7,15.7-15.7C33.5,8.5,26.5,1.5,17.8,1.4C17.9,1.4,17.9,1.4,17.8,1.4z"/>
			</g>
		</g>
	</g>
</g>
</svg>
