<?xml version="1.0" encoding="utf-8"?>
<!-- Generator: Adobe Illustrator 25.3.1, SVG Export Plug-In . SVG Version: 6.00 Build 0)  -->
<svg version="1.1" id="Layer_1" xmlns="http://www.w3.org/2000/svg" xmlns:xlink="http://www.w3.org/1999/xlink" x="0px" y="0px"
	 viewBox="0 0 36 35" style="enable-background:new 0 0 36 35;" xml:space="preserve">
<style type="text/css">
	.st0{fill:#231815;}
</style>
<desc>Created with Sketch.</desc>
<path class="st0" d="M27.1,23.2c1.2,1.6,2.4,3.3,3.7,4.9c-2.5,2.9-5.5,4.8-9.3,5.6c-4.1,0.9-8,0.2-11.8-1.9c3.4-2.5,6.7-5,10-7.5
	c0.7,0.7,1.5,1.4,2.2,2.1c0.8,0.7,0.5,0.8,1.5,0.2c1.4-0.8,2.5-1.9,3.4-3.2c0-0.1,0.1-0.1,0.1-0.2C26.9,23.3,26.9,23.3,27.1,23.2
	L27.1,23.2z M12.3,26.5c-0.9,0.7-1.8,1.3-2.7,2C9,29.1,8.4,29.5,7.8,30c-0.3,0.2-0.4,0.2-0.7,0c-2.8-2.5-4.6-5.7-5.3-9.4
	C1,16.7,1.6,13.1,3.4,9.7c0-0.1,0.1-0.2,0.1-0.3c0,0,0,0,0.1-0.1c2.5,3.3,5,6.5,7.5,9.8c-0.1,0.1-0.1,0.2-0.2,0.3
	c-0.7,0.8-1.5,1.6-2.3,2.3c-0.2,0.2-0.3,0.4-0.1,0.7c0.8,1.5,1.9,2.7,3.2,3.7C11.9,26.3,12.1,26.4,12.3,26.5L12.3,26.5z M26.3,3.3
	c-1.2,0.9-2.4,1.7-3.6,2.5c-2.1,1.5-4.1,3-6.1,4.4c-0.3,0.2-0.4,0.2-0.7,0c-0.7-0.7-1.4-1.3-2.1-2.1C13.6,8,13.4,7.9,13.2,8
	c-1.6,0.8-2.9,2-3.9,3.4c-0.1,0.1-0.1,0.2-0.2,0.3C8.4,11,7.9,10.3,7.3,9.5C6.7,8.7,6.1,8,5.6,7.2c-0.2-0.3-0.2-0.4,0-0.7
	C8.5,3.3,12.1,1.4,16.3,1c3.4-0.4,6.6,0.3,9.6,1.9C26,3,26.2,3,26.3,3.1C26.3,3.2,26.3,3.2,26.3,3.3z M32.4,25.8
	c-0.8-1-1.5-1.9-2.2-2.9c-1.6-2.2-3.3-4.4-5-6.6c-0.2-0.3-0.2-0.5,0-0.7c0.7-0.7,1.4-1.4,2.1-2.1c0.2-0.2,0.3-0.4,0.1-0.6
	c-0.8-1.6-1.9-2.9-3.4-3.9c-0.1-0.1-0.2-0.2-0.4-0.3c0.1-0.1,0.2-0.2,0.3-0.3c1.4-1.1,2.8-2.1,4.3-3.2c0.2-0.2,0.4-0.3,0.7,0
	c3.6,3.2,5.5,7.2,5.7,12.1c0.1,2.8-0.6,5.5-1.8,8C32.6,25.3,32.5,25.5,32.4,25.8z"/>
</svg>
